<?xml version="1.0" encoding="utf-8"?>
<!-- Generator: Adobe Illustrator 27.5.0, SVG Export Plug-In . SVG Version: 6.00 Build 0)  -->
<svg version="1.1" xmlns="http://www.w3.org/2000/svg" xmlns:xlink="http://www.w3.org/1999/xlink" x="0px" y="0px"
	 viewBox="0 0 500 500" style="enable-background:new 0 0 500 500;" xml:space="preserve">
<g id="BACKGROUND">
	<radialGradient id="SVGID_1_" cx="496.078" cy="-3.397" r="550.4804" gradientUnits="userSpaceOnUse">
		<stop  offset="0" style="stop-color:#52BCFA"/>
		<stop  offset="1" style="stop-color:#3668D7"/>
	</radialGradient>
	<rect style="fill:url(#SVGID_1_);" width="500" height="500"/>
</g>
<g id="OBJECTS">
	<g style="opacity:0.2;">
		<path style="fill:#0C1621;" d="M431.801,267.094c5.412,3.124,5.44,8.208,0.042,11.345L212.036,405.74
			c-5.398,3.137-14.152,3.125-19.564,0L61.818,330.307c-5.433-3.137-5.483-8.208-0.085-11.345L281.54,191.661
			c5.398-3.137,14.174-3.137,19.607,0L431.801,267.094z"/>
	</g>
	<g>
		<g>
			<g>
				<path style="fill:#1F4E7A;" d="M438.463,233.512c5.078,2.931,5.104,7.701,0.04,10.644L204.409,379.743
					c-5.064,2.943-13.278,2.931-18.356,0L63.469,308.969c-5.097-2.943-5.144-7.701-0.08-10.644l234.094-135.587
					c5.065-2.943,13.299-2.943,18.396,0L438.463,233.512z"/>
			</g>
		</g>
		<polygon style="fill:#1F4E7A;" points="442.286,238.313 442.286,227.319 59.632,292.109 59.632,303.455 		"/>
		<g>
			<g>
				<path style="fill:#FFFFFF;" d="M438.463,222.167c5.078,2.932,5.104,7.701,0.04,10.644L204.409,368.397
					c-5.064,2.943-13.278,2.932-18.356,0L63.469,297.623c-5.097-2.943-5.144-7.701-0.08-10.644l234.094-135.586
					c5.065-2.943,13.299-2.943,18.396,0L438.463,222.167z"/>
			</g>
		</g>
		<g>
			<g>
				
					<linearGradient id="SVGID_00000011012543987727660410000011139620213586002069_" gradientUnits="userSpaceOnUse" x1="430.6615" y1="236.9126" x2="73.5505" y2="282.3257">
					<stop  offset="0" style="stop-color:#202A72"/>
					<stop  offset="1" style="stop-color:#3798B9"/>
				</linearGradient>
				<path style="fill:url(#SVGID_00000011012543987727660410000011139620213586002069_);" d="M423.931,224.114
					c4.654,2.687,4.679,7.06,0.036,9.757l-218.77,126.682c-4.643,2.698-12.172,2.687-16.827,0L75.998,295.675
					c-4.673-2.698-4.716-7.059-0.073-9.757l218.77-126.681c4.643-2.698,12.191-2.698,16.864,0L423.931,224.114z"/>
			</g>
		</g>
		<g>
			<path style="fill:#FFFFFF;" d="M395.122,200.501c-8.447,4.909-22.182,4.902-30.684-0.006l-21.215-12.249
				c-8.491-4.902-8.547-12.858-0.1-17.767L395.122,200.501z"/>
		</g>
		<path style="opacity:0.1;fill:#DEEAF8;" d="M81.547,288.293L289.75,166.515c9.044-5.256,20.202-5.3,29.287-0.116l98.659,56.295
			L81.547,288.293z"/>
		<polygon style="opacity:0.1;fill:#DEEAF8;" points="90.111,293.531 417.697,231.614 386.48,249.756 120.677,311.178 		"/>
		<g>
			<path style="fill:#142E45;" d="M128.498,337.188c1.685,0.973,3.039,3.332,3.034,5.267c-0.006,1.936-1.369,2.713-3.053,1.74
				l-13.039-7.528c-1.685-0.973-3.039-3.319-3.034-5.255c0.006-1.936,1.369-2.726,3.054-1.753L128.498,337.188z"/>
		</g>
		<g>
			<g>
				<path style="fill:#142E45;" d="M164.251,358.57c0.591,0.341,1.068,1.167,1.066,1.846c-0.002,0.679-0.482,0.946-1.073,0.605
					c-0.585-0.338-1.062-1.157-1.06-1.836C163.185,358.506,163.666,358.233,164.251,358.57z"/>
			</g>
			<g>
				<path style="fill:#142E45;" d="M169.911,361.839c0.591,0.341,1.068,1.168,1.066,1.846c-0.002,0.679-0.482,0.946-1.073,0.605
					c-0.585-0.338-1.062-1.157-1.06-1.836C168.846,361.775,169.326,361.501,169.911,361.839z"/>
			</g>
			<g>
				<path style="fill:#142E45;" d="M175.578,365.11c0.585,0.338,1.062,1.164,1.06,1.843c-0.002,0.679-0.482,0.946-1.067,0.608
					c-0.591-0.341-1.068-1.161-1.066-1.84C174.507,365.043,174.987,364.769,175.578,365.11z"/>
			</g>
			<g>
				<path style="fill:#142E45;" d="M164.24,362.298c0.591,0.341,1.068,1.168,1.066,1.846c-0.002,0.672-0.482,0.946-1.073,0.605
					c-0.585-0.338-1.062-1.164-1.06-1.836C163.175,362.234,163.655,361.96,164.24,362.298z"/>
			</g>
			<g>
				<path style="fill:#142E45;" d="M169.901,365.566c0.591,0.341,1.068,1.167,1.066,1.846c-0.002,0.672-0.482,0.946-1.073,0.605
					c-0.585-0.338-1.062-1.164-1.06-1.836C168.836,365.502,169.316,365.229,169.901,365.566z"/>
			</g>
			<g>
				<path style="fill:#142E45;" d="M175.568,368.838c0.585,0.338,1.062,1.164,1.06,1.843c-0.002,0.672-0.482,0.946-1.067,0.608
					c-0.591-0.341-1.068-1.168-1.066-1.84C174.497,368.771,174.977,368.497,175.568,368.838z"/>
			</g>
		</g>
		<g>
			<g style="enable-background:new    ;">
				<path style="fill:#C1CAD6;" d="M405.354,256.054c-0.003-0.002-0.007-0.004-0.01-0.006c-0.029-0.016-0.059-0.031-0.09-0.044
					c-0.031-0.013-0.062-0.024-0.095-0.033c-0.021-0.006-0.042-0.01-0.064-0.015c-0.005-0.001-0.01-0.003-0.015-0.003
					c-0.007-0.001-0.014-0.004-0.022-0.005c-0.035-0.006-0.071-0.01-0.108-0.013c-0.039-0.002-0.078-0.003-0.118-0.001
					c-0.013,0.001-0.026,0.003-0.039,0.004c-0.009,0.001-0.018,0.002-0.027,0.003c-0.023,0.002-0.045,0.003-0.068,0.007
					c-0.051,0.008-0.104,0.019-0.157,0.034c-0.022,0.006-0.045,0.016-0.068,0.023c-0.021,0.007-0.041,0.014-0.062,0.021
					c-0.027,0.01-0.053,0.016-0.08,0.027c-0.082,0.034-0.165,0.075-0.249,0.124l-5.528,3.191c-0.115,0.066-0.226,0.145-0.335,0.232
					c-0.035,0.028-0.069,0.061-0.103,0.091c-0.052,0.046-0.106,0.088-0.157,0.138c-0.023,0.022-0.044,0.048-0.067,0.071
					c-0.02,0.021-0.04,0.042-0.06,0.064c-0.023,0.025-0.047,0.048-0.069,0.073c-0.05,0.057-0.098,0.116-0.145,0.177
					c-0.016,0.02-0.031,0.042-0.046,0.063c-0.009,0.011-0.017,0.022-0.025,0.034c-0.016,0.022-0.032,0.043-0.048,0.065
					c-0.035,0.051-0.07,0.102-0.104,0.155c-0.032,0.05-0.063,0.1-0.092,0.151c-0.002,0.003-0.004,0.007-0.006,0.011
					c-0.002,0.004-0.004,0.007-0.006,0.011c-0.025,0.043-0.049,0.086-0.072,0.129c-0.027,0.05-0.052,0.101-0.077,0.152
					c-0.021,0.045-0.042,0.09-0.062,0.135c-0.002,0.004-0.003,0.007-0.005,0.01c-0.001,0.003-0.003,0.007-0.004,0.01
					c-0.023,0.053-0.045,0.107-0.065,0.16c-0.022,0.056-0.042,0.112-0.06,0.168c-0.009,0.027-0.017,0.055-0.025,0.082
					c-0.004,0.012-0.008,0.025-0.011,0.037c-0.006,0.021-0.013,0.042-0.019,0.063c-0.019,0.068-0.036,0.137-0.05,0.205
					c-0.009,0.041-0.014,0.082-0.021,0.123c-0.004,0.021-0.008,0.042-0.011,0.064c-0.003,0.02-0.008,0.04-0.01,0.061
					c-0.015,0.118-0.023,0.235-0.023,0.349c0.001,0.282,0.051,0.521,0.141,0.714c0.09,0.193,0.22,0.338,0.38,0.431l1.364,0.792
					c-0.32-0.186-0.519-0.581-0.521-1.144c0-0.134,0.012-0.271,0.033-0.41c0.003-0.021,0.007-0.042,0.011-0.063
					c0.022-0.13,0.052-0.26,0.091-0.391c0.004-0.012,0.007-0.024,0.011-0.036c0.043-0.141,0.095-0.282,0.156-0.421
					c0.001-0.004,0.003-0.007,0.005-0.01c0.062-0.142,0.133-0.281,0.211-0.416c0.002-0.003,0.003-0.007,0.005-0.01
					c0.077-0.132,0.161-0.26,0.25-0.382c0.008-0.011,0.016-0.022,0.024-0.032c0.082-0.11,0.17-0.215,0.261-0.314
					c0.02-0.021,0.039-0.043,0.059-0.063c0.072-0.075,0.148-0.144,0.225-0.21c0.034-0.03,0.068-0.062,0.103-0.09
					c0.109-0.087,0.22-0.166,0.335-0.232l5.528-3.191c0.113-0.065,0.222-0.113,0.329-0.151c0.021-0.008,0.042-0.015,0.062-0.021
					c0.101-0.032,0.199-0.055,0.293-0.064c0.009-0.001,0.017-0.002,0.026-0.003c0.101-0.008,0.197-0.003,0.288,0.015
					c0.005,0.001,0.009,0.002,0.014,0.003c0.092,0.02,0.179,0.052,0.258,0.098L405.354,256.054z"/>
				<g>
					<path style="fill:#A0A8B3;" d="M405.448,256.97c0.982-0.567,1.788-0.115,1.791,1.021c0.003,1.136-0.797,2.515-1.779,3.082
						l-5.528,3.191c-0.982,0.567-1.788,0.115-1.791-1.021c-0.003-1.136,0.797-2.515,1.779-3.082L405.448,256.97z"/>
				</g>
			</g>
		</g>
		<g>
			<g style="enable-background:new    ;">
				<path style="fill:#C1CAD6;" d="M393.261,263.164c-0.003-0.002-0.007-0.004-0.01-0.006c-0.029-0.016-0.059-0.031-0.09-0.044
					c-0.031-0.013-0.062-0.024-0.094-0.033c-0.021-0.006-0.042-0.01-0.064-0.015c-0.005-0.001-0.01-0.003-0.015-0.004
					c-0.007-0.001-0.014-0.004-0.022-0.005c-0.035-0.006-0.071-0.01-0.108-0.013c-0.039-0.002-0.078-0.003-0.118-0.001
					c-0.013,0.001-0.026,0.003-0.039,0.004c-0.009,0.001-0.018,0.002-0.027,0.003c-0.022,0.002-0.044,0.003-0.067,0.007
					c-0.051,0.008-0.104,0.019-0.157,0.034c-0.022,0.006-0.045,0.016-0.068,0.023c-0.021,0.007-0.041,0.014-0.062,0.021
					c-0.027,0.01-0.053,0.016-0.08,0.028c-0.082,0.034-0.165,0.075-0.249,0.124l-5.528,3.191c-0.115,0.066-0.226,0.145-0.335,0.232
					c-0.035,0.028-0.069,0.061-0.103,0.091c-0.053,0.046-0.107,0.088-0.157,0.138c-0.023,0.023-0.044,0.048-0.067,0.071
					c-0.02,0.021-0.04,0.042-0.06,0.064c-0.023,0.025-0.047,0.048-0.069,0.073c-0.05,0.057-0.098,0.116-0.145,0.177
					c-0.016,0.02-0.031,0.042-0.046,0.063c-0.009,0.011-0.017,0.022-0.025,0.034c-0.016,0.022-0.032,0.042-0.048,0.064
					c-0.036,0.051-0.07,0.102-0.104,0.155c-0.032,0.05-0.063,0.1-0.092,0.151c-0.002,0.004-0.004,0.007-0.006,0.011
					c-0.002,0.003-0.004,0.007-0.006,0.011c-0.024,0.043-0.049,0.086-0.072,0.129c-0.027,0.05-0.052,0.101-0.077,0.152
					c-0.021,0.045-0.042,0.09-0.062,0.135c-0.001,0.004-0.003,0.007-0.005,0.01c-0.001,0.003-0.003,0.006-0.004,0.01
					c-0.023,0.053-0.045,0.106-0.065,0.16c-0.021,0.056-0.042,0.112-0.06,0.168c-0.009,0.027-0.017,0.055-0.025,0.082
					c-0.004,0.012-0.008,0.025-0.011,0.037c-0.006,0.021-0.013,0.042-0.019,0.063c-0.019,0.068-0.036,0.137-0.05,0.205
					c-0.009,0.041-0.014,0.082-0.021,0.123c-0.004,0.021-0.008,0.042-0.011,0.064c-0.003,0.02-0.008,0.04-0.01,0.061
					c-0.015,0.118-0.023,0.235-0.023,0.349c0.001,0.282,0.051,0.521,0.141,0.714c0.09,0.192,0.22,0.338,0.38,0.431l1.364,0.792
					c-0.32-0.186-0.519-0.581-0.521-1.144c0-0.134,0.012-0.271,0.033-0.41c0.003-0.021,0.007-0.042,0.011-0.063
					c0.022-0.129,0.052-0.26,0.091-0.391c0.003-0.012,0.007-0.024,0.011-0.036c0.043-0.141,0.095-0.282,0.156-0.421
					c0.001-0.003,0.003-0.007,0.005-0.01c0.062-0.142,0.133-0.281,0.211-0.417c0.002-0.003,0.003-0.006,0.005-0.01
					c0.077-0.132,0.161-0.26,0.25-0.382c0.008-0.011,0.016-0.022,0.024-0.032c0.082-0.11,0.17-0.215,0.261-0.314
					c0.02-0.021,0.039-0.042,0.059-0.063c0.072-0.075,0.148-0.143,0.225-0.21c0.034-0.03,0.068-0.062,0.103-0.09
					c0.109-0.087,0.22-0.166,0.335-0.232l5.528-3.191c0.113-0.065,0.222-0.113,0.329-0.152c0.021-0.008,0.042-0.015,0.062-0.021
					c0.101-0.032,0.199-0.055,0.293-0.064c0.009-0.001,0.017-0.002,0.026-0.003c0.101-0.008,0.197-0.003,0.288,0.015
					c0.005,0.001,0.009,0.002,0.014,0.003c0.092,0.02,0.179,0.052,0.258,0.098L393.261,263.164z"/>
				<g>
					<path style="fill:#A0A8B3;" d="M393.354,264.08c0.982-0.567,1.788-0.115,1.791,1.02c0.003,1.135-0.797,2.515-1.779,3.082
						l-5.528,3.191c-0.982,0.567-1.788,0.115-1.791-1.021c-0.003-1.135,0.797-2.515,1.779-3.082L393.354,264.08z"/>
				</g>
			</g>
		</g>
		<g>
			<path style="fill:#132B42;" d="M371.667,191.4c1.258,0.726,1.264,1.919,0.015,2.646c-1.261,0.733-3.31,0.726-4.567,0
				l-11.837-6.834c-1.258-0.726-1.265-1.906-0.004-2.639c1.25-0.726,3.298-0.733,4.556-0.006L371.667,191.4z"/>
		</g>
		<g>
			<g>
				<path style="fill:#142E45;" d="M127.182,295.838l-16.278,9.46c-0.572,0.333-1.279,0.334-1.853,0.003l-16.403-9.47
					c-1.23-0.71-1.233-2.485-0.005-3.198l16.278-9.46c0.572-0.333,1.279-0.334,1.853-0.003l16.403,9.47
					C128.407,293.35,128.41,295.125,127.182,295.838z"/>
			</g>
			<g>
				<path style="fill:#142E45;" d="M152.144,311.034l-16.278,9.46c-0.573,0.333-1.279,0.334-1.853,0.003l-16.403-9.47
					c-1.23-0.71-1.233-2.485-0.004-3.198l16.278-9.46c0.572-0.333,1.279-0.334,1.853-0.003l16.403,9.47
					C153.37,308.546,153.372,310.32,152.144,311.034z"/>
			</g>
			<g>
				<path style="fill:#142E45;" d="M179.203,326.754l-16.278,9.46c-0.572,0.333-1.279,0.334-1.853,0.003l-16.403-9.47
					c-1.23-0.71-1.232-2.485-0.005-3.198l16.278-9.46c0.572-0.333,1.279-0.334,1.853-0.003l16.403,9.47
					C180.428,324.266,180.431,326.04,179.203,326.754z"/>
			</g>
			<g>
				<path style="fill:#142E45;" d="M205.999,342.997l-16.278,9.46c-0.572,0.333-1.279,0.334-1.853,0.003l-16.403-9.47
					c-1.23-0.71-1.233-2.485-0.005-3.198l16.278-9.46c0.572-0.333,1.279-0.334,1.853-0.003l16.403,9.47
					C207.225,340.509,207.227,342.284,205.999,342.997z"/>
			</g>
		</g>
	</g>
	<path style="opacity:0.5;fill:#E6F0FF;" d="M423.931,189.639l-36.08-20.831c-7.803,1.805-17.066,0.876-23.413-2.788l-21.215-12.249
		c-6.339-3.66-7.971-9.021-4.879-13.546l-26.784-15.463c-4.673-2.698-12.221-2.698-16.864,0L75.925,251.443
		c-4.643,2.698-4.6,7.06,0.073,9.757l112.372,64.878c4.655,2.687,12.184,2.698,16.827,0l218.77-126.682
		C428.61,196.698,428.585,192.326,423.931,189.639z"/>
	<g>
		<g>
			<polygon style="fill:#ED0A2F;" points="341.693,283.482 312.161,300.645 258.073,269.417 237.634,267.568 246.224,262.576 
				236.534,256.981 266.066,239.819 			"/>
		</g>
		<g>
			<path style="fill:#FFFFFF;" d="M282.455,256.547c0.11,0.063,0.212,0.122,0.314,0.189c4.766,3.004,0.633,7.848-6.393,7.612
				l-16.294-0.556l-1.006-9.432c-0.445-4.069,7.905-6.479,13.113-3.732c0.109,0.055,0.219,0.118,0.321,0.177
				c1.955,1.129,2.916,2.608,2.888,4.086C277.952,254.87,280.507,255.422,282.455,256.547z"/>
		</g>
		<g>
			<g>
				<path style="fill:#FFFFFF;" d="M320.259,279.164c3.488,2.014,3.218,4.436-0.776,6.757c-4.009,2.33-8.19,2.494-11.677,0.48
					c-3.524-2.035-3.261-4.461,0.747-6.791C312.547,277.289,316.735,277.129,320.259,279.164z M310.082,285.079
					c1.547,0.893,3.392,0.623,6.198-1.007c2.805-1.63,3.25-2.692,1.703-3.585c-1.591-0.918-3.393-0.64-6.198,0.99
					C308.98,283.107,308.491,284.16,310.082,285.079"/>
			</g>
			<g>
				<path style="fill:#FFFFFF;" d="M307.87,272.011c3.488,2.014,3.218,4.436-0.777,6.757c-4.009,2.329-8.19,2.494-11.677,0.48
					c-3.524-2.035-3.254-4.457,0.755-6.786C300.165,270.141,304.346,269.977,307.87,272.011z M297.693,277.926
					c1.547,0.893,3.393,0.623,6.198-1.007c2.805-1.63,3.25-2.692,1.703-3.585c-1.591-0.918-3.393-0.64-6.198,0.99
					C296.591,275.954,296.102,277.007,297.693,277.926"/>
			</g>
			<g>
				<polygon style="fill:#FFFFFF;" points="299.852,267.483 287.572,274.619 284.435,272.807 294.206,267.129 291.93,265.815 
					294.438,264.357 				"/>
			</g>
		</g>
	</g>
	<g>
		<g>
			<polygon style="fill:#354D88;" points="180.681,238.668 151.149,255.83 138.241,248.378 127.314,254.915 129.128,243.117 
				75.522,212.167 105.054,195.005 			"/>
		</g>
		<g>
			<g>
				<polygon style="fill:#FFFFFF;" points="139.223,223.725 126.943,230.861 123.806,229.049 133.585,223.367 131.308,222.052 
					133.809,220.599 				"/>
			</g>
			<g>
				<path style="fill:#FFFFFF;" d="M159.63,235.406c3.488,2.014,3.218,4.436-0.776,6.757c-4.009,2.33-8.19,2.494-11.677,0.48
					c-3.524-2.035-3.261-4.461,0.747-6.791C151.918,233.531,156.106,233.371,159.63,235.406z M149.453,241.321
					c1.547,0.893,3.4,0.619,6.198-1.007c2.805-1.63,3.25-2.692,1.703-3.585c-1.591-0.918-3.393-0.64-6.198,0.99
					C148.358,239.345,147.862,240.402,149.453,241.321"/>
			</g>
			<g>
				<path style="fill:#FFFFFF;" d="M147.241,228.253c3.488,2.014,3.218,4.436-0.776,6.757c-4.009,2.33-8.19,2.494-11.677,0.48
					c-3.524-2.035-3.254-4.457,0.755-6.786C139.536,226.383,143.717,226.219,147.241,228.253z M137.064,234.168
					c1.547,0.893,3.4,0.619,6.198-1.007c2.805-1.63,3.25-2.692,1.703-3.585c-1.591-0.918-3.393-0.64-6.198,0.99
					C135.969,232.192,135.473,233.249,137.064,234.168"/>
			</g>
		</g>
		<g>
			<path style="fill:#FFFFFF;" d="M124.586,209.034c-0.628-0.362-1.545-0.497-2.395-0.358l-10.259,1.727l-3.393-1.959l-12.49,7.258
				l9.507,5.489l0,0l5.071,2.928l0.336,0.194c0.868,0.501,2.272,0.497,3.134-0.004c0.855-0.497,0.858-1.31-0.01-1.811
				c0.868,0.501,2.265,0.501,3.127,0c0.863-0.501,0.858-1.31-0.01-1.811c0.868,0.501,2.272,0.497,3.135-0.004
				c0.855-0.497,0.858-1.31-0.01-1.811c0.868,0.501,2.265,0.501,3.127,0c0.863-0.501,0.858-1.31-0.01-1.811l-0.927-0.536
				l-2.853-1.654c-0.897-0.518-0.793-1.373,0.215-1.807l4.44-1.904C125.519,210.647,125.637,209.64,124.586,209.034z"/>
			<g>
				<polygon style="fill:#F08900;" points="104.848,205.154 109.533,207.867 108.54,208.444 96.05,215.702 95.056,216.279 
					90.365,213.571 				"/>
			</g>
		</g>
	</g>
	<g>
		<g>
			
				<linearGradient id="SVGID_00000088820174675024424780000014215730250240975249_" gradientUnits="userSpaceOnUse" x1="379.3491" y1="210.5474" x2="231.5471" y2="172.4542">
				<stop  offset="0" style="stop-color:#3284D0"/>
				<stop  offset="1" style="stop-color:#66B6FF"/>
			</linearGradient>
			<polygon style="fill:url(#SVGID_00000088820174675024424780000014215730250240975249_);" points="381.906,210.749 
				340.202,234.991 233.548,173.428 275.251,149.185 			"/>
		</g>
	</g>
	<g>
		<polygon style="fill:#DEEAF8;" points="294.924,192.085 266.15,208.813 237.177,192.092 265.95,175.363 		"/>
	</g>
	<path style="opacity:0.2;fill:#E6F0FF;" d="M423.931,158.814l-36.08-20.831c-7.803,1.805-17.066,0.876-23.413-2.788l-21.215-12.249
		c-6.339-3.66-7.971-9.021-4.879-13.546l-26.784-15.464c-4.673-2.698-12.221-2.698-16.864,0L75.925,220.617
		c-4.643,2.698-4.6,7.06,0.073,9.757l112.372,64.878c4.655,2.687,12.184,2.698,16.827,0l218.77-126.682
		C428.61,165.873,428.585,161.501,423.931,158.814z"/>
	<g>
		<g>
			<g>
				<polygon style="fill:#FC9D21;" points="308.735,163 310.402,190.848 254.314,158.466 302.385,159.333 303.199,162.538 				"/>
			</g>
			<g>
				<polygon style="fill:#FCAB42;" points="352.098,166.618 308.735,163 303.199,162.538 302.385,159.333 296.01,134.235 				"/>
			</g>
			<g>
				<g>
					<polygon style="fill:#F08900;" points="296.01,134.235 302.385,159.333 254.314,158.466 					"/>
				</g>
			</g>
			<g>
				<g>
					<polygon style="fill:#F08900;" points="308.735,163 352.098,166.618 310.402,190.848 					"/>
				</g>
			</g>
		</g>
		<g>
			<path style="fill:#ED0A2F;" d="M359.917,161.283c5.098,2.943,5.124,7.726,0.06,10.669c-5.079,2.952-13.336,2.952-18.433,0.008
				c-5.112-2.951-5.139-7.734-0.06-10.686C346.548,158.332,354.805,158.332,359.917,161.283z"/>
		</g>
		<g>
			<g>
				<path style="fill:#FFFFFF;" d="M350.852,162.411c0.017,0.01,0.035,0.02,0.052,0.031c1.434,0.828,1.699,1.831,0.563,2.492
					c-0.777,0.451-2.176,0.594-3.779,0.602l-3.291,0.033l3.215,1.873l-1.381,0.786l-5.329-3.11l1.137-0.644l5.384-0.075
					c0.909-0.008,1.732-0.117,2.091-0.326c0.446-0.259,0.372-0.619-0.236-0.97s-1.692-0.577-2.89-0.619l0.586-1.079
					C348.505,161.519,349.858,161.836,350.852,162.411z"/>
			</g>
			<g>
				<path style="fill:#FFFFFF;" d="M357.595,166.354c2.027,1.187,1.862,2.592-0.512,3.955c-2.375,1.364-4.815,1.47-6.822,0.312
					c-0.011-0.006-0.022-0.013-0.033-0.019c-2.071-1.196-1.862-2.609,0.512-3.971c2.347-1.364,4.772-1.479,6.821-0.296
					C357.573,166.341,357.584,166.347,357.595,166.354z M351.51,169.891c0.993,0.574,2.184,0.425,3.879-0.561
					c1.712-0.978,1.968-1.664,0.94-2.258c-1.028-0.594-2.197-0.451-3.909,0.527c-1.712,0.995-1.968,1.681-0.94,2.274
					C351.49,169.88,351.5,169.886,351.51,169.891"/>
			</g>
		</g>
	</g>
</g>
<g id="DESIGNED_BY_FREEPIK">
	<g id="XMLID_114_">
		<g>
			<g id="XMLID_548_">
				<g>
					<g id="XMLID_584_">
						<path id="XMLID_606_" style="fill:#242424;" d="M181.073,474.014c-0.246,0-0.434,0.085-0.567,0.255
							c-0.133,0.17-0.199,0.421-0.199,0.754v2.392c-0.305-0.331-0.617-0.578-0.938-0.739c-0.321-0.159-0.715-0.24-1.181-0.24
							c-0.807,0-1.458,0.283-1.953,0.848c-0.495,0.566-0.742,1.356-0.742,2.369c0,0.478,0.063,0.923,0.187,1.335
							c0.125,0.412,0.307,0.77,0.549,1.074c0.241,0.305,0.527,0.539,0.857,0.704c0.331,0.164,0.69,0.246,1.078,0.246
							c0.293,0,0.563-0.04,0.81-0.122c0.247-0.081,0.477-0.2,0.689-0.356c0.212-0.156,0.426-0.359,0.644-0.608v0.161
							c0,0.297,0.072,0.525,0.216,0.686c0.145,0.16,0.328,0.24,0.549,0.24c0.226,0,0.41-0.078,0.552-0.231
							c0.143-0.154,0.214-0.386,0.214-0.694v-7.147c0-0.305-0.066-0.535-0.199-0.691
							C181.507,474.092,181.319,474.014,181.073,474.014z M180.008,480.856c-0.14,0.306-0.328,0.534-0.564,0.682
							c-0.236,0.149-0.496,0.223-0.781,0.223c-0.281,0-0.54-0.079-0.778-0.236c-0.237-0.156-0.424-0.388-0.561-0.697
							c-0.136-0.309-0.205-0.682-0.205-1.122c0-0.416,0.064-0.781,0.193-1.096c0.128-0.315,0.309-0.556,0.543-0.724
							c0.234-0.168,0.499-0.252,0.796-0.252c0.285,0,0.547,0.082,0.786,0.245c0.24,0.165,0.429,0.402,0.57,0.712
							c0.141,0.311,0.21,0.682,0.21,1.114C180.218,480.165,180.148,480.549,180.008,480.856z"/>
						<path id="XMLID_603_" style="fill:#242424;" d="M188.44,479.936c0.233-0.122,0.35-0.385,0.35-0.793
							c0-0.438-0.113-0.87-0.338-1.294c-0.225-0.423-0.565-0.769-1.019-1.035c-0.453-0.268-0.996-0.4-1.629-0.4
							c-0.487,0-0.93,0.078-1.33,0.234c-0.4,0.157-0.736,0.381-1.01,0.674c-0.273,0.293-0.48,0.644-0.623,1.054
							c-0.143,0.409-0.213,0.853-0.213,1.332c0,1.017,0.289,1.823,0.866,2.416c0.578,0.593,1.387,0.891,2.428,0.891
							c0.455,0,0.858-0.059,1.208-0.178c0.351-0.119,0.641-0.268,0.873-0.448c0.231-0.18,0.404-0.368,0.52-0.564
							c0.114-0.197,0.172-0.367,0.172-0.513c0-0.167-0.052-0.294-0.155-0.386c-0.102-0.091-0.237-0.137-0.403-0.137
							c-0.155,0-0.274,0.036-0.357,0.107c-0.202,0.19-0.366,0.341-0.493,0.452c-0.127,0.111-0.265,0.215-0.415,0.312
							c-0.151,0.098-0.306,0.168-0.466,0.214c-0.161,0.045-0.338,0.067-0.531,0.067c-0.289,0-0.553-0.07-0.793-0.213
							c-0.239-0.142-0.432-0.354-0.576-0.635c-0.145-0.281-0.219-0.605-0.223-0.973h3.17
							C187.878,480.117,188.206,480.056,188.44,479.936z M184.284,479.197c0.056-0.546,0.213-0.959,0.472-1.238
							c0.259-0.279,0.59-0.418,0.994-0.418c0.424,0,0.764,0.137,1.024,0.412c0.259,0.275,0.409,0.69,0.448,1.244H184.284z"/>
						<path id="XMLID_602_" style="fill:#242424;" d="M193.868,479.499c-0.319-0.17-0.729-0.316-1.231-0.44
							c-0.424-0.103-0.756-0.19-0.997-0.261c-0.242-0.071-0.434-0.161-0.576-0.27c-0.142-0.109-0.213-0.248-0.213-0.419
							c0-0.186,0.097-0.341,0.291-0.465c0.194-0.126,0.437-0.187,0.73-0.187c0.285,0,0.511,0.047,0.677,0.142
							c0.167,0.095,0.31,0.222,0.433,0.38c0.15,0.19,0.284,0.332,0.401,0.427c0.117,0.096,0.258,0.143,0.424,0.143
							c0.23,0,0.407-0.061,0.532-0.178c0.124-0.119,0.186-0.272,0.186-0.457c0-0.171-0.058-0.345-0.175-0.523
							c-0.117-0.178-0.287-0.34-0.51-0.486c-0.223-0.146-0.503-0.264-0.837-0.35c-0.334-0.088-0.711-0.131-1.131-0.131
							c-0.534,0-0.99,0.086-1.367,0.259c-0.379,0.172-0.664,0.403-0.859,0.691c-0.194,0.289-0.291,0.596-0.291,0.92
							c0,0.364,0.105,0.671,0.315,0.921c0.21,0.249,0.49,0.45,0.84,0.602c0.35,0.152,0.804,0.298,1.362,0.436
							c0.495,0.119,0.85,0.244,1.066,0.375c0.216,0.131,0.324,0.337,0.324,0.623c0,0.186-0.104,0.351-0.311,0.496
							c-0.208,0.144-0.474,0.217-0.798,0.217c-0.4,0-0.716-0.071-0.947-0.214c-0.232-0.143-0.431-0.358-0.597-0.648
							c-0.082-0.15-0.17-0.267-0.261-0.35c-0.091-0.083-0.221-0.124-0.391-0.124c-0.194,0-0.355,0.063-0.481,0.19
							c-0.127,0.126-0.19,0.278-0.19,0.457c0,0.27,0.099,0.537,0.297,0.805c0.198,0.266,0.505,0.49,0.92,0.667
							c0.416,0.178,0.914,0.267,1.496,0.267c0.609,0,1.127-0.082,1.552-0.246c0.426-0.164,0.747-0.406,0.965-0.725
							c0.218-0.319,0.327-0.702,0.327-1.149c0-0.297-0.082-0.56-0.246-0.792C194.427,479.87,194.186,479.668,193.868,479.499z"/>
						<path id="XMLID_600_" style="fill:#242424;" d="M196.476,476.424c-0.238,0-0.431,0.081-0.579,0.243
							c-0.149,0.162-0.222,0.404-0.222,0.724v4.636c0,0.317,0.074,0.56,0.222,0.73c0.148,0.17,0.341,0.255,0.579,0.255
							c0.238,0,0.433-0.083,0.588-0.249c0.154-0.166,0.232-0.412,0.232-0.737v-4.683c0-0.289-0.077-0.515-0.232-0.677
							C196.909,476.505,196.714,476.424,196.476,476.424z"/>
						<path id="XMLID_599_" style="fill:#242424;" d="M196.494,474.085c-0.217,0-0.409,0.074-0.573,0.223
							c-0.164,0.149-0.246,0.337-0.246,0.567c0,0.254,0.08,0.45,0.24,0.588c0.16,0.139,0.353,0.208,0.579,0.208
							c0.218,0,0.406-0.071,0.564-0.211c0.158-0.14,0.238-0.335,0.238-0.585c0-0.258-0.081-0.453-0.244-0.588
							C196.889,474.152,196.703,474.085,196.494,474.085z"/>
						<path id="XMLID_596_" style="fill:#242424;" d="M203.617,476.424c-0.218,0-0.396,0.078-0.535,0.231
							c-0.139,0.155-0.208,0.372-0.208,0.653v0.22c-0.289-0.376-0.602-0.652-0.938-0.829c-0.337-0.175-0.735-0.264-1.193-0.264
							c-0.384,0-0.736,0.068-1.057,0.204c-0.32,0.137-0.603,0.339-0.849,0.609c-0.245,0.269-0.434,0.599-0.567,0.992
							c-0.132,0.391-0.198,0.831-0.198,1.318c0,0.653,0.108,1.228,0.326,1.727c0.217,0.499,0.529,0.886,0.934,1.163
							c0.406,0.277,0.88,0.416,1.422,0.416c0.451,0,0.84-0.091,1.166-0.273c0.327-0.182,0.614-0.447,0.864-0.796
							c-0.008,0.531-0.02,0.915-0.035,1.155c-0.016,0.24-0.07,0.465-0.163,0.673c-0.093,0.21-0.255,0.374-0.487,0.49
							c-0.232,0.117-0.557,0.175-0.977,0.175c-0.205,0-0.388-0.02-0.546-0.056c-0.158-0.038-0.294-0.095-0.407-0.172
							c-0.112-0.077-0.216-0.17-0.309-0.28c-0.093-0.108-0.183-0.217-0.27-0.324c-0.178-0.209-0.386-0.314-0.624-0.314
							c-0.189,0-0.352,0.062-0.486,0.187c-0.135,0.124-0.202,0.286-0.202,0.483c0,0.261,0.119,0.516,0.357,0.763
							c0.238,0.247,0.576,0.449,1.015,0.605c0.439,0.156,0.938,0.234,1.496,0.234c0.61,0,1.119-0.061,1.529-0.184
							c0.409-0.122,0.741-0.311,0.994-0.563c0.254-0.253,0.438-0.574,0.552-0.961c0.115-0.388,0.173-0.851,0.173-1.39v-4.707
							c0-0.384-0.052-0.678-0.155-0.882C204.137,476.526,203.929,476.424,203.617,476.424z M202.59,480.79
							c-0.151,0.29-0.345,0.508-0.585,0.653c-0.239,0.144-0.493,0.217-0.762,0.217c-0.455,0-0.826-0.168-1.113-0.505
							c-0.287-0.336-0.43-0.833-0.43-1.49c0-0.649,0.139-1.15,0.418-1.501c0.279-0.352,0.649-0.529,1.113-0.529
							c0.475,0,0.858,0.184,1.149,0.552c0.291,0.367,0.436,0.883,0.436,1.543C202.815,480.146,202.74,480.499,202.59,480.79z"/>
						<path id="XMLID_595_" style="fill:#242424;" d="M210.97,477.492c-0.165-0.339-0.417-0.603-0.753-0.789
							c-0.337-0.186-0.718-0.28-1.146-0.28c-0.439,0-0.828,0.089-1.166,0.264c-0.339,0.176-0.65,0.452-0.935,0.828v-0.196
							c0-0.193-0.035-0.358-0.104-0.493c-0.069-0.134-0.162-0.234-0.276-0.302c-0.115-0.068-0.244-0.101-0.387-0.101
							c-0.233,0-0.417,0.076-0.552,0.228c-0.135,0.152-0.202,0.383-0.202,0.692v4.683c0,0.317,0.075,0.56,0.225,0.73
							c0.151,0.17,0.342,0.255,0.576,0.255c0.241,0,0.438-0.082,0.59-0.246c0.152-0.164,0.228-0.411,0.228-0.74v-2.03
							c0-0.661,0.04-1.111,0.119-1.353c0.111-0.3,0.285-0.537,0.522-0.71c0.237-0.172,0.501-0.258,0.789-0.258
							c0.444,0,0.739,0.142,0.888,0.425c0.148,0.283,0.223,0.692,0.223,1.226v2.701c0,0.317,0.075,0.56,0.226,0.73
							c0.15,0.17,0.346,0.255,0.588,0.255c0.237,0,0.43-0.083,0.578-0.249c0.149-0.166,0.223-0.412,0.223-0.737v-3.015
							c0-0.356-0.016-0.649-0.048-0.879C211.147,477.905,211.078,477.69,210.97,477.492z"/>
						<path id="XMLID_592_" style="fill:#242424;" d="M217.815,479.936c0.234-0.122,0.35-0.385,0.35-0.793
							c0-0.438-0.113-0.87-0.338-1.294c-0.226-0.423-0.565-0.769-1.019-1.035c-0.453-0.268-0.996-0.4-1.629-0.4
							c-0.487,0-0.93,0.078-1.33,0.234c-0.4,0.157-0.736,0.381-1.009,0.674c-0.273,0.293-0.481,0.644-0.624,1.054
							c-0.142,0.409-0.214,0.853-0.214,1.332c0,1.017,0.289,1.823,0.866,2.416c0.578,0.593,1.388,0.891,2.428,0.891
							c0.455,0,0.858-0.059,1.208-0.178c0.35-0.119,0.641-0.268,0.872-0.448c0.232-0.18,0.405-0.368,0.52-0.564
							c0.115-0.197,0.172-0.367,0.172-0.513c0-0.167-0.051-0.294-0.154-0.386c-0.103-0.091-0.238-0.137-0.404-0.137
							c-0.154,0-0.273,0.036-0.356,0.107c-0.202,0.19-0.366,0.341-0.492,0.452c-0.128,0.111-0.266,0.215-0.416,0.312
							c-0.151,0.098-0.306,0.168-0.466,0.214c-0.161,0.045-0.338,0.067-0.532,0.067c-0.289,0-0.553-0.07-0.792-0.213
							c-0.24-0.142-0.432-0.354-0.576-0.635c-0.145-0.281-0.218-0.605-0.223-0.973h3.169
							C217.253,480.117,217.581,480.056,217.815,479.936z M213.659,479.197c0.055-0.546,0.212-0.959,0.471-1.238
							c0.259-0.279,0.591-0.418,0.995-0.418c0.423,0,0.765,0.137,1.024,0.412c0.259,0.275,0.409,0.69,0.448,1.244H213.659z"/>
						<path id="XMLID_589_" style="fill:#242424;" d="M224.201,474.014c-0.245,0-0.435,0.085-0.567,0.255
							c-0.133,0.17-0.199,0.421-0.199,0.754v2.392c-0.304-0.331-0.617-0.578-0.938-0.739c-0.32-0.159-0.714-0.24-1.181-0.24
							c-0.807,0-1.458,0.283-1.953,0.848c-0.495,0.566-0.742,1.356-0.742,2.369c0,0.478,0.062,0.923,0.187,1.335
							c0.124,0.412,0.307,0.77,0.549,1.074c0.242,0.305,0.527,0.539,0.858,0.704c0.33,0.164,0.689,0.246,1.077,0.246
							c0.293,0,0.563-0.04,0.81-0.122c0.247-0.081,0.477-0.2,0.688-0.356c0.212-0.156,0.426-0.359,0.644-0.608v0.161
							c0,0.297,0.072,0.525,0.217,0.686c0.145,0.16,0.328,0.24,0.549,0.24c0.226,0,0.41-0.078,0.552-0.231
							c0.143-0.154,0.214-0.386,0.214-0.694v-7.147c0-0.305-0.066-0.535-0.199-0.691
							C224.635,474.092,224.446,474.014,224.201,474.014z M223.135,480.856c-0.14,0.306-0.328,0.534-0.564,0.682
							c-0.235,0.149-0.495,0.223-0.781,0.223c-0.281,0-0.54-0.079-0.777-0.236c-0.238-0.156-0.425-0.388-0.562-0.697
							c-0.137-0.309-0.204-0.682-0.204-1.122c0-0.416,0.064-0.781,0.193-1.096c0.129-0.315,0.31-0.556,0.543-0.724
							c0.233-0.168,0.499-0.252,0.795-0.252c0.285,0,0.547,0.082,0.787,0.245c0.24,0.165,0.43,0.402,0.57,0.712
							c0.141,0.311,0.211,0.682,0.211,1.114C223.346,480.165,223.276,480.549,223.135,480.856z"/>
						<path id="XMLID_586_" style="fill:#242424;" d="M233.582,476.818c-0.406-0.255-0.878-0.382-1.416-0.382
							c-0.467,0-0.859,0.084-1.176,0.252c-0.317,0.168-0.627,0.411-0.932,0.727v-2.475c0-0.297-0.067-0.525-0.202-0.686
							c-0.135-0.16-0.326-0.24-0.576-0.24c-0.237,0-0.423,0.084-0.555,0.252c-0.132,0.168-0.198,0.416-0.198,0.745v7.077
							c0,0.305,0.068,0.535,0.205,0.692c0.136,0.156,0.32,0.234,0.549,0.234c0.226,0,0.412-0.078,0.558-0.234
							c0.146-0.157,0.22-0.388,0.22-0.692v-0.161c0.178,0.206,0.322,0.361,0.431,0.463c0.109,0.103,0.241,0.203,0.395,0.3
							c0.154,0.098,0.341,0.175,0.561,0.234c0.219,0.06,0.454,0.089,0.703,0.089c0.407,0,0.78-0.082,1.119-0.246
							c0.338-0.164,0.626-0.397,0.864-0.698c0.237-0.3,0.418-0.656,0.543-1.065c0.124-0.41,0.187-0.859,0.187-1.35
							c0-0.665-0.112-1.241-0.336-1.725C234.302,477.444,233.987,477.075,233.582,476.818z M232.792,481.23
							c-0.294,0.355-0.646,0.532-1.053,0.532c-0.479,0-0.866-0.174-1.161-0.521c-0.295-0.346-0.442-0.841-0.442-1.486
							c0-0.44,0.069-0.819,0.208-1.137c0.139-0.319,0.329-0.562,0.57-0.73c0.241-0.168,0.517-0.252,0.825-0.252
							c0.301,0,0.564,0.084,0.79,0.252c0.225,0.168,0.399,0.406,0.522,0.715c0.123,0.308,0.184,0.677,0.184,1.104
							C233.235,480.368,233.087,480.875,232.792,481.23z"/>
						<path id="XMLID_585_" style="fill:#242424;" d="M240.527,476.522c-0.113-0.066-0.23-0.098-0.353-0.098
							c-0.17,0-0.302,0.03-0.395,0.09c-0.093,0.059-0.181,0.173-0.264,0.344c-0.083,0.17-0.176,0.407-0.279,0.706l-1.3,3.71
							l-1.371-3.989c-0.091-0.277-0.195-0.489-0.314-0.638c-0.119-0.148-0.296-0.223-0.529-0.223c-0.135,0-0.264,0.035-0.389,0.107
							c-0.124,0.071-0.222,0.166-0.294,0.285c-0.071,0.118-0.107,0.247-0.107,0.385c0,0.131,0.062,0.341,0.184,0.629l1.995,5.022
							l-0.148,0.363c-0.111,0.265-0.209,0.466-0.294,0.602c-0.085,0.137-0.181,0.233-0.288,0.288
							c-0.107,0.056-0.254,0.084-0.44,0.084c-0.075,0-0.164-0.012-0.267-0.035c-0.083-0.024-0.168-0.037-0.256-0.037
							c-0.221,0-0.388,0.051-0.501,0.152c-0.113,0.101-0.169,0.245-0.169,0.43c0,0.273,0.118,0.461,0.356,0.565
							c0.237,0.103,0.593,0.154,1.068,0.154c0.487,0,0.874-0.074,1.161-0.223c0.287-0.148,0.517-0.361,0.691-0.638
							c0.174-0.277,0.352-0.659,0.535-1.145l2.113-5.533c0.051-0.142,0.094-0.283,0.13-0.421c0.036-0.139,0.061-0.246,0.077-0.321
							c0-0.123-0.031-0.239-0.092-0.35C240.727,476.675,240.64,476.587,240.527,476.522z"/>
					</g>
					<g id="XMLID_563_">
						<path id="XMLID_583_" style="fill:#242424;" d="M262.932,474.01c-0.534,0-0.954,0.068-1.26,0.204
							c-0.307,0.137-0.527,0.354-0.654,0.653c-0.129,0.3-0.192,0.702-0.192,1.211v0.487h-0.386c-0.543,0-0.815,0.192-0.815,0.582
							c0,0.174,0.066,0.317,0.196,0.424c0.132,0.111,0.316,0.164,0.559,0.164h0.446v4.294c0,0.319,0.075,0.563,0.228,0.73
							c0.154,0.17,0.344,0.254,0.574,0.254c0.243,0,0.438-0.084,0.589-0.254c0.156-0.167,0.231-0.411,0.231-0.73v-4.294h0.395
							c0.291,0,0.517-0.035,0.681-0.107c0.166-0.071,0.245-0.241,0.245-0.503c0-0.374-0.306-0.56-0.926-0.56h-0.395v-0.386
							c0-0.322,0.043-0.568,0.122-0.74c0.087-0.172,0.273-0.259,0.566-0.259c0.107,0,0.241,0.014,0.389,0.035
							c0.156,0.026,0.267,0.037,0.33,0.037c0.134,0,0.252-0.054,0.348-0.16c0.101-0.107,0.15-0.236,0.15-0.385
							C264.352,474.239,263.882,474.01,262.932,474.01z"/>
						<path id="XMLID_582_" style="fill:#242424;" d="M268.093,476.676c-0.32-0.171-0.648-0.255-0.991-0.255
							c-0.342,0-0.611,0.084-0.819,0.255c-0.203,0.171-0.4,0.421-0.593,0.755c-0.014-0.334-0.08-0.584-0.198-0.755
							c-0.119-0.171-0.313-0.255-0.583-0.255c-0.526,0-0.788,0.364-0.788,1.093v4.514c0,0.323,0.077,0.569,0.225,0.734
							c0.15,0.168,0.341,0.25,0.579,0.25c0.237,0,0.432-0.08,0.586-0.247c0.151-0.163,0.234-0.41,0.234-0.737v-1.355
							c0-0.487,0.014-0.9,0.045-1.238c0.034-0.337,0.09-0.631,0.17-0.878c0.083-0.243,0.201-0.426,0.353-0.554
							c0.15-0.122,0.345-0.186,0.582-0.186c0.172,0,0.374,0.037,0.602,0.108c0.226,0.073,0.371,0.112,0.433,0.112
							c0.158,0,0.304-0.064,0.441-0.195c0.135-0.126,0.204-0.292,0.204-0.488C268.575,477.074,268.415,476.847,268.093,476.676z"/>
						<path id="XMLID_579_" style="fill:#242424;" d="M274.18,479.934c0.233-0.122,0.351-0.386,0.351-0.791
							c0-0.441-0.113-0.871-0.339-1.296c-0.222-0.424-0.566-0.77-1.018-1.034c-0.453-0.27-0.997-0.403-1.629-0.403
							c-0.488,0-0.931,0.078-1.33,0.234c-0.402,0.156-0.736,0.38-1.008,0.674c-0.276,0.295-0.484,0.643-0.624,1.055
							c-0.144,0.41-0.217,0.855-0.217,1.334c0,1.016,0.292,1.823,0.87,2.418c0.577,0.593,1.385,0.889,2.429,0.889
							c0.453,0,0.858-0.06,1.207-0.179c0.349-0.117,0.64-0.268,0.874-0.446c0.233-0.181,0.405-0.368,0.522-0.566
							c0.112-0.195,0.167-0.365,0.167-0.512c0-0.167-0.048-0.294-0.152-0.386c-0.105-0.092-0.238-0.138-0.406-0.138
							c-0.153,0-0.271,0.038-0.355,0.109c-0.202,0.189-0.367,0.34-0.494,0.449c-0.128,0.113-0.264,0.217-0.415,0.313
							c-0.15,0.097-0.307,0.17-0.466,0.213c-0.16,0.049-0.337,0.069-0.531,0.069c-0.29,0-0.552-0.07-0.793-0.212
							c-0.24-0.144-0.431-0.357-0.578-0.635c-0.144-0.28-0.216-0.607-0.221-0.974h3.171
							C273.619,480.115,273.947,480.055,274.18,479.934z M270.024,479.194c0.054-0.546,0.213-0.957,0.472-1.236
							c0.259-0.281,0.591-0.418,0.995-0.418c0.426,0,0.764,0.136,1.025,0.413c0.26,0.273,0.407,0.688,0.446,1.241H270.024z"/>
						<path id="XMLID_576_" style="fill:#242424;" d="M279.919,476.813c-0.46-0.27-1.003-0.403-1.633-0.403
							c-0.487,0-0.932,0.078-1.331,0.234c-0.401,0.156-0.737,0.38-1.009,0.674c-0.273,0.295-0.481,0.643-0.622,1.055
							c-0.145,0.41-0.217,0.855-0.217,1.334c0,1.016,0.291,1.823,0.868,2.418c0.58,0.593,1.387,0.889,2.429,0.889
							c0.454,0,0.861-0.06,1.209-0.179c0.347-0.117,0.641-0.268,0.872-0.446c0.234-0.181,0.408-0.368,0.519-0.566
							c0.117-0.195,0.171-0.365,0.171-0.512c0-0.167-0.047-0.294-0.15-0.386c-0.104-0.092-0.239-0.138-0.406-0.138
							c-0.151,0-0.271,0.038-0.355,0.109c-0.203,0.189-0.368,0.34-0.493,0.449c-0.128,0.113-0.264,0.217-0.415,0.313
							c-0.153,0.097-0.307,0.17-0.469,0.213c-0.158,0.049-0.336,0.069-0.528,0.069c-0.291,0-0.555-0.07-0.795-0.212
							c-0.239-0.144-0.431-0.357-0.576-0.635c-0.143-0.28-0.218-0.607-0.222-0.974h3.171c0.422,0,0.75-0.06,0.984-0.181
							c0.231-0.122,0.351-0.386,0.351-0.791c0-0.441-0.116-0.871-0.341-1.296C280.71,477.423,280.369,477.077,279.919,476.813z
							 M276.767,479.194c0.053-0.546,0.211-0.957,0.469-1.236c0.261-0.281,0.592-0.418,0.996-0.418c0.426,0,0.764,0.136,1.027,0.413
							c0.257,0.273,0.407,0.688,0.447,1.241H276.767z"/>
						<path id="XMLID_573_" style="fill:#242424;" d="M286.934,476.818c-0.42-0.256-0.883-0.386-1.38-0.386
							c-0.415,0-0.79,0.089-1.114,0.267c-0.331,0.176-0.649,0.452-0.953,0.828v-0.194c0-0.297-0.071-0.519-0.218-0.678
							c-0.143-0.156-0.329-0.234-0.56-0.234c-0.233,0-0.419,0.078-0.553,0.228c-0.134,0.155-0.2,0.383-0.2,0.692v6.996
							c0,0.355,0.051,0.62,0.146,0.807c0.102,0.183,0.301,0.275,0.607,0.275c0.518,0,0.778-0.359,0.778-1.069v-2.433
							c0.287,0.358,0.587,0.633,0.901,0.816c0.313,0.187,0.704,0.279,1.166,0.279c0.385,0,0.741-0.076,1.08-0.227
							c0.334-0.153,0.622-0.372,0.868-0.654c0.245-0.283,0.441-0.632,0.58-1.05c0.14-0.419,0.21-0.878,0.21-1.376
							c0-0.677-0.123-1.261-0.366-1.758C287.682,477.453,287.353,477.077,286.934,476.818z M286.457,480.822
							c-0.137,0.313-0.32,0.546-0.552,0.704c-0.229,0.154-0.48,0.233-0.748,0.233c-0.454,0-0.828-0.178-1.133-0.537
							c-0.307-0.358-0.46-0.862-0.46-1.504c0-0.686,0.154-1.204,0.462-1.558c0.306-0.35,0.684-0.527,1.13-0.527
							c0.281,0,0.541,0.084,0.77,0.248c0.229,0.163,0.411,0.397,0.541,0.705c0.13,0.306,0.197,0.674,0.197,1.102
							C286.665,480.13,286.595,480.508,286.457,480.822z"/>
						<path id="XMLID_572_" style="fill:#242424;" d="M289.908,476.421c-0.238,0-0.428,0.079-0.58,0.245
							c-0.146,0.162-0.222,0.403-0.222,0.721v4.642c0,0.313,0.076,0.556,0.222,0.729c0.152,0.17,0.342,0.254,0.58,0.254
							c0.238,0,0.432-0.082,0.588-0.25c0.154-0.165,0.231-0.41,0.231-0.732v-4.689c0-0.286-0.077-0.513-0.231-0.675
							C290.34,476.5,290.146,476.421,289.908,476.421z"/>
						<path id="XMLID_571_" style="fill:#242424;" d="M289.925,474.081c-0.217,0-0.408,0.076-0.571,0.222
							c-0.166,0.15-0.248,0.339-0.248,0.569c0,0.253,0.08,0.446,0.242,0.585c0.159,0.138,0.35,0.209,0.577,0.209
							c0.22,0,0.408-0.071,0.566-0.21c0.157-0.14,0.236-0.335,0.236-0.585c0-0.258-0.082-0.455-0.244-0.591
							C290.322,474.147,290.137,474.081,289.925,474.081z"/>
						<path id="XMLID_570_" style="fill:#242424;" d="M297.267,481.451l-1.662-2.614l0.861-0.789
							c0.438-0.396,0.659-0.714,0.659-0.951c0-0.192-0.068-0.355-0.2-0.483c-0.139-0.128-0.306-0.193-0.51-0.193
							c-0.169,0-0.313,0.043-0.431,0.13c-0.121,0.086-0.29,0.251-0.517,0.487l-1.823,1.914v-3.933c0-0.33-0.074-0.582-0.221-0.751
							c-0.148-0.172-0.344-0.257-0.593-0.257c-0.255,0-0.456,0.092-0.596,0.283c-0.135,0.189-0.207,0.463-0.207,0.821v6.915
							c0,0.323,0.073,0.569,0.215,0.734c0.141,0.168,0.339,0.25,0.588,0.25c0.213,0,0.406-0.084,0.566-0.254
							c0.165-0.167,0.248-0.406,0.248-0.718v-1.291l0.88-0.83l1.428,2.354c0.181,0.278,0.33,0.472,0.436,0.58
							c0.106,0.109,0.261,0.16,0.458,0.16c0.226,0,0.413-0.073,0.554-0.221c0.141-0.151,0.213-0.352,0.213-0.61
							c0-0.089-0.029-0.189-0.081-0.289C297.479,481.791,297.388,481.647,297.267,481.451z"/>
						<path id="XMLID_569_" style="fill:#242424;" d="M299.459,481.225c-0.25,0-0.458,0.087-0.63,0.262
							c-0.17,0.173-0.256,0.381-0.256,0.622c0,0.287,0.09,0.51,0.268,0.665c0.179,0.159,0.389,0.238,0.634,0.238
							c0.237,0,0.444-0.079,0.624-0.241c0.174-0.158,0.264-0.38,0.264-0.662c0-0.243-0.089-0.454-0.264-0.626
							C299.919,481.312,299.708,481.225,299.459,481.225z"/>
						<path id="XMLID_568_" style="fill:#242424;" d="M306.846,480.298c-0.167,0-0.308,0.054-0.422,0.156
							c-0.113,0.104-0.219,0.245-0.318,0.427c-0.178,0.31-0.382,0.538-0.617,0.689c-0.231,0.15-0.51,0.225-0.835,0.225
							c-0.239,0-0.462-0.045-0.665-0.141c-0.201-0.093-0.372-0.229-0.516-0.409c-0.144-0.18-0.252-0.398-0.325-0.653
							c-0.075-0.255-0.114-0.537-0.114-0.842c0-0.646,0.147-1.161,0.44-1.534c0.293-0.375,0.682-0.561,1.158-0.561
							c0.333,0,0.607,0.074,0.821,0.226c0.219,0.148,0.424,0.375,0.622,0.674c0.109,0.158,0.209,0.269,0.299,0.339
							c0.09,0.068,0.201,0.104,0.338,0.104c0.202,0,0.377-0.068,0.524-0.203c0.144-0.135,0.214-0.3,0.214-0.492
							c0-0.192-0.063-0.397-0.192-0.617c-0.128-0.218-0.314-0.424-0.556-0.62c-0.245-0.192-0.54-0.352-0.891-0.474
							c-0.353-0.123-0.737-0.184-1.158-0.184c-0.674,0-1.259,0.138-1.746,0.419c-0.486,0.279-0.859,0.674-1.113,1.184
							c-0.259,0.511-0.387,1.098-0.387,1.765c0,0.981,0.281,1.765,0.841,2.35c0.562,0.582,1.345,0.876,2.349,0.876
							c0.469,0,0.894-0.065,1.269-0.192c0.377-0.126,0.688-0.295,0.934-0.502c0.248-0.208,0.434-0.425,0.554-0.656
							c0.121-0.229,0.182-0.446,0.182-0.646c0-0.169-0.066-0.331-0.198-0.481C307.209,480.375,307.044,480.298,306.846,480.298z"/>
						<path id="XMLID_565_" style="fill:#242424;" d="M313.659,477.334c-0.288-0.29-0.629-0.517-1.027-0.674
							c-0.4-0.16-0.847-0.239-1.337-0.239c-0.482,0-0.923,0.078-1.326,0.234c-0.398,0.158-0.737,0.38-1.019,0.669
							c-0.281,0.288-0.498,0.637-0.649,1.046c-0.147,0.408-0.224,0.857-0.224,1.349c0,0.485,0.076,0.93,0.219,1.332
							c0.152,0.402,0.369,0.75,0.657,1.048c0.284,0.292,0.627,0.521,1.016,0.676c0.392,0.159,0.835,0.239,1.326,0.239
							c0.493,0,0.937-0.08,1.337-0.234c0.394-0.157,0.735-0.382,1.02-0.675c0.286-0.291,0.502-0.642,0.656-1.049
							c0.146-0.409,0.222-0.856,0.222-1.337c0-0.489-0.075-0.932-0.221-1.339C314.161,477.977,313.945,477.631,313.659,477.334z
							 M312.466,481.251c-0.289,0.372-0.681,0.557-1.171,0.557c-0.323,0-0.604-0.086-0.845-0.253
							c-0.24-0.168-0.423-0.41-0.553-0.729c-0.129-0.316-0.193-0.684-0.193-1.108c0-0.428,0.066-0.803,0.197-1.124
							c0.13-0.322,0.314-0.564,0.556-0.728c0.242-0.164,0.522-0.246,0.839-0.246c0.49,0,0.882,0.182,1.171,0.555
							c0.29,0.367,0.436,0.881,0.436,1.543C312.903,480.369,312.756,480.881,312.466,481.251z"/>
						<path id="XMLID_564_" style="fill:#242424;" d="M323.583,476.694c-0.32-0.173-0.705-0.262-1.146-0.262
							c-0.381,0-0.726,0.081-1.039,0.241c-0.313,0.161-0.607,0.408-0.881,0.738c-0.192-0.326-0.431-0.572-0.725-0.735
							c-0.292-0.162-0.641-0.244-1.049-0.244c-0.394,0-0.748,0.079-1.07,0.241c-0.319,0.156-0.62,0.403-0.903,0.738v-0.153
							c0-0.261-0.074-0.466-0.221-0.615c-0.15-0.145-0.335-0.222-0.557-0.222c-0.227,0-0.413,0.078-0.556,0.239
							c-0.14,0.157-0.209,0.389-0.209,0.695v4.637c0,0.336,0.078,0.591,0.235,0.765c0.156,0.171,0.357,0.258,0.604,0.258
							c0.248,0,0.447-0.087,0.603-0.258c0.15-0.173,0.226-0.428,0.226-0.765v-2.189c0-0.684,0.087-1.207,0.254-1.567
							c0.169-0.369,0.516-0.551,1.048-0.551c0.264,0,0.459,0.073,0.582,0.22c0.122,0.142,0.198,0.331,0.227,0.552
							c0.027,0.226,0.04,0.544,0.04,0.953v2.582c0,0.342,0.078,0.594,0.233,0.767c0.148,0.17,0.349,0.255,0.594,0.255
							c0.254,0,0.455-0.085,0.611-0.255c0.156-0.173,0.231-0.425,0.231-0.767v-2.154c0-0.694,0.062-1.178,0.178-1.452
							c0.109-0.21,0.259-0.384,0.45-0.508c0.192-0.126,0.395-0.192,0.609-0.192c0.264,0,0.463,0.073,0.596,0.215
							c0.129,0.142,0.21,0.318,0.239,0.529c0.029,0.209,0.043,0.487,0.043,0.836v2.726c0,0.336,0.079,0.591,0.235,0.765
							c0.157,0.171,0.356,0.258,0.603,0.258c0.253,0,0.458-0.085,0.612-0.255c0.153-0.173,0.229-0.425,0.229-0.767v-3.164
							c0-0.629-0.068-1.09-0.206-1.385C324.141,477.119,323.902,476.868,323.583,476.694z"/>
					</g>
					<g id="XMLID_549_">
						<path id="XMLID_562_" style="fill:#242424;" d="M245.272,479.326c-0.001-0.003-0.001-0.006-0.001-0.011
							C245.271,479.319,245.271,479.322,245.272,479.326z"/>
						<path id="XMLID_561_" style="fill:#242424;" d="M245.354,479.844c0.001,0,0.001,0,0.001,0
							c-0.031-0.148-0.055-0.294-0.074-0.439C245.3,479.551,245.324,479.698,245.354,479.844z"/>
						<path id="XMLID_560_" style="fill:#242424;" d="M245.89,481.348c-0.004-0.006-0.007-0.013-0.011-0.021
							C245.883,481.334,245.886,481.341,245.89,481.348z"/>
						<path id="XMLID_559_" style="fill:#242424;" d="M245.839,481.248c-0.014-0.027-0.027-0.056-0.041-0.084
							C245.811,481.193,245.825,481.22,245.839,481.248z"/>
						<path id="XMLID_558_" style="fill:#242424;" d="M245.504,480.423c0.079,0.25,0.175,0.493,0.286,0.724
							c-0.113-0.236-0.206-0.479-0.283-0.724H245.504z"/>
						<path id="XMLID_557_" style="fill:#242424;" d="M250.736,472.562l-0.076-0.259c0.299-0.063,0.524-0.329,0.524-0.646
							c0-0.364-0.296-0.658-0.661-0.658c-0.364,0-0.66,0.295-0.66,0.658c0,0.317,0.224,0.583,0.523,0.646l0.084,0.289
							c-1.021,0.14-1.834,0.539-1.834,0.539l0.144,0.441c0.618-0.206,1.154-0.331,1.64-0.383c0.476-0.051,0.834-0.073,1.127-0.073
							c0.313,0,0.544,0.025,0.809,0.07l0.075-0.477C252.43,472.708,251.698,472.483,250.736,472.562z"/>
						<path id="XMLID_556_" style="fill:#242424;" d="M245.452,475.069c-0.017,0.024-0.497,0.465-0.876,1.28
							c-0.016-0.026-0.035-0.05-0.056-0.074c-0.114-0.124-0.272-0.187-0.474-0.184c-0.003,0-0.006,0-0.009,0
							c-0.125,0-0.21-0.042-0.267-0.092c0.056-0.071,0.089-0.16,0.089-0.258c0-0.23-0.187-0.418-0.418-0.418
							c-0.23,0-0.418,0.188-0.418,0.418c0,0.231,0.187,0.418,0.418,0.418c0.036,0,0.071-0.006,0.104-0.013
							c0.103,0.114,0.266,0.214,0.505,0.209c0.123-0.001,0.213,0.03,0.273,0.097c0.069,0.076,0.093,0.185,0.1,0.267
							c-0.001,0.001-0.001,0.003-0.002,0.003c-0.272,0.743-0.194,1.669-0.194,1.669l0.661,0.026
							c0.013-0.337,0.062-0.926,0.232-1.394c0.329-0.906,0.741-1.472,0.758-1.496l0.004-0.005c0.024-0.031,0.047-0.06,0.071-0.089
							l-0.196-0.141L245.452,475.069z"/>
						<path id="XMLID_555_" style="fill:#242424;" d="M257.295,473.668c-0.23,0-0.418,0.187-0.418,0.418
							c0,0.036,0.006,0.07,0.015,0.103c-0.115,0.104-0.214,0.267-0.211,0.507c0.002,0.123-0.03,0.212-0.096,0.273
							c-0.053,0.047-0.12,0.072-0.185,0.088c-0.492-0.689-1.097-1.109-1.097-1.109l-0.474,0.508c0.358,0.326,0.725,0.734,1.08,1.244
							c0.246,0.352,0.499,0.806,0.71,1.259l0.64-0.304c0,0-0.292-0.722-0.704-1.37c0.071-0.025,0.143-0.064,0.207-0.12
							c0.125-0.113,0.187-0.273,0.183-0.473c-0.001-0.13,0.042-0.218,0.093-0.276c0.071,0.054,0.16,0.089,0.258,0.089
							c0.232,0,0.419-0.187,0.419-0.418C257.714,473.854,257.527,473.668,257.295,473.668z"/>
						<path id="XMLID_554_" style="fill:#242424;" d="M255.634,479.419c-0.881,0.429-2.33,0.996-4.238,1.262
							c-0.749,0.104-1.475,0.142-2.143,0.142c-0.869,0-1.637-0.065-2.227-0.139c-0.673-0.085-1.198-0.189-1.52-0.261
							c0.077,0.245,0.171,0.488,0.283,0.724c0.002,0.006,0.005,0.013,0.008,0.017c0.013,0.027,0.027,0.056,0.041,0.084
							c0.013,0.027,0.027,0.054,0.041,0.079c0.004,0.007,0.007,0.015,0.011,0.021c0.189,0.357,0.417,0.684,0.675,0.968
							c0.9,0.984,1.817,1.14,1.826,1.141l0.014,0.002l0.013,0.005c0.008,0.003,0.821,0.265,2.057,0.265
							c1.216,0,2.409-0.245,3.546-0.729c0.842-0.431,1.639-1.085,2.034-1.669c0.305-0.452,0.526-0.933,0.656-1.434
							c0.07-0.266,0.124-0.692,0.092-1.141C256.556,478.923,256.164,479.161,255.634,479.419z"/>
						<path id="XMLID_550_" style="fill:#242424;" d="M252.322,473.536c-0.265-0.043-0.477-0.068-0.777-0.068
							c-0.28,0-0.626,0.022-1.09,0.071c-0.464,0.048-0.982,0.17-1.583,0.372c-0.842,0.282-1.605,0.724-2.204,1.28l-0.02,0.019
							c-0.089,0.082-0.274,0.254-0.488,0.526c-0.026,0.037-0.408,0.578-0.71,1.408c-0.226,0.622-0.216,1.527-0.216,1.538v0.002
							c0,0.212,0.012,0.423,0.035,0.632c0,0.005,0,0.008,0.001,0.011c0.002,0.027,0.007,0.053,0.009,0.079
							c0.019,0.145,0.043,0.291,0.074,0.439c0.438,0.111,3.049,0.72,5.968,0.314c1.829-0.255,3.218-0.795,4.062-1.204
							c0.701-0.34,1.151-0.648,1.325-0.774c-0.173-0.643-0.651-1.65-1.089-2.279C254.368,474.109,253.016,473.65,252.322,473.536z
							 M248.678,478.795c-0.972,0-1.76-0.787-1.76-1.759c0-0.972,0.788-1.761,1.76-1.761c0.973,0,1.761,0.789,1.761,1.761
							C250.439,478.008,249.651,478.795,248.678,478.795z M253.829,477.498c-0.601,0-1.089-0.489-1.089-1.09
							c0-0.601,0.488-1.09,1.089-1.09c0.601,0,1.09,0.488,1.09,1.09C254.919,477.009,254.43,477.498,253.829,477.498z"/>
					</g>
				</g>
			</g>
		</g>
	</g>
</g>
</svg>
