<?xml version="1.0" encoding="utf-8"?>
<!-- Generator: Adobe Illustrator 27.5.0, SVG Export Plug-In . SVG Version: 6.00 Build 0)  -->
<svg version="1.1" xmlns="http://www.w3.org/2000/svg" xmlns:xlink="http://www.w3.org/1999/xlink" x="0px" y="0px"
	 viewBox="0 0 3710 3710" style="enable-background:new 0 0 3710 3710;" xml:space="preserve">
<g id="Background">
	<g>
		<g>
			<rect style="fill:#FFFFFF;" width="3710" height="3710"/>
		</g>
	</g>
</g>
<g id="Illustration">
	<g>
		<linearGradient id="SVGID_1_" gradientUnits="userSpaceOnUse" x1="3607.5" y1="4083.8684" x2="1116.5743" y2="990.2947">
			<stop  offset="0" style="stop-color:#DAE3FE"/>
			<stop  offset="1" style="stop-color:#E9EFFD"/>
		</linearGradient>
		<path style="fill:url(#SVGID_1_);" d="M2925.041,2861.929c-57.37,60.128-111.652,98.904-154.54,129.54
			c-504.136,360.116-1100.662,255.144-1227.441,229.509c-187.212-37.855-549.089-111.028-810.72-417.334
			c-395.825-463.416-334.19-1193.514-27.161-1675.462c56.16-88.156,352.816-577.445,955.767-655.912
			c364.9-47.487,790.255,48.289,1098.286,305.211C3405.817,1316.785,3359.787,2406.274,2925.041,2861.929z"/>
		<g>
			<path style="fill:#7D97F4;" d="M3145.223,474.645c4.914-13.906-12.771-25.332-25.551-16.593
				c-129.78,88.739-449.01,361.705-444.302,897.367c5.907,672.067-174.696,898.252-380.464,1026.256
				c0,0,266.068-42.551,458.485-271.109C3225.819,1549.402,3057.85,721.891,3145.223,474.645z"/>
			<path style="fill:#FFFFFF;" d="M3030.315,672.391c-23.819,72.267-46.072,144.926-65.394,218.227
				c-19.739,73.195-37.05,146.906-51.829,221.005c-14.468,74.145-27.416,148.527-36.9,223.303
				c-9.849,74.734-16.186,149.771-22.261,225.13c-6.531,75.285-12.643,151.16-27.246,226.694
				c-14.498,75.387-39.043,150.398-77.811,219.074c-9.684,17.113-19.747,34.131-30.802,50.437
				c-10.731,16.5-22.261,32.569-34.101,48.441c-23.857,31.645-50.045,61.892-78.562,90.219
				c-57.2,56.531-123.746,105.031-195.322,144.489c-7.533,4.153-17.312,1.92-21.843-4.987c-4.448-6.782-2.179-15.55,5.037-19.796
				l0.051-0.03c17.113-10.049,34.079-20.265,50.49-31.139c8.302-5.318,16.329-10.962,24.469-16.466
				c7.902-5.779,16.052-11.279,23.751-17.276c31.23-23.504,60.623-48.991,87.813-76.343
				c54.616-54.401,100.647-116.566,137.808-182.113c18.182-32.976,33.683-67.123,46.263-102.245
				c12.552-35.135,22.18-71.208,29.57-107.812c14.792-73.249,21.519-148.304,28.639-223.541
				c7.229-75.245,15.056-150.813,26.263-225.969c5.492-37.586,11.721-75.078,18.678-112.449
				c3.361-18.703,7.117-37.343,10.835-55.986c3.914-18.61,7.939-37.199,12.129-55.753c16.909-74.192,36.28-147.874,58.161-220.893
				c22.263-72.922,46.63-145.278,73.996-216.651c0.783-2.041,3.22-3.112,5.444-2.395
				C3029.804,668.262,3030.967,670.4,3030.315,672.391z"/>
		</g>
		<g>
			<g>
				
					<linearGradient id="SVGID_00000025409788046350245500000018187912099693372596_" gradientUnits="userSpaceOnUse" x1="2647.0332" y1="1835.0598" x2="3256.4158" y2="1835.0598">
					<stop  offset="0" style="stop-color:#4F52FF"/>
					<stop  offset="1" style="stop-color:#4042E2"/>
				</linearGradient>
				<path style="fill:url(#SVGID_00000025409788046350245500000018187912099693372596_);" d="M2726.111,2667.199
					c8.011,25.714,39.68,34.891,60.423,17.712c114.457-94.786,413.832-392.044,409.091-905.044
					c-4.004-433.205,34.992-668.487,60.097-774.07c5.308-22.327-20.971-38.453-38.501-23.643
					C3023.811,1145.55,2435.841,1735.432,2726.111,2667.199z"/>
				<path style="fill:#FFFFFF;" d="M2762.531,2669.07c0.539,0.394,1.122,0.74,1.75,1.034c5.257,2.466,11.519,0.202,13.985-5.055
					c2.795-5.961,279.74-602.961,301.383-1205.555c0.206-5.799-4.327-10.673-10.133-10.887c-5.804-0.207-10.677,4.328-10.888,10.133
					c-21.484,598.208-296.627,1191.46-299.403,1197.381C2757.052,2660.751,2758.549,2666.16,2762.531,2669.07z"/>
			</g>
		</g>
		<g>
			<g>
				<polygon style="fill:#BDD0FB;" points="2142.791,814.671 1309.793,713.189 475.431,808.848 460.036,3034.412 1294.056,2988.284 
					2127.271,3058.323 2960.515,2974.049 2975.748,771.891 				"/>
				
					<linearGradient id="SVGID_00000124876598377678493120000013838409072947737475_" gradientUnits="userSpaceOnUse" x1="1015.8689" y1="1739.1652" x2="58.539" y2="3908.7893" gradientTransform="matrix(1 0.0086 -0.0086 1 9.6135 -36.89)">
					<stop  offset="0" style="stop-color:#53D8FF"/>
					<stop  offset="1" style="stop-color:#3840F7"/>
				</linearGradient>
				<polygon style="fill:url(#SVGID_00000124876598377678493120000013838409072947737475_);" points="1312.301,2937.739 
					519.872,2981.484 534.476,870.226 1327.23,779.493 				"/>
				<polygon style="fill:#7D97F4;" points="1312.301,2937.739 519.872,2981.484 534.476,870.226 1327.23,779.493 				"/>
				<polygon style="fill:#7D97F4;" points="2103.967,3004.194 1312.301,2937.739 1327.23,779.493 2118.689,875.777 				"/>
				<polygon style="fill:#7D97F4;" points="2895.658,2924.262 2103.967,3004.194 2118.689,875.777 2910.108,835.207 				"/>
				<polygon style="opacity:0.47;fill:#FFFFFF;" points="1294.362,2938.138 1312.297,2938.331 1327.23,779.493 1309.296,779.3 				
					"/>
			</g>
			<g>
				<defs>
					<polygon id="SVGID_00000016047040735625300780000016866028207917597112_" points="2117.448,872.924 1325.989,776.641 
						533.235,867.373 518.631,2978.631 1311.059,2934.887 2102.725,3001.341 2894.416,2921.409 2908.867,832.354 					"/>
				</defs>
				<clipPath id="SVGID_00000036247029269344162720000016493807341956403642_">
					<use xlink:href="#SVGID_00000016047040735625300780000016866028207917597112_"  style="overflow:visible;"/>
				</clipPath>
				<g style="clip-path:url(#SVGID_00000036247029269344162720000016493807341956403642_);">
					<polygon style="fill:#91B3FA;" points="2347.864,899.556 2552.051,1070.033 2411.111,1209.071 2247.285,1042.94 					"/>
					<polygon style="fill:#91B3FA;" points="996.074,1208.495 1014.49,1022.828 1312.789,1118.968 1311.158,1354.757 					"/>
					<polygon style="fill:#91B3FA;" points="2702.903,2390.072 2869.304,2303.19 2890.499,2483.288 2745.243,2531.588 					"/>
					<polygon style="fill:#91B3FA;" points="1139.762,2516.404 1305.601,2609.891 1471.755,2582.3 1457.599,2460.611 
						1306.903,2421.595 					"/>
					<polygon style="fill:#BDD0FB;" points="1017.874,1548.002 591.133,1398.548 598.344,1366.544 1025.085,1515.997 					"/>
					<polygon style="fill:#BDD0FB;" points="632.271,2410.2 605.671,2385.165 899.195,1900.432 1229.338,1874.772 
						1273.329,1517.198 973.351,1265.861 535.458,1425.854 526.084,1385.981 978.971,1220.51 1309.48,1497.422 1258.211,1914.161 
						916.562,1940.715 					"/>
					<polygon style="fill:#BDD0FB;" points="828.045,2656.614 485.663,2288.38 507.433,2256.917 849.815,2625.152 					"/>
					<polygon style="fill:#BDD0FB;" points="1509.777,2258.164 1500.257,2218.343 2055.711,2011.926 2065.233,2051.747 					"/>
					<polygon style="fill:#BDD0FB;" points="2123.008,2322.883 1921.553,1688.792 1952.541,1673.49 2153.993,2307.581 					"/>
					<polygon style="fill:#BDD0FB;" points="2420.884,2481.634 2396.545,2453.251 2594.53,2189.369 2618.869,2217.752 					"/>
					<polygon style="fill:#BDD0FB;" points="2473.828,2349.803 2274.942,1852.612 2298.802,1837.777 2497.688,2334.969 					"/>
					<path style="fill:#BDD0FB;" d="M2479.81,1348.377l-19.108-34.044c-0.848,0.74-1.373,1.361-1.409,1.405
						c10.678-12.803,155.781-227.914,250.715-369.389l11.846-17.654l211.831,271.376l-23.886,28.98l-186.081-238.39
						c-20.851,31.044-66.199,98.508-111.618,165.769C2486.313,1342.703,2482.859,1345.717,2479.81,1348.377z"/>
					<path style="fill:#BDD0FB;" d="M2046.454,1563.948l-67.619-286.509l-83.256-261.4l-380.921,23.056l-1.768-41.499l388.73-23.53
						c10.192-0.617,19.501,5.767,22.597,15.497l87.737,275.694l67.829,287.4L2046.454,1563.948z"/>
					<polygon style="fill:#BDD0FB;" points="997.014,1224.167 970.448,1221.345 985.888,995.242 1318.849,1084.778 
						1313.227,1117.271 1009.885,1035.702 					"/>
					<polygon style="fill:#BDD0FB;" points="2406.764,1233.284 2390.307,1207.132 2529.994,1070.484 2338.964,895.916 
						2354.727,869.105 2574.107,1069.583 					"/>
					<polygon style="fill:#BDD0FB;" points="2762.036,2544.133 2755.166,2512.014 2872.236,2473.087 2855.26,2328.835 
						2704.708,2407.445 2694.406,2376.782 2876.652,2281.628 2902.066,2497.573 					"/>
					<polygon style="fill:#BDD0FB;" points="2903.666,2535.274 2689.305,1555.572 2721.458,1544.637 2935.818,2524.339 					"/>
					<polygon style="fill:#BDD0FB;" points="1993.484,3031.303 1969.201,3002.844 2377.712,2461.051 2415.759,2483.885 					"/>
					<path style="fill:#BDD0FB;" d="M1309.329,2895.691l-488.723-248.51l12.587-38.476l464.556,236.223l134.299-229.938
						l-119.522,34.232l-202.359-120.034l14.319-37.52l191.884,113.818l142.48-40.807c19.036-5.452,34.998,15.091,25.011,32.189
						L1309.329,2895.691z"/>
					<polygon style="fill:#BDD0FB;" points="2044.985,2958.382 1684.738,2533.575 1684.115,2532.579 1494.631,2229.048 
						1515.672,2208.632 1704.533,2511.163 2063.308,2934.231 					"/>
				</g>
				<g style="clip-path:url(#SVGID_00000036247029269344162720000016493807341956403642_);">
					<path style="fill:#BDD0FB;" d="M1420.906,1539.455l-115.356-161.844c-260.214-117.517-556.673-239.303-787.182-255.408
						l1.679-37.339c235.448,16.452,536.177,140.262,799.3,259.204l3.574,1.615l120.406,168.931L1420.906,1539.455z"/>
					<path style="fill:#BDD0FB;" d="M2876.887,2834.622c-252.906-197.324-539.009-414.61-738.242-499.586l-651.557,291.901
						l-10.144-35.194l661.389-296.305l4.941,2.068c202.524,84.764,493.08,305.329,749.528,505.417L2876.887,2834.622z"/>
					<polygon style="fill:#BDD0FB;" points="1622.473,1519.806 1423.294,791.891 1451.217,776.216 1651.687,1496.21 					"/>
					<path style="fill:#BDD0FB;" d="M2520.871,1587.547c-49.854-250.009-148.032-422.874-300.146-528.479l14.593-32.672
						c83.927,58.267,153.309,137.258,206.214,234.776c48.056,88.578,83.529,192.385,108.448,317.351L2520.871,1587.547z"/>
					<polygon style="fill:#BDD0FB;" points="956.76,2596.158 931.869,2574.968 1230.438,2012.613 1255.329,2033.803 					"/>
					<polygon style="fill:#BDD0FB;" points="2603.478,1609.681 1738.137,1557.353 1720.229,1516.435 2598.404,1571.932 
						2914.67,1414.247 2925.809,1448.969 					"/>
					<polygon style="fill:#BDD0FB;" points="526.475,2807.272 515.922,2772.264 1304.967,2402.526 1459.34,2423.325 
						1456.117,2460.506 1308.839,2440.663 					"/>
					<path style="fill:#BDD0FB;" d="M1545.205,2059.001c-337.618-8.088-653.912-32.88-813.854-244.572l21.835-25.643
						c151.954,201.123,461.622,224.896,792.594,232.827L1545.205,2059.001z"/>
					<polygon style="fill:#BDD0FB;" points="1509.456,2943.547 1442.503,2418.613 1443.608,2414.352 1652.492,1608.515 
						1744.943,1417.176 2107.219,1178.085 2350.039,850.658 2372.065,876.046 2125.771,1208.155 1766.338,1445.369 
						1679.971,1624.117 1473.255,2421.59 1539.08,2937.673 					"/>
					<polygon style="fill:#BDD0FB;" points="2911.078,2918.451 2496.317,1963.393 1719.868,1599.269 1581.514,1556.553 
						1078.674,1503.722 519.567,2005.336 502.046,1974.981 1070.149,1465.3 1075.67,1465.878 1586.41,1519.539 1728.781,1563.495 
						1729.604,1563.879 2517.363,1933.307 2520.028,1939.447 2937.455,2900.645 					"/>
				</g>
				<polygon style="clip-path:url(#SVGID_00000036247029269344162720000016493807341956403642_);fill:#BDD0FB;" points="
					1313.227,1117.271 1514.658,1039.095 1512.89,997.596 1307.204,1081.647 				"/>
			</g>
			
				<ellipse transform="matrix(0.088 -0.9961 0.9961 0.088 -23.8003 3077.136)" style="fill:#91B3FA;" cx="1668.587" cy="1551.566" rx="71.32" ry="73.064"/>
			<polygon style="opacity:0.2;fill:#FFFFFF;" points="1289.859,2935.916 497.431,2979.66 512.035,868.402 1304.788,777.67 			"/>
			<polygon style="opacity:0.2;fill:#FFFFFF;" points="2900.714,2929.318 2109.023,3009.25 2123.746,880.833 2915.164,840.263 			
				"/>
		</g>
		<g>
			<g>
				
					<linearGradient id="SVGID_00000182503373819882030250000007244342777668782472_" gradientUnits="userSpaceOnUse" x1="949.1351" y1="1753.2332" x2="1589.6074" y2="1577.9464">
					<stop  offset="0" style="stop-color:#FEBBBA"/>
					<stop  offset="1" style="stop-color:#FF928E"/>
				</linearGradient>
				<path style="fill:url(#SVGID_00000182503373819882030250000007244342777668782472_);" d="M1630.207,1633.875l-49.394,26.581
					c-59.239,36.067-112.248,55.125-159.951,62.282c-148.948,22.349-246.028-71.633-318.368-128.643
					c-95.509-75.269-169.832-38.651-169.832-38.651l101.855,194.392c152.107,143.415,308.063,111.567,406.382,65.093
					c62.588-29.583,101.827-65.093,101.827-65.093C1654.622,1683.114,1630.207,1633.875,1630.207,1633.875z"/>
				
					<linearGradient id="SVGID_00000170250518887552849030000013258189771094719659_" gradientUnits="userSpaceOnUse" x1="978.5179" y1="1860.5939" x2="1618.9902" y2="1685.3073">
					<stop  offset="0" style="stop-color:#FEBBBA"/>
					<stop  offset="1" style="stop-color:#FF928E"/>
				</linearGradient>
				<path style="fill:url(#SVGID_00000170250518887552849030000013258189771094719659_);" d="M1775.72,1703.48
					c-3.189-10.6-11.026-19.176-21.298-23.307l-100.244-40.312c0,0-1.513-12.857,21.18-21.593
					c22.695-8.736,17.389-34.153,17.389-34.153s-31.003,14.143-76.393,36.575c-25.957,12.828-40.521,35.478-48.245,52.527
					l25.805,33.937c61.783,18.56,124.301,22.109,187.351,14.747L1775.72,1703.48z"/>
			</g>
			
				<linearGradient id="SVGID_00000026132060483997392570000014015693341340767423_" gradientUnits="userSpaceOnUse" x1="1635.8969" y1="-1479.627" x2="2128.0493" y2="-2861.6982" gradientTransform="matrix(-1 0 0 1 990.5665 0)">
				<stop  offset="0" style="stop-color:#020039"/>
				<stop  offset="1" style="stop-color:#090056"/>
			</linearGradient>
			<path style="fill:url(#SVGID_00000026132060483997392570000014015693341340767423_);" d="M910.771,3120.264
				c0,0-7.63,43.198-11.372,85.959c-1.462,16.713,11.422,31.224,28.184,31.922c56.945,2.372,178.756,6.983,222.466,5.033
				c6.571-0.293,10.867-7.02,8.435-13.132l0,0c-2.037-5.12-5.968-9.261-10.975-11.562L946.3,3126.01L910.771,3120.264z"/>
			
				<linearGradient id="SVGID_00000065791151183373556740000007306434692724400008_" gradientUnits="userSpaceOnUse" x1="3930.3296" y1="3120.0862" x2="3995.7764" y2="3120.0862" gradientTransform="matrix(1 0 0 1 -3025.8091 0)">
				<stop  offset="0" style="stop-color:#FEBBBA"/>
				<stop  offset="1" style="stop-color:#FF928E"/>
			</linearGradient>
			<path style="fill:url(#SVGID_00000065791151183373556740000007306434692724400008_);" d="M904.52,3094.882l6.131,51.672
				c0,0,35.246,16.408,59.316-2.068l-14.597-57.582L904.52,3094.882z"/>
			
				<linearGradient id="SVGID_00000121966006763235201800000008285428396703040647_" gradientUnits="userSpaceOnUse" x1="3629.7458" y1="1380.6641" x2="3956.2869" y2="2799.9846" gradientTransform="matrix(1 0 0 1 -3025.8091 0)">
				<stop  offset="0" style="stop-color:#09005D"/>
				<stop  offset="1" style="stop-color:#1A0F91"/>
			</linearGradient>
			<path style="fill:url(#SVGID_00000121966006763235201800000008285428396703040647_);" d="M894.68,2089.384
				c-2.648,13.99,4.751,732.82,75.287,1039.416c1.15,5.004,8.445,14.823,5.928,19.128c-6.121,10.469-51.193,7.53-76.61,8.416
				c-7.871,0.275-12.098-8.964-14.32-16.798c-20.162-71.135-116.776-427.543-129.38-768.009c-14.082-380.437,0-12.954,0-12.954
				l-6.259-241.022L894.68,2089.384z"/>
			
				<linearGradient id="SVGID_00000086685215954409350110000011365890424548073125_" gradientUnits="userSpaceOnUse" x1="1921.2206" y1="-1378.0128" x2="2413.3721" y2="-2760.0818" gradientTransform="matrix(-1 0 0 1 990.5665 0)">
				<stop  offset="0" style="stop-color:#020039"/>
				<stop  offset="1" style="stop-color:#090056"/>
			</linearGradient>
			<path style="fill:url(#SVGID_00000086685215954409350110000011365890424548073125_);" d="M679.315,3142.8
				c0,0-12.147,21.809-23.905,79.758c-2.124,10.465,5.188,20.482,15.816,21.527c18.803,1.848,47.75,4.226,70.939,4.066
				c10.689-0.073,19.032-9.381,17.743-19.994c-2.568-21.151-10.57-55.855-35.289-82.903L679.315,3142.8z"/>
			
				<linearGradient id="SVGID_00000137848266460660461680000011912329445511079346_" gradientUnits="userSpaceOnUse" x1="3694.4561" y1="3116.73" x2="3750.9644" y2="3116.73" gradientTransform="matrix(1 0 0 1 -3025.8091 0)">
				<stop  offset="0" style="stop-color:#FEBBBA"/>
				<stop  offset="1" style="stop-color:#FF928E"/>
			</linearGradient>
			<path style="fill:url(#SVGID_00000137848266460660461680000011912329445511079346_);" d="M668.647,3076.34l14.325,78.14
				c0,0,14.163,10.535,42.183,2.899l-6.838-84.074L668.647,3076.34z"/>
			
				<linearGradient id="SVGID_00000137127960677417561100000016992712212276329856_" gradientUnits="userSpaceOnUse" x1="3521.1565" y1="1380.3657" x2="3851.9026" y2="2817.9636" gradientTransform="matrix(1 0 0 1 -3025.8091 0)">
				<stop  offset="0" style="stop-color:#09005D"/>
				<stop  offset="1" style="stop-color:#1A0F91"/>
			</linearGradient>
			<path style="fill:url(#SVGID_00000137127960677417561100000016992712212276329856_);" d="M634.214,2117.419
				c-57.687,363.403,8.247,926.057,31.924,1030.726c1.45,6.408,6.405,11.317,12.627,12.394c10.569,1.829,27.968,3.321,45.122-1.878
				c5.91-1.792,10.062-7.357,10.303-13.776c3.177-84.621-2.541-604.115,51.212-809.422c2.724-10.404,8.812-19.478,17.234-25.727
				l88.458-72.093l1.645-155.447L634.214,2117.419z"/>
			
				<linearGradient id="SVGID_00000046322956190736193580000015210544434082043533_" gradientUnits="userSpaceOnUse" x1="940.7029" y1="1578.276" x2="778.8992" y2="2114.25">
				<stop  offset="0" style="stop-color:#E1473D"/>
				<stop  offset="1" style="stop-color:#E9605A"/>
			</linearGradient>
			<path style="fill:url(#SVGID_00000046322956190736193580000015210544434082043533_);" d="M964.753,1534.411
				c-152.042-2.512-319.802,39.922-319.802,39.922c-37.358,217.981-22.357,459.561-14.582,539.116
				c1.594,16.309-7.13,33.575,9.047,36.189c79.553,12.852,204.596-0.226,243.452-11.515c14.2-4.125,11.786-19.245,14.805-33.721
				c26.086-125.121,100.683-401.084,100.683-401.084c36.163,46.518,87.186,111.61,162.617,128.938
				c-38.441-44.559,35.292-138.004,27.421-171.519C1120.198,1584.115,1011.647,1535.187,964.753,1534.411z"/>
			
				<linearGradient id="SVGID_00000049187889121101864820000004817839434712482952_" gradientUnits="userSpaceOnUse" x1="3787.8967" y1="1490.3271" x2="3935.0247" y2="1490.3271" gradientTransform="matrix(1 0 0 1 -3025.8091 0)">
				<stop  offset="0" style="stop-color:#FEBBBA"/>
				<stop  offset="1" style="stop-color:#FF928E"/>
			</linearGradient>
			<path style="fill:url(#SVGID_00000049187889121101864820000004817839434712482952_);" d="M810.747,1410.978l-48.377,139.904
				c-0.802,2.318,0.151,4.884,2.297,6.071c13.187,7.291,60.698,28.366,117.953-7.934c5.964-3.782,10.024-9.948,10.93-16.952
				l15.666-121.088H810.747z"/>
			<g>
				
					<linearGradient id="SVGID_00000178172663604679929780000017756415978334385040_" gradientUnits="userSpaceOnUse" x1="-2327.6682" y1="871.1865" x2="-2382.6487" y2="689.8484" gradientTransform="matrix(0.746 -0.6659 0.6659 0.746 2100.5264 -803.1727)">
					<stop  offset="0" style="stop-color:#FEBBBA"/>
					<stop  offset="1" style="stop-color:#FF928E"/>
				</linearGradient>
				<path style="fill:url(#SVGID_00000178172663604679929780000017756415978334385040_);" d="M916.008,1281.423
					c0,0,53.124,99.999,46.315,140.393c-6.81,40.395-72.648,37.494-130.139,4.687l-40.175-107.977L916.008,1281.423z"/>
				
					<linearGradient id="SVGID_00000078042895663449439970000018071228351413218692_" gradientUnits="userSpaceOnUse" x1="-2390.1494" y1="599.2305" x2="-2351.4902" y2="819.7319" gradientTransform="matrix(0.746 -0.6659 0.6659 0.746 2100.5264 -803.1727)">
					<stop  offset="0" style="stop-color:#09005D"/>
					<stop  offset="1" style="stop-color:#1A0F91"/>
				</linearGradient>
				<path style="fill:url(#SVGID_00000078042895663449439970000018071228351413218692_);" d="M834.724,1373.477
					c2.337-1.036,3.199-3.894,1.799-6.033c-4.256-6.501-12.234-19.766-14.78-31.379c0,0-9.549-6.117,24.308-14.22
					c18.434-4.413,51.117-8.063,65.48-21.317c16.074-14.832-13.562-42.854-26.022-50.378c-16.444-9.929-36.466-15.802-55.012-10.799
					c-8.95,2.414-17.048,7.198-25.02,11.928c-13.577,8.055-27.632,16.557-36.266,29.774c-5.589,8.557-8.518,18.539-11.2,28.401
					c-3.854,14.169-7.38,28.681-6.711,43.349c1.782,39.079,47.581,74.091,84.414,78.369c3.012,0.35,5.347-2.625,4.36-5.493
					l-15.055-43.763c-0.699-2.033,0.273-4.262,2.238-5.133L834.724,1373.477z"/>
				
					<linearGradient id="SVGID_00000101062027551872904970000017772735417911137681_" gradientUnits="userSpaceOnUse" x1="-2383.8716" y1="870.3419" x2="-2433.3379" y2="707.1898" gradientTransform="matrix(0.746 -0.6659 0.6659 0.746 2100.5264 -803.1727)">
					<stop  offset="0" style="stop-color:#FEBBBA"/>
					<stop  offset="1" style="stop-color:#FF928E"/>
				</linearGradient>
				<path style="fill:url(#SVGID_00000101062027551872904970000017772735417911137681_);" d="M840.776,1379.688
					c0,0-37.824-25.951-40.587-4.096c-2.764,21.854,34.061,31.654,52.3,23.507L840.776,1379.688z"/>
				<path style="fill:#FFFFFF;" d="M834.425,1374.909c56.1-9.947,101.059-27.453,103.844-48.54
					c39.787,69.23,48.54,134.879-36.604,124.534c-29.429-7.566-49.66-25.883-68.699-45.888L834.425,1374.909z"/>
			</g>
			<g>
				
					<linearGradient id="SVGID_00000178166209104363565120000007600174984396599950_" gradientUnits="userSpaceOnUse" x1="3370.7847" y1="1009.6326" x2="3414.606" y2="480.4014" gradientTransform="matrix(-1 0 0 1 4178.9736 0)">
					<stop  offset="0" style="stop-color:#E1473D"/>
					<stop  offset="1" style="stop-color:#E9605A"/>
				</linearGradient>
				<path style="fill:url(#SVGID_00000178166209104363565120000007600174984396599950_);" d="M935.361,1256.894
					c-77.609-146.594-278.758-13.419-185.144,110.072C819.819,1320.687,898.468,1251.891,935.361,1256.894z"/>
			</g>
			
				<linearGradient id="SVGID_00000031914064041607546540000004494395342271959732_" gradientUnits="userSpaceOnUse" x1="1676.4005" y1="1520.7549" x2="1720.2218" y2="991.5236" gradientTransform="matrix(1 0 0 1 -780.6556 0)">
				<stop  offset="0" style="stop-color:#E1473D"/>
				<stop  offset="1" style="stop-color:#E9605A"/>
			</linearGradient>
			<path style="fill:url(#SVGID_00000031914064041607546540000004494395342271959732_);" d="M814.141,1318.993l139.36-4.31
				c3.539-0.109,6.772-2.068,8.487-5.166c12.485-22.544,30.752-36.906,53.594-44.795c2.89-0.998,2.291-5.259-0.759-5.467
				l-85.439-5.811c-0.095-0.006-0.191-0.006-0.285,0.001c-42.58,3.273-80.275,28.892-116.233,62.455
				C811.667,1317.02,812.501,1319.043,814.141,1318.993z"/>
			
				<linearGradient id="SVGID_00000118384690258534363890000011597596843135626380_" gradientUnits="userSpaceOnUse" x1="667.0416" y1="1495.6615" x2="505.2378" y2="2031.6357">
				<stop  offset="0" style="stop-color:#E1473D"/>
				<stop  offset="1" style="stop-color:#E9605A"/>
			</linearGradient>
			<path style="fill:url(#SVGID_00000118384690258534363890000011597596843135626380_);" d="M662.17,1796.237
				c85.095-95.535,76.475-169.081-19.571-222.024c0,0-159.204,108.172-185.385,245.322c30.081,2.216,84.82,10.04,138.398,37.093
				C607.386,1791.869,662.17,1796.237,662.17,1796.237z"/>
			
				<linearGradient id="SVGID_00000049199043106157153670000011400393833388758415_" gradientUnits="userSpaceOnUse" x1="5552.4995" y1="1926.0211" x2="5969.6699" y2="1926.0211" gradientTransform="matrix(1 0 0 1 -5098.915 0)">
				<stop  offset="0" style="stop-color:#FEBBBA"/>
				<stop  offset="1" style="stop-color:#FF928E"/>
			</linearGradient>
			<path style="fill:url(#SVGID_00000049199043106157153670000011400393833388758415_);" d="M847.1,1894.549
				c0,0-178.745,101.018-239.057,14.761c-12.522-17.91-15.515-35.71-12.432-52.681c-53.578-27.053-108.317-34.877-138.398-37.093
				c-7.895,41.346-3.721,85.32,20.576,129.766c105.644,193.255,392.966-10.68,392.966-10.68L847.1,1894.549z"/>
			<g>
				
					<linearGradient id="SVGID_00000093894107848516432910000013356696929854721680_" gradientUnits="userSpaceOnUse" x1="1795.7996" y1="823.0733" x2="1502.5453" y2="1202.281">
					<stop  offset="0" style="stop-color:#09005D"/>
					<stop  offset="1" style="stop-color:#1A0F91"/>
				</linearGradient>
				<path style="fill:url(#SVGID_00000093894107848516432910000013356696929854721680_);" d="M825.625,2022.348l97.552-340.676
					c1.108-3.868,4.406-6.688,8.402-7.154c17.674-2.061,68.89-7.851,128.023-12.853c71.227-6.025,153.943-10.906,203.372-6.754
					c7.026,0.59,11.273,8.022,8.148,14.345c-28.107,56.866-143.727,288.183-201.625,363.96c-1.918,2.51-4.884,3.978-8.044,3.948
					l-226.338-2.106C828.528,2034.999,823.811,2028.679,825.625,2022.348z"/>
				
					<linearGradient id="SVGID_00000091734499455751660940000014119283494871986330_" gradientUnits="userSpaceOnUse" x1="6194.2451" y1="1677.4857" x2="6145.3916" y2="1892.0146" gradientTransform="matrix(1 0 0 1 -5098.915 0)">
					<stop  offset="0" style="stop-color:#09005D"/>
					<stop  offset="1" style="stop-color:#1A0F91"/>
				</linearGradient>
				<path style="fill:url(#SVGID_00000091734499455751660940000014119283494871986330_);" d="M1069.719,1632.13l70.729-11.785
					c3.767-0.628,6.852,2.972,5.654,6.598l-7.001,21.215c-0.609,1.847-2.22,3.184-4.148,3.441l-68.061,9.091
					c-3.521,0.471-6.424-2.728-5.615-6.188l4.335-18.523C1066.078,1633.985,1067.699,1632.465,1069.719,1632.13z"/>
				
					<linearGradient id="SVGID_00000101102719398004461580000009673624520910469027_" gradientUnits="userSpaceOnUse" x1="6181.8276" y1="1761.3749" x2="6158.4629" y2="1901.5629" gradientTransform="matrix(1 0 0 1 -5098.915 0)">
					<stop  offset="0" style="stop-color:#09005D"/>
					<stop  offset="1" style="stop-color:#1A0F91"/>
				</linearGradient>
				<path style="fill:url(#SVGID_00000101102719398004461580000009673624520910469027_);" d="M1016.761,1692.006l5.827-30.349
					c0.585-3.044,3.097-5.344,6.18-5.657l142.853-14.495c4.809-0.489,8.659,3.919,7.53,8.617l-9.082,37.819
					c-0.727,3.026-3.361,5.212-6.468,5.368l-139.598,7.028C1019.46,1700.564,1015.903,1696.474,1016.761,1692.006z"/>
				
					<linearGradient id="SVGID_00000123440998009611477100000011287288601836643993_" gradientUnits="userSpaceOnUse" x1="5938.6973" y1="1882.2811" x2="6068.6636" y2="1882.2811" gradientTransform="matrix(1 0 0 1 -5098.915 0)">
					<stop  offset="0" style="stop-color:#FEBBBA"/>
					<stop  offset="1" style="stop-color:#FF928E"/>
				</linearGradient>
				<path style="fill:url(#SVGID_00000123440998009611477100000011287288601836643993_);" d="M849.193,1940.04
					c0,0-13.59-55.878-8.108-75.703c5.482-19.824,16.102-45.313,51.503-39.648c35.401,5.664,77.16,20.576,77.16,20.576
					s-2.11,25.823-29.015,17.491l16.684,12.91c0,0-2.384,20.676-25.109,9.63l15.517,17.121c0,0-9.759,16.98-26.48,6.09
					C904.625,1897.615,896.61,1946.769,849.193,1940.04z"/>
			</g>
			<g>
				
					<linearGradient id="SVGID_00000107564910924861921110000004398537024299528845_" gradientUnits="userSpaceOnUse" x1="821.2938" y1="1637.8677" x2="1094.3369" y2="1165.9406">
					<stop  offset="0" style="stop-color:#E1473D"/>
					<stop  offset="1" style="stop-color:#E9605A"/>
				</linearGradient>
				<path style="fill:url(#SVGID_00000107564910924861921110000004398537024299528845_);" d="M792.547,1727.326
					c-11.159,0.897-105.531,3.923-105.531,3.923l3.809,95.008l48.889,27.573l52.833-27.573V1727.326z"/>
				
					<linearGradient id="SVGID_00000069359610797499429230000010527308663129291669_" gradientUnits="userSpaceOnUse" x1="-773.2673" y1="2369.0742" x2="351.6344" y2="1685.2683" gradientTransform="matrix(-1 0 0 1 990.5665 0)">
					<stop  offset="0" style="stop-color:#E1473D"/>
					<stop  offset="1" style="stop-color:#E9605A"/>
				</linearGradient>
				<polygon style="fill:url(#SVGID_00000069359610797499429230000010527308663129291669_);" points="800.041,1727.326 
					687.228,1731.249 682.616,1767.7 741.329,1782.952 803.737,1755.139 				"/>
			</g>
		</g>
		<g>
			
				<linearGradient id="SVGID_00000178884939066674674740000017031298015992230810_" gradientUnits="userSpaceOnUse" x1="2262.1582" y1="578.961" x2="2534.3975" y2="-423.3771">
				<stop  offset="0" style="stop-color:#E1473D"/>
				<stop  offset="1" style="stop-color:#E9605A"/>
			</linearGradient>
			
				<circle style="fill:url(#SVGID_00000178884939066674674740000017031298015992230810_);" cx="2125.969" cy="1080.385" r="546.743"/>
			<path style="opacity:0.95;fill:#FFFFFF;" d="M2598.841,1083.714c0,259.988-210.762,470.75-470.75,470.75
				c-247.43,0-450.274-190.893-469.293-433.438c-0.965-12.31,46.29-44.252,46.29-56.81c0-70.339-4.743-118.175,12.805-173.982
				c2.968-9.439-7.765-23.608-2.403-33.341c80.108-145.411,234.85-243.929,412.601-243.929
				C2388.079,612.964,2598.841,823.726,2598.841,1083.714z"/>
			<g>
				<defs>
					<circle id="SVGID_00000031892049330439481870000016501974740463989943_" cx="2128.112" cy="1083.71" r="470.75"/>
				</defs>
				<clipPath id="SVGID_00000016065826530256280720000011206293590159045299_">
					<use xlink:href="#SVGID_00000031892049330439481870000016501974740463989943_"  style="overflow:visible;"/>
				</clipPath>
				<g style="clip-path:url(#SVGID_00000016065826530256280720000011206293590159045299_);">
					
						<linearGradient id="SVGID_00000076572399309579682930000004891131038670251187_" gradientUnits="userSpaceOnUse" x1="1633.3624" y1="1071.4768" x2="2189.7202" y2="2009.1573" gradientTransform="matrix(0.9986 -0.0525 0.0525 0.9986 221.8759 43.5376)">
						<stop  offset="0" style="stop-color:#A22B25"/>
						<stop  offset="1" style="stop-color:#C0423C"/>
					</linearGradient>
					<path style="fill:url(#SVGID_00000076572399309579682930000004891131038670251187_);" d="M1599.293,1104.365
						c170.19,40.404,274.245,100.883,339.027,150.765c10.623,8.18,34.882,26.074,83.023,61.587
						c128.824,95.031,154.302,111.299,191.83,108.939c44.164-2.777,77.15-29.662,95.094-44.288
						c28.669-23.368,75.672-61.68,81.74-114.652c11.153-97.366-118.634-235.243-252.584-260.577
						c-52.394-9.909-68.006,4.404-128.176,2.894c-118.657-2.976-225.737-97.111-302.975-159.193
						C1669.235,922.526,1636.905,1030.547,1599.293,1104.365z"/>
					
						<linearGradient id="SVGID_00000006697025081604552840000013969744977117884558_" gradientUnits="userSpaceOnUse" x1="2473.5708" y1="734.8889" x2="2065.0779" y2="1781.2051">
						<stop  offset="0" style="stop-color:#FEBBBA"/>
						<stop  offset="1" style="stop-color:#FF928E"/>
					</linearGradient>
					<path style="fill:url(#SVGID_00000006697025081604552840000013969744977117884558_);" d="M2552.379,856.028
						c-29.557,25.718-123.12,142.839-180.602,149.644c-16.562,1.961-46.648,5.203-84.641-6.037
						c-63.967-18.924-70.15-46.957-107.308-46.485c-68.348,0.867-131.95,103.403-121.392,130.399
						c3.55,9.075,15.503,9.457,24.309,9.738c43.366,1.384,57.244-44.63,91.196-57.82c53.607-20.825,115.892,56.743,153.027,101.563
						c17.605,21.249,40.918,53.872,62.511,100.667c23.498-20.297,47.946-40.409,73.344-60.148
						c59.527-46.265,116.458-84.409,169.696-115.97C2589.974,1022.656,2595.77,895.723,2552.379,856.028z"/>
					
						<linearGradient id="SVGID_00000034049779475161377600000002630561760513662869_" gradientUnits="userSpaceOnUse" x1="2146.3428" y1="1251.191" x2="1590.462" y2="1899.7184">
						<stop  offset="0" style="stop-color:#FEBBBA"/>
						<stop  offset="1" style="stop-color:#FF928E"/>
					</linearGradient>
					<path style="fill:url(#SVGID_00000034049779475161377600000002630561760513662869_);" d="M1963.547,1280.665
						c1.218-27.73,27.971-46.846,42.298-53.282c37.344-16.778,71.294,16.136,102.938,46.814
						c20.812,20.177,46.618,45.966,57.42,94.128c3.266,14.562,9.809,43.738,1.166,57.746c-2.791,4.524-14.367,19.14-94.94-34.968
						C2004.883,1345.743,1961.955,1316.915,1963.547,1280.665z"/>
				</g>
			</g>
			
				<linearGradient id="SVGID_00000060733458636685588700000000711376122859786133_" gradientUnits="userSpaceOnUse" x1="2328.3687" y1="596.9401" x2="2600.6086" y2="-405.4011">
				<stop  offset="0" style="stop-color:#E1473D"/>
				<stop  offset="1" style="stop-color:#E9605A"/>
			</linearGradient>
			<polygon style="fill:url(#SVGID_00000060733458636685588700000000711376122859786133_);" points="2409.332,660.791 
				1889.835,1534.491 1966.124,1567.186 2479.292,718.325 			"/>
		</g>
		<g>
			<g>
				
					<linearGradient id="SVGID_00000152253210878258086040000000004132436324663982_" gradientUnits="userSpaceOnUse" x1="2267.3142" y1="3350.6079" x2="2439.2471" y2="2319.0083">
					<stop  offset="0" style="stop-color:#FE7062"/>
					<stop  offset="1" style="stop-color:#FF928E"/>
				</linearGradient>
				<path style="fill:url(#SVGID_00000152253210878258086040000000004132436324663982_);" d="M3091.062,3107.613v-641.443
					c0-84.276-67.728-152.85-151.999-153.768c-252.918-2.754-774.549-2.891-1201.357,33.075
					c-58.241,4.907-103.545,52.644-105.656,111.054l-39.89,620.146c-2.965,82.027,61.887,150.557,143.954,152.116l1208.046,22.956
					C3024.836,3253.283,3091.062,3188.304,3091.062,3107.613z"/>
				<path style="fill:#FFFFFF;" d="M2944.574,2535.572c1.075,54.58-0.545,141.179-1.873,197.13
					c-0.69,29.108-26.245,51.292-55.165,47.902l-208.143-24.395c-27.729-3.25-47.263-28.806-43.125-56.416l25.549-170.437
					c3.628-24.197,24.413-42.098,48.879-42.098h184.462C2922.036,2487.258,2944.044,2508.698,2944.574,2535.572z"/>
				<path style="opacity:0.37;fill:#FFFFFF;" d="M2400.626,2858.574l-173.629,18.73c-24.296,2.624-45.027-17.414-43.237-41.786
					l37.958-516.495c72.785-2.308,144.578-3.991,213.853-5.173v505.803C2435.571,2839.649,2420.505,2856.429,2400.626,2858.574z"/>
				<path style="fill:#FFFFFF;" d="M2329.462,2769.054c-0.535,9.291-8.232,16.454-17.419,16.454c-0.343,0-0.683-0.012-1.024-0.034
					c-9.631-0.557-16.987-8.813-16.419-18.443l26.18-450.779c11.74-0.29,23.384-0.552,35.027-0.811L2329.462,2769.054z"/>
				<g>
					
						<linearGradient id="SVGID_00000003800130041640529690000005136346165247895707_" gradientUnits="userSpaceOnUse" x1="-3426.7119" y1="2519.1816" x2="-3799.3003" y2="3060.5984" gradientTransform="matrix(-1 0 0 1 -644.2802 0)">
						<stop  offset="0" style="stop-color:#09005D"/>
						<stop  offset="1" style="stop-color:#1A0F91"/>
					</linearGradient>
					<path style="fill:url(#SVGID_00000003800130041640529690000005136346165247895707_);" d="M2848.315,2698.274
						c3.048,0,5.617-2.365,5.811-5.458l9.005-141.982c0.205-3.207-2.229-5.97-5.447-6.175c-3.377-0.262-5.969,2.24-6.175,5.447
						l-9.005,141.983c-0.205,3.206,2.229,5.969,5.446,6.173C2848.076,2698.274,2848.201,2698.274,2848.315,2698.274z"/>
					
						<linearGradient id="SVGID_00000069375702872751690340000017480970860338420909_" gradientUnits="userSpaceOnUse" x1="-3413.3147" y1="2528.4019" x2="-3785.9031" y2="3069.8186" gradientTransform="matrix(-1 0 0 1 -644.2802 0)">
						<stop  offset="0" style="stop-color:#09005D"/>
						<stop  offset="1" style="stop-color:#1A0F91"/>
					</linearGradient>
					<path style="fill:url(#SVGID_00000069375702872751690340000017480970860338420909_);" d="M2829.781,2698.274
						c3.126,0,5.719-2.478,5.822-5.629l4.718-144.699c0.102-3.219-2.422-5.913-5.628-6.017c-3.708-0.181-5.902,2.423-6.016,5.629
						l-4.719,144.7c-0.103,3.218,2.423,5.913,5.629,6.015C2829.588,2698.274,2829.723,2698.274,2829.781,2698.274z"/>
					
						<linearGradient id="SVGID_00000008115624148407201140000014473318961552254891_" gradientUnits="userSpaceOnUse" x1="-3397.1499" y1="2539.5256" x2="-3769.7385" y2="3080.9426" gradientTransform="matrix(-1 0 0 1 -644.2802 0)">
						<stop  offset="0" style="stop-color:#09005D"/>
						<stop  offset="1" style="stop-color:#1A0F91"/>
					</linearGradient>
					<path style="fill:url(#SVGID_00000008115624148407201140000014473318961552254891_);" d="M2804.652,2698.262
						c-3.218-0.148-5.695-2.876-5.537-6.082c2.308-48.609,6.709-141.324,6.776-144.484c0.023-3.185,2.627-5.766,5.822-5.766
						c3.218,0,5.822,2.604,5.822,5.822c0,2.399-5.663,121.187-6.8,144.973c-0.148,3.127-2.718,5.549-5.811,5.549
						C2804.834,2698.274,2804.743,2698.274,2804.652,2698.262z M2805.777,2547.752h0.114H2805.777z"/>
					
						<linearGradient id="SVGID_00000145753875214338377460000007784293022172029118_" gradientUnits="userSpaceOnUse" x1="-3369.1899" y1="2558.7671" x2="-3741.7778" y2="3100.1829" gradientTransform="matrix(-1 0 0 1 -644.2802 0)">
						<stop  offset="0" style="stop-color:#09005D"/>
						<stop  offset="1" style="stop-color:#1A0F91"/>
					</linearGradient>
					<path style="fill:url(#SVGID_00000145753875214338377460000007784293022172029118_);" d="M2766.117,2704.095
						c6.244,0,11.406-4.947,11.621-11.233c4.924-140.198,4.059-143.359,3.491-145.452c-1.683-6.219-8.141-9.868-14.293-8.175
						c-5.697,1.558-9.256,7.085-8.482,12.78c0.375,8.426-2.229,89.997-3.979,140.027c-0.228,6.424,4.799,11.826,11.222,12.041
						C2765.834,2704.095,2765.981,2704.095,2766.117,2704.095z"/>
					
						<linearGradient id="SVGID_00000032636901194363761810000002353855664607118506_" gradientUnits="userSpaceOnUse" x1="-3350.7537" y1="2571.4543" x2="-3723.342" y2="3112.8708" gradientTransform="matrix(-1 0 0 1 -644.2802 0)">
						<stop  offset="0" style="stop-color:#09005D"/>
						<stop  offset="1" style="stop-color:#1A0F91"/>
					</linearGradient>
					<path style="fill:url(#SVGID_00000032636901194363761810000002353855664607118506_);" d="M2740.886,2698.274
						c3.219,0,5.822-2.603,5.822-5.822V2550.47c0-3.219-2.604-5.822-5.822-5.822c-3.218,0-5.82,2.603-5.82,5.822v141.982
						C2735.066,2695.671,2737.668,2698.274,2740.886,2698.274z"/>
					
						<linearGradient id="SVGID_00000023962715479065842150000010265534975876362676_" gradientUnits="userSpaceOnUse" x1="-3339.3083" y1="2579.3313" x2="-3711.8943" y2="3120.7446" gradientTransform="matrix(-1 0 0 1 -644.2802 0)">
						<stop  offset="0" style="stop-color:#09005D"/>
						<stop  offset="1" style="stop-color:#1A0F91"/>
					</linearGradient>
					<path style="fill:url(#SVGID_00000023962715479065842150000010265534975876362676_);" d="M2720.511,2698.274
						c3.16,0,5.753-2.525,5.821-5.686c1.115-49.335,3.719-129.918,6.05-139.605c1.023-1.831,1.011-4.151-0.216-6.038
						c-1.763-2.706-5.368-3.433-8.062-1.671c-3.173,2.08-6.186,4.048-9.415,147.042c-0.068,3.218,2.478,5.879,5.685,5.958H2720.511z
						"/>
					
						<linearGradient id="SVGID_00000086674301330410043190000000165050900896340107_" gradientUnits="userSpaceOnUse" x1="-3445.8831" y1="2505.99" x2="-3818.4697" y2="3047.4043" gradientTransform="matrix(-1 0 0 1 -644.2802 0)">
						<stop  offset="0" style="stop-color:#09005D"/>
						<stop  offset="1" style="stop-color:#1A0F91"/>
					</linearGradient>
					<path style="fill:url(#SVGID_00000086674301330410043190000000165050900896340107_);" d="M2879.64,2711.202
						c6.152,0,11.292-4.821,11.621-11.041l7.766-149.09c0.33-6.424-4.605-11.893-11.029-12.235
						c-6.094-0.431-11.893,4.606-12.235,11.03l-7.766,149.09c-0.33,6.425,4.604,11.893,11.028,12.234
						C2879.231,2711.202,2879.436,2711.202,2879.64,2711.202z"/>
				</g>
			</g>
			<g>
				
					<linearGradient id="SVGID_00000065037685500220147650000011929016428846091655_" gradientUnits="userSpaceOnUse" x1="2352.843" y1="2450.416" x2="2383.1841" y2="1681.7738">
					<stop  offset="0" style="stop-color:#FE7062"/>
					<stop  offset="1" style="stop-color:#FF928E"/>
				</linearGradient>
				<path style="fill:url(#SVGID_00000065037685500220147650000011929016428846091655_);" d="M2888.289,2229.102v-450.47
					c0-59.185-47.563-107.342-106.745-107.987c-177.619-1.934-543.948-2.031-843.685,23.228
					c-40.901,3.446-72.717,36.971-74.199,77.99l-28.014,435.513c-2.082,57.606,43.462,105.732,101.095,106.827l848.382,16.122
					C2841.781,2331.402,2888.289,2285.769,2888.289,2229.102z"/>
				<path style="fill:#FFFFFF;" d="M2785.414,1827.371c0.756,38.33-0.383,99.147-1.314,138.44
					c-0.485,20.441-18.432,36.02-38.742,33.64l-146.174-17.133c-19.472-2.282-33.192-20.229-30.286-39.619l17.942-119.694
					c2.548-16.992,17.145-29.563,34.327-29.563h129.544C2769.587,1793.442,2785.042,1808.498,2785.414,1827.371z"/>
				<path style="opacity:0.37;fill:#FFFFFF;" d="M2403.413,2054.208l-121.936,13.154c-17.062,1.843-31.621-12.23-30.363-29.345
					l26.657-362.721c51.115-1.621,101.534-2.803,150.184-3.634v355.213C2427.954,2040.917,2417.373,2052.701,2403.413,2054.208z"/>
				<path style="fill:#FFFFFF;" d="M2353.436,1991.34c-0.376,6.525-5.782,11.555-12.233,11.555c-0.24,0-0.48-0.009-0.719-0.025
					c-6.764-0.391-11.929-6.188-11.531-12.951l18.386-316.571c8.244-0.204,16.421-0.388,24.598-0.569L2353.436,1991.34z"/>
				<g>
					
						<linearGradient id="SVGID_00000152261275486181094720000012778749514686532485_" gradientUnits="userSpaceOnUse" x1="-3315.8257" y1="1815.861" x2="-3577.4849" y2="2196.0837" gradientTransform="matrix(-1 0 0 1 -644.2802 0)">
						<stop  offset="0" style="stop-color:#09005D"/>
						<stop  offset="1" style="stop-color:#1A0F91"/>
					</linearGradient>
					<path style="fill:url(#SVGID_00000152261275486181094720000012778749514686532485_);" d="M2717.813,1941.633
						c2.14,0,3.945-1.66,4.082-3.833l6.323-99.71c0.144-2.252-1.565-4.193-3.824-4.336c-2.372-0.184-4.192,1.572-4.336,3.825
						l-6.324,99.712c-0.143,2.252,1.565,4.192,3.825,4.336C2717.646,1941.633,2717.734,1941.633,2717.813,1941.633z"/>
					
						<linearGradient id="SVGID_00000054961155896760763610000003106219645810885768_" gradientUnits="userSpaceOnUse" x1="-3306.4172" y1="1822.3357" x2="-3568.0767" y2="2202.5588" gradientTransform="matrix(-1 0 0 1 -644.2802 0)">
						<stop  offset="0" style="stop-color:#09005D"/>
						<stop  offset="1" style="stop-color:#1A0F91"/>
					</linearGradient>
					<path style="fill:url(#SVGID_00000054961155896760763610000003106219645810885768_);" d="M2704.798,1941.633
						c2.195,0,4.016-1.741,4.088-3.952l3.314-101.619c0.072-2.261-1.701-4.152-3.952-4.225c-2.604-0.127-4.145,1.701-4.224,3.953
						l-3.315,101.619c-0.072,2.259,1.701,4.152,3.953,4.224C2704.662,1941.633,2704.757,1941.633,2704.798,1941.633z"/>
					
						<linearGradient id="SVGID_00000061430541669757715440000017264340469942216881_" gradientUnits="userSpaceOnUse" x1="-3295.0652" y1="1830.1477" x2="-3556.7251" y2="2210.3716" gradientTransform="matrix(-1 0 0 1 -644.2802 0)">
						<stop  offset="0" style="stop-color:#09005D"/>
						<stop  offset="1" style="stop-color:#1A0F91"/>
					</linearGradient>
					<path style="fill:url(#SVGID_00000061430541669757715440000017264340469942216881_);" d="M2687.15,1941.625
						c-2.259-0.104-4-2.021-3.889-4.272c1.621-34.137,4.711-99.248,4.758-101.468c0.017-2.236,1.846-4.049,4.089-4.049
						c2.26,0,4.089,1.829,4.089,4.088c0,1.685-3.977,85.107-4.775,101.812c-0.104,2.196-1.908,3.896-4.081,3.896
						C2687.279,1941.633,2687.214,1941.633,2687.15,1941.625z M2687.94,1835.924h0.08H2687.94z"/>
					
						<linearGradient id="SVGID_00000154422029017763923450000011335085427552899503_" gradientUnits="userSpaceOnUse" x1="-3275.4294" y1="1843.6606" x2="-3537.0886" y2="2223.8838" gradientTransform="matrix(-1 0 0 1 -644.2802 0)">
						<stop  offset="0" style="stop-color:#09005D"/>
						<stop  offset="1" style="stop-color:#1A0F91"/>
					</linearGradient>
					<path style="fill:url(#SVGID_00000154422029017763923450000011335085427552899503_);" d="M2660.089,1945.721
						c4.384,0,8.01-3.474,8.161-7.889c3.458-98.457,2.851-100.678,2.451-102.147c-1.182-4.368-5.717-6.931-10.037-5.742
						c-4.001,1.094-6.5,4.975-5.957,8.975c0.263,5.917-1.565,63.203-2.795,98.338c-0.16,4.511,3.369,8.305,7.881,8.456
						C2659.889,1945.721,2659.993,1945.721,2660.089,1945.721z"/>
					
						<linearGradient id="SVGID_00000121990902494797318470000017343900755382956978_" gradientUnits="userSpaceOnUse" x1="-3262.4824" y1="1852.5704" x2="-3524.1416" y2="2232.7935" gradientTransform="matrix(-1 0 0 1 -644.2802 0)">
						<stop  offset="0" style="stop-color:#09005D"/>
						<stop  offset="1" style="stop-color:#1A0F91"/>
					</linearGradient>
					<path style="fill:url(#SVGID_00000121990902494797318470000017343900755382956978_);" d="M2642.369,1941.633
						c2.26,0,4.089-1.828,4.089-4.089v-99.71c0-2.26-1.829-4.089-4.089-4.089c-2.26,0-4.087,1.829-4.087,4.089v99.71
						C2638.282,1939.805,2640.11,1941.633,2642.369,1941.633z"/>
					
						<linearGradient id="SVGID_00000018943771826712276230000015512113388457812871_" gradientUnits="userSpaceOnUse" x1="-3254.4443" y1="1858.1025" x2="-3516.1023" y2="2238.3235" gradientTransform="matrix(-1 0 0 1 -644.2802 0)">
						<stop  offset="0" style="stop-color:#09005D"/>
						<stop  offset="1" style="stop-color:#1A0F91"/>
					</linearGradient>
					<path style="fill:url(#SVGID_00000018943771826712276230000015512113388457812871_);" d="M2628.06,1941.633
						c2.22,0,4.041-1.772,4.088-3.992c0.783-34.648,2.612-91.239,4.248-98.042c0.719-1.285,0.711-2.915-0.152-4.24
						c-1.238-1.9-3.769-2.412-5.661-1.173c-2.228,1.46-4.344,2.843-6.612,103.264c-0.047,2.26,1.741,4.128,3.993,4.184H2628.06z"/>
					
						<linearGradient id="SVGID_00000082328203945146466380000013258472912698363539_" gradientUnits="userSpaceOnUse" x1="-3329.2891" y1="1806.5963" x2="-3590.9485" y2="2186.8198" gradientTransform="matrix(-1 0 0 1 -644.2802 0)">
						<stop  offset="0" style="stop-color:#09005D"/>
						<stop  offset="1" style="stop-color:#1A0F91"/>
					</linearGradient>
					<path style="fill:url(#SVGID_00000082328203945146466380000013258472912698363539_);" d="M2739.813,1950.712
						c4.32,0,7.93-3.385,8.161-7.754l5.453-104.702c0.232-4.512-3.234-8.353-7.745-8.592c-4.28-0.303-8.353,3.235-8.592,7.746
						l-5.454,104.702c-0.232,4.512,3.233,8.352,7.745,8.592C2739.525,1950.712,2739.669,1950.712,2739.813,1950.712z"/>
				</g>
			</g>
		</g>
		<g>
			<g>
				
					<linearGradient id="SVGID_00000083075424198814543190000014480822115384461993_" gradientUnits="userSpaceOnUse" x1="1458.4572" y1="693.7531" x2="1198.8976" y2="1283.661">
					<stop  offset="0" style="stop-color:#4F52FF"/>
					<stop  offset="1" style="stop-color:#4042E2"/>
				</linearGradient>
				
					<circle style="fill:url(#SVGID_00000083075424198814543190000014480822115384461993_);" cx="1306.695" cy="1038.668" r="157.958"/>
				
					<linearGradient id="SVGID_00000080164628993589074860000016241657359109014698_" gradientUnits="userSpaceOnUse" x1="1467.8282" y1="697.876" x2="1208.2692" y2="1287.7831">
					<stop  offset="0" style="stop-color:#4F52FF"/>
					<stop  offset="1" style="stop-color:#4042E2"/>
				</linearGradient>
				<path style="fill:url(#SVGID_00000080164628993589074860000016241657359109014698_);" d="M1464.365,1032.335h-157.67h-157.958
					c0,0-12.575,86.606,128.4,326.746c6.151,10.477,17.389,16.204,29.539,16.21c12.149,0.006,23.408-5.349,29.558-15.827
					C1477.195,1119.303,1464.365,1032.335,1464.365,1032.335z"/>
			</g>
			<g>
				<path style="fill:#FFFFFF;" d="M1308.726,1379.883v3.924h-2.053c-13.749,0-26.582-9.083-33.491-20.851
					c-82.404-140.37-112.6-229.884-123.416-279.548c-3.084-11.424-4.856-23.004-5.415-34.486
					c-0.954-11.746-0.224-16.884-0.138-17.407l0.415-2.622c6.364-84.85,76.982-150.931,162.068-150.931
					c86.203,0,157.458,66.946,162.276,152.471c0.121,1.119,0.352,3.946,0.261,8.695l0.007,0.577c0,15.514-2.192,30.878-6.515,45.673
					c-11.189,49.621-40.519,137.499-121.52,275.501C1334.252,1372.725,1320.952,1379.883,1308.726,1379.883z M1153.048,1041.504
					c-0.038,0,0.034,3.652,0.45,8.745l0.01-2.32c0.525,10.878,2.206,21.082,5.141,30.251h0.054
					c10.655,51.957,40.537,137.799,122.389,277.228c5.269,8.976,16.09,15.126,26.603,15.131l1.032,5.158v-4.586
					c6.113,0,19.991-5.623,25.305-14.675c80.481-137.119,112.228-224.26,121.396-273.217v-0.283
					c3.056-13.999,4.624-28.546,4.624-43.236l-1.568-0.645v-0.052c0-4.572,0.644-7.045,0.57-7.694l0.372-0.266
					c-4.484-80.727-71.548-143.963-152.928-143.963c-81.224,0-148.379,66.228-153.009,147.663l-0.148,6.763H1153.048z"/>
			</g>
			<circle style="opacity:0.9;fill:#FFFFFF;" cx="1307.204" cy="1038.158" r="91.208"/>
			<g>
				<g>
					<path style="fill:#7D97F4;" d="M1307.204,1134.462c-53.102,0-96.303-43.201-96.303-96.303s43.201-96.304,96.303-96.304
						s96.304,43.202,96.304,96.304S1360.306,1134.462,1307.204,1134.462z M1307.204,952.045c-47.483,0-86.113,38.63-86.113,86.113
						c0,47.483,38.63,86.113,86.113,86.113c47.482,0,86.113-38.63,86.113-86.113
						C1393.317,990.676,1354.687,952.045,1307.204,952.045z"/>
				</g>
			</g>
			<g>
				<path style="fill:#FFFFFF;" d="M1220.684,943.196c-0.43,0-0.858-0.18-1.161-0.532c-0.55-0.641-0.476-1.605,0.164-2.155
					c25.623-22.005,58.358-34.124,92.178-34.124c0.844,0,1.528,0.685,1.528,1.529c0,0.844-0.684,1.529-1.528,1.529
					c-33.09,0-65.118,11.857-90.187,33.385C1221.391,943.075,1221.037,943.196,1220.684,943.196z"/>
			</g>
			<g>
				<path style="fill:#FFFFFF;" d="M1171.844,1049.464c-0.845,0-1.529-0.684-1.529-1.529c0-26.412,7.322-52.178,21.175-74.511
					c0.446-0.718,1.388-0.939,2.105-0.494c0.718,0.445,0.939,1.388,0.494,2.105c-13.553,21.849-20.717,47.057-20.717,72.9
					C1173.372,1048.78,1172.688,1049.464,1171.844,1049.464z"/>
			</g>
		</g>
	</g>
</g>
</svg>
