<?xml version="1.0" encoding="utf-8"?>
<!-- Generator: Adobe Illustrator 27.5.0, SVG Export Plug-In . SVG Version: 6.00 Build 0)  -->
<svg version="1.1" xmlns="http://www.w3.org/2000/svg" xmlns:xlink="http://www.w3.org/1999/xlink" x="0px" y="0px"
	 viewBox="0 0 500 500" style="enable-background:new 0 0 500 500;" xml:space="preserve">
<g id="BACKGROUND">
	<linearGradient id="SVGID_1_" gradientUnits="userSpaceOnUse" x1="250" y1="11.2435" x2="250" y2="462.1275">
		<stop  offset="0" style="stop-color:#E9F7FF;stop-opacity:0"/>
		<stop  offset="0.7882" style="stop-color:#E9F7FF"/>
	</linearGradient>
	<rect style="fill:url(#SVGID_1_);" width="500" height="500"/>
</g>
<g id="OBJECTS">
	<g>
		<g style="opacity:0.25;">
			<circle style="fill:#005AC6;" cx="259.497" cy="250.95" r="169.965"/>
			
				<line style="fill:none;stroke:#005AC6;stroke-width:14.0619;stroke-miterlimit:10;" x1="343.065" y1="321.034" x2="385.137" y2="361.916"/>
			
				<line style="fill:none;stroke:#005AC6;stroke-width:14.0619;stroke-miterlimit:10;" x1="147.308" y1="130.812" x2="179.252" y2="161.853"/>
			<path style="fill:#005AC6;" d="M365.483,248.125c-6.973-6.178-20.217-5.654-27.643,1.772l-18.285,18.186v-13.023V149.727
				c0-8.342-6.763-15.105-15.105-15.105h-0.795c-8.342,0-15.105,6.763-15.105,15.105v82.68h-3.18V129.454
				c0-8.562-6.941-15.502-15.503-15.502c-8.562,0-15.502,6.941-15.502,15.502v102.952h-3.18v-79.5c0-7.903-6.407-14.31-14.31-14.31
				c-7.903,0-14.31,6.407-14.31,14.31v79.5h-3.18v-58.035c0-8.342-6.763-15.105-15.105-15.105s-15.105,6.763-15.105,15.105v80.688
				v25.842v43.734c0,21.07,17.081,38.151,38.151,38.151h54.078c15.981,0,29.659-9.83,35.338-23.77l48.923-69.245
				C370.081,263.921,370.969,252.985,365.483,248.125z"/>
			<path style="fill:none;stroke:#005AC6;stroke-width:2.8216;stroke-linecap:round;stroke-miterlimit:10;" d="M269.92,279.552
				c0,7.525-6.1,13.625-13.625,13.625"/>
			<path style="fill:#005AC6;" d="M257.816,260.085c-11.754,0-21.316,9.562-21.316,21.316c0,11.754,9.562,21.316,21.316,21.316
				c11.754,0,21.316-9.562,21.316-21.316C279.132,269.647,269.57,260.085,257.816,260.085z M257.816,297.334
				c-8.799,0-15.932-7.133-15.932-15.932s7.133-15.932,15.932-15.932s15.932,7.133,15.932,15.932S266.615,297.334,257.816,297.334z"
				/>
			<path style="fill:#005AC6;" d="M299.797,250.543h-67.693v-3.516h-10.109v3.516h-6.161c-5.093,0-9.223,4.129-9.223,9.223v43.966
				c0,5.094,4.129,9.223,9.223,9.223h83.962c5.094,0,9.223-4.129,9.223-9.223v-43.966
				C309.02,254.672,304.89,250.543,299.797,250.543z M257.816,305.265c-13.158,0-23.864-10.705-23.864-23.864
				c0-13.159,10.705-23.864,23.864-23.864c13.159,0,23.864,10.705,23.864,23.864C281.68,294.56,270.974,305.265,257.816,305.265z
				 M299.18,265.047h-12.186c-1.247,0-2.258-1.011-2.258-2.258v-4.714c0-1.247,1.011-2.258,2.258-2.258h12.186
				c1.247,0,2.258,1.011,2.258,2.258v4.714C301.438,264.036,300.427,265.047,299.18,265.047z"/>
			<path style="fill:#005AC6;" d="M259.645,92.566c25.67,0,50.307,6.076,73.225,18.059c37.482,19.599,65.089,52.62,77.734,92.982
				s8.816,83.232-10.782,120.714c-13.657,26.119-34.205,47.827-59.422,62.777c-24.536,14.546-52.561,22.235-81.045,22.235
				c-25.673,0-50.311-6.076-73.229-18.059c-37.482-19.598-65.088-52.62-77.734-92.982c-12.646-40.362-8.817-83.232,10.782-120.714
				c13.657-26.119,34.205-47.826,59.422-62.776c24.536-14.546,52.561-22.235,81.048-22.235H259.645 M259.64,80.95
				c-61.248,0.002-120.415,33.208-150.761,91.245c-43.495,83.184-11.32,185.878,71.864,229.373
				c25.147,13.149,52.073,19.382,78.612,19.382c61.248,0,120.415-33.208,150.761-91.245c43.495-83.184,11.32-185.878-71.864-229.373
				C313.105,87.183,286.179,80.949,259.64,80.95L259.64,80.95z"/>
			<path style="fill:#005AC6;" d="M319.456,228.995v-79.764c0-8.191-6.722-14.832-15.014-14.832h-0.79
				c-8.292,0-15.014,6.64-15.014,14.832v81.183h-3.161V129.325c0-8.407-6.899-15.222-15.409-15.222
				c-8.51,0-15.409,6.815-15.409,15.222v101.089h-3.161v-78.061c0-7.76-6.368-14.051-14.224-14.051
				c-7.856,0-14.224,6.291-14.224,14.051v78.061h-3.161V173.43c0-8.191-6.722-14.832-15.014-14.832
				c-8.292,0-15.014,6.64-15.014,14.832v79.228v25.374v22.815C290.832,301.234,314.825,244.331,319.456,228.995z"/>
		</g>
		<g>
			<g>
				<g>
					<circle style="fill:#E9F7FF;" cx="250" cy="250" r="169.965"/>
					
						<linearGradient id="SVGID_00000176736845912080595620000011465298594263066542_" gradientUnits="userSpaceOnUse" x1="328.6685" y1="340.5256" x2="380.5396" y2="340.5256">
						<stop  offset="0" style="stop-color:#FA8383"/>
						<stop  offset="0.2162" style="stop-color:#FA7A7A"/>
						<stop  offset="0.5685" style="stop-color:#F86262"/>
						<stop  offset="0.8982" style="stop-color:#F74545"/>
					</linearGradient>
					
						<line style="fill:none;stroke:url(#SVGID_00000176736845912080595620000011465298594263066542_);stroke-width:14.0619;stroke-miterlimit:10;" x1="333.568" y1="320.085" x2="375.64" y2="360.966"/>
					
						<linearGradient id="SVGID_00000098213435381020484520000017268223234138132362_" gradientUnits="userSpaceOnUse" x1="132.9109" y1="145.3829" x2="174.6542" y2="145.3829">
						<stop  offset="0" style="stop-color:#FA8383"/>
						<stop  offset="0.2162" style="stop-color:#FA7A7A"/>
						<stop  offset="0.5685" style="stop-color:#F86262"/>
						<stop  offset="0.8982" style="stop-color:#F74545"/>
					</linearGradient>
					
						<line style="fill:none;stroke:url(#SVGID_00000098213435381020484520000017268223234138132362_);stroke-width:14.0619;stroke-miterlimit:10;" x1="137.811" y1="129.863" x2="169.754" y2="160.903"/>
					<g>
						
							<linearGradient id="SVGID_00000183249214894322354730000003116093769083187846_" gradientUnits="userSpaceOnUse" x1="271.2285" y1="64.619" x2="268.5423" y2="335.9123">
							<stop  offset="0" style="stop-color:#F97979"/>
							<stop  offset="0.2189" style="stop-color:#F86666"/>
							<stop  offset="0.5661" style="stop-color:#F74E4E"/>
							<stop  offset="0.7795" style="stop-color:#F74545"/>
						</linearGradient>
						<path style="fill:url(#SVGID_00000183249214894322354730000003116093769083187846_);" d="M355.986,247.175
							c-6.973-6.178-20.217-5.654-27.643,1.772l-18.285,18.186V254.11V148.777c0-8.342-6.763-15.105-15.105-15.105h-0.795
							c-8.342,0-15.105,6.763-15.105,15.105v82.68h-3.18V128.505c0-8.562-6.941-15.503-15.503-15.503
							c-8.562,0-15.502,6.941-15.502,15.503v102.952h-3.18v-79.5c0-7.903-6.407-14.31-14.31-14.31c-7.903,0-14.31,6.407-14.31,14.31
							v79.5h-3.18v-58.035c0-8.342-6.763-15.105-15.105-15.105c-8.342,0-15.105,6.763-15.105,15.105v80.688v25.842v43.734
							c0,21.07,17.081,38.151,38.151,38.151h54.078c15.981,0,29.659-9.83,35.338-23.77l48.923-69.245
							C360.584,262.972,361.472,252.036,355.986,247.175z"/>
					</g>
					<g>
						<path style="fill:none;stroke:#E9F7FF;stroke-width:2.8216;stroke-linecap:round;stroke-miterlimit:10;" d="M260.423,278.602
							c0,7.525-6.1,13.625-13.625,13.625"/>
						<g>
							<path style="fill:#E9F7FF;" d="M248.319,259.135c-11.754,0-21.316,9.563-21.316,21.316s9.562,21.316,21.316,21.316
								c11.754,0,21.316-9.563,21.316-21.316S260.073,259.135,248.319,259.135z M248.319,296.384
								c-8.799,0-15.933-7.133-15.933-15.932s7.133-15.932,15.933-15.932c8.799,0,15.932,7.133,15.932,15.932
								S257.118,296.384,248.319,296.384z"/>
							<path style="fill:#E9F7FF;" d="M290.3,249.593h-67.693v-3.516h-10.109v3.516h-6.16c-5.094,0-9.223,4.129-9.223,9.222v43.966
								c0,5.093,4.129,9.222,9.223,9.222H290.3c5.094,0,9.223-4.129,9.223-9.222v-43.966
								C299.522,253.722,295.393,249.593,290.3,249.593z M248.319,304.315c-13.159,0-23.864-10.705-23.864-23.864
								s10.705-23.864,23.864-23.864s23.864,10.705,23.864,23.864S261.477,304.315,248.319,304.315z M289.683,264.097h-12.186
								c-1.247,0-2.258-1.011-2.258-2.258v-4.714c0-1.247,1.011-2.258,2.258-2.258h12.186c1.247,0,2.258,1.011,2.258,2.258v4.714
								C291.941,263.086,290.93,264.097,289.683,264.097z"/>
						</g>
					</g>
					<g>
						
							<linearGradient id="SVGID_00000016768219347526783650000007184904091874252730_" gradientUnits="userSpaceOnUse" x1="99.3836" y1="171.2416" x2="400.6164" y2="328.7584">
							<stop  offset="0" style="stop-color:#FA8383"/>
							<stop  offset="0.2162" style="stop-color:#FA7A7A"/>
							<stop  offset="0.5685" style="stop-color:#F86262"/>
							<stop  offset="0.8982" style="stop-color:#F74545"/>
						</linearGradient>
						<path style="fill:url(#SVGID_00000016768219347526783650000007184904091874252730_);" d="M250.147,91.616
							c25.67,0,50.307,6.076,73.225,18.059c37.482,19.599,65.089,52.62,77.734,92.982s8.816,83.232-10.782,120.714
							c-13.657,26.119-34.205,47.827-59.422,62.777c-24.536,14.546-52.561,22.235-81.045,22.235
							c-25.673,0-50.311-6.076-73.229-18.059c-37.482-19.598-65.088-52.62-77.734-92.982
							c-12.646-40.362-8.816-83.232,10.782-120.714c13.657-26.119,34.205-47.826,59.422-62.776
							c24.536-14.546,52.561-22.235,81.048-22.235H250.147 M250.143,80c-61.248,0.002-120.415,33.208-150.761,91.245
							c-43.495,83.184-11.32,185.878,71.864,229.373C196.392,413.767,223.318,420,249.857,420
							c61.248,0,120.415-33.208,150.761-91.245c43.495-83.184,11.32-185.878-71.864-229.373
							C303.607,86.233,276.682,79.999,250.143,80L250.143,80z"/>
					</g>
				</g>
				<g style="opacity:0.4;">
					
						<linearGradient id="SVGID_00000109006027018667860730000017819337415527111583_" gradientUnits="userSpaceOnUse" x1="262.7193" y1="158.0865" x2="186.6351" y2="336.5858">
						<stop  offset="0.1018" style="stop-color:#FFFFFF"/>
						<stop  offset="0.9422" style="stop-color:#FFFFFF;stop-opacity:0"/>
					</linearGradient>
					<path style="fill:url(#SVGID_00000109006027018667860730000017819337415527111583_);" d="M309.958,228.045v-79.764
						c0-8.191-6.722-14.832-15.014-14.832h-0.79c-8.292,0-15.014,6.64-15.014,14.832v81.183h-3.161V128.376
						c0-8.407-6.899-15.222-15.409-15.222c-8.51,0-15.409,6.815-15.409,15.222v101.089H242v-78.061
						c0-7.76-6.368-14.051-14.224-14.051c-7.856,0-14.224,6.291-14.224,14.051v78.061h-3.161V172.48
						c0-8.191-6.722-14.832-15.014-14.832c-8.292,0-15.014,6.64-15.014,14.832v79.227v25.374v22.815
						C281.334,300.285,305.328,243.381,309.958,228.045z"/>
				</g>
			</g>
		</g>
	</g>
</g>
</svg>
