<?xml version="1.0" encoding="utf-8"?>
<!-- Generator: Adobe Illustrator 27.5.0, SVG Export Plug-In . SVG Version: 6.00 Build 0)  -->
<svg version="1.1" xmlns="http://www.w3.org/2000/svg" xmlns:xlink="http://www.w3.org/1999/xlink" x="0px" y="0px"
	 viewBox="0 0 500 500" style="enable-background:new 0 0 500 500;" xml:space="preserve">
<g id="BACKGROUND">
	<polygon style="fill:#51546B;" points="425.71,0 0,425.71 0,500 251.29,500 500,500 500,251.29 500,0 	"/>
	<polygon style="fill:#575A73;" points="278.931,0 0,0 0,278.931 0,425.71 425.71,0 	"/>
</g>
<g id="OBJECTS">
	<path style="opacity:0.6;fill:#3B3E54;" d="M282.481,296.974h-55.812h-63.253c-2.727,0-4.938,2.211-4.938,4.938v9.876v94.994
		c0,2.727,2.211,4.938,4.938,4.938h1.463h117.602c2.727,0,4.938-2.211,4.938-4.938v-94.994v-9.876
		C287.419,299.185,285.208,296.974,282.481,296.974z"/>
	<g>
		<g>
			<path style="fill:#BFBFBF;" d="M156.435,402.627h117.602c2.727,0,4.938-2.211,4.938-4.938v-94.994h-22.608L156.435,402.627z"/>
			<path style="fill:#CBCBCB;" d="M150.034,302.695v94.994c0,2.727,2.211,4.938,4.938,4.938h1.463l99.932-99.932H150.034z"/>
		</g>
		<g>
			<path style="fill:#D9D9D9;" d="M278.975,292.819c0-2.727-2.211-4.938-4.938-4.938h-55.812l-14.814,14.814h75.564V292.819z"/>
			<path style="fill:#E5E5E5;" d="M154.972,287.881c-2.727,0-4.938,2.211-4.938,4.938v9.876h53.377l14.814-14.814H154.972z"/>
		</g>
		<g>
			<path style="fill:#D64055;" d="M159.051,298.657c1.797,0,3.253-1.456,3.253-3.253h-6.506
				C155.798,297.201,157.254,298.657,159.051,298.657z"/>
			<path style="fill:#F44961;" d="M159.051,292.151c-1.797,0-3.253,1.456-3.253,3.253h6.506
				C162.304,293.608,160.847,292.151,159.051,292.151z"/>
			<path style="fill:#FF9B00;" d="M169.697,298.657c1.797,0,3.253-1.456,3.253-3.253h-6.506
				C166.444,297.201,167.9,298.657,169.697,298.657z"/>
			<path style="fill:#FFAF34;" d="M169.697,292.151c-1.797,0-3.253,1.456-3.253,3.253h6.506
				C172.95,293.608,171.494,292.151,169.697,292.151z"/>
			<path style="fill:#068C4A;" d="M180.344,298.657c1.797,0,3.253-1.456,3.253-3.253h-6.506
				C177.091,297.201,178.547,298.657,180.344,298.657z"/>
			<path style="fill:#07AA5A;" d="M180.344,292.151c-1.797,0-3.253,1.456-3.253,3.253h6.506
				C183.597,293.608,182.14,292.151,180.344,292.151z"/>
		</g>
	</g>
	<g>
		<g>
			<rect x="164.749" y="307.545" style="fill:#F1F1F1;" width="50.395" height="50.395"/>
			<rect x="217.355" y="349.585" style="fill:#F1F1F1;" width="45.795" height="45.795"/>
			<rect x="164.749" y="360.497" style="fill:#F1F1F1;" width="50.457" height="34.883"/>
			<rect x="217.355" y="307.545" style="fill:#F1F1F1;" width="45.795" height="39.57"/>
		</g>
		<g>
			<g>
				<path style="fill:#3B3E54;" d="M253.322,334.675l-0.003-0.002h0.006l-0.01-0.128c-0.098-2.961-1.843-4.14-3.183-4.613
					c-0.845-0.298-1.53-0.316-1.53-0.316l-0.044-0.001h-0.069h-0.018c-0.524-0.004-2.624-0.037-4.207-0.287
					c-1.81-0.287-4.418-3.247-5.951-4.844c-0.905-0.947-1.884-1.459-2.64-1.469c-0.384,0-0.702,0.128-0.925,0.383l-0.001,0.005
					v0.006l-0.004,0.007c-1.364,6.343-6.811,11.153-13.456,11.572v1.398v0.001v0.082c0,0.415,0.337,0.752,0.752,0.752h29.839
					C253.384,336.893,253.359,335.157,253.322,334.675z"/>
				<path style="fill:#96C9E0;" d="M236.173,323.085c-1.256,7.26-7.368,12.872-14.885,13.341v-0.032v-0.01v-1.395
					c6.644-0.415,12.095-5.228,13.458-11.573v-0.01v-0.01c0.223-0.256,0.543-0.384,0.926-0.384
					C235.832,323.01,235.992,323.031,236.173,323.085z"/>
				<path style="fill:#ED2064;" d="M221.287,336.171v0.477v1.317c0,0.415,0.337,0.752,0.752,0.752h29.839
					c1.505-0.328,1.481-2.065,1.444-2.546H221.287z"/>
				<path style="fill:#0391DA;" d="M236.173,323.085c-1.256,7.26-7.368,12.872-14.885,13.341v-0.032v-0.01v-1.395
					c6.644-0.415,12.095-5.228,13.458-11.573v-0.01v-0.01c0.223-0.256,0.543-0.384,0.926-0.384
					C235.832,323.01,235.992,323.031,236.173,323.085z"/>
				<path style="fill:#FA6880;" d="M239.277,330.115l3.275-0.216l-0.216-3.274c-0.055-0.836-0.784-1.475-1.621-1.42
					c-0.836,0.055-1.474,0.785-1.419,1.621l0.016,0.234l-0.234,0.016c-0.837,0.055-1.475,0.784-1.42,1.62
					C237.712,329.531,238.441,330.17,239.277,330.115z"/>
			</g>
			<g>
				<path style="fill:#3B3E54;" d="M259.379,380.88l-0.011-0.128c-0.159-4.838-4.712-4.934-4.712-4.934s-2.514,0-4.328-0.287
					c-1.814-0.286-4.425-3.247-5.952-4.838c-0.263-0.273-0.53-0.497-0.798-0.696v-16.067c0-0.452-0.366-0.819-0.818-0.819h-14.597
					c-0.451,0-0.818,0.367-0.818,0.819v21.051v0.001v5.896H259.379z"/>
				<path style="fill:#ED2064;" d="M227.344,380.88v0.477v1.317c0,0.415,0.337,0.752,0.752,0.752h29.839
					c1.505-0.328,1.48-2.065,1.444-2.546H227.344z"/>
				<path style="fill:#0391DA;" d="M227.344,381.279h32.034c0.22,0,0.399-0.179,0.399-0.399c0-0.22-0.179-0.399-0.399-0.399h-32.034
					c-0.22,0-0.399,0.179-0.399,0.399C226.945,381.1,227.124,381.279,227.344,381.279"/>
				<path style="fill:#0391DA;" d="M238.669,373.842c0,1.617-1.31,2.928-2.928,2.928c-1.617,0-2.928-1.311-2.928-2.928
					c0-1.618,1.311-2.928,2.928-2.928C237.359,370.914,238.669,372.224,238.669,373.842z"/>
			</g>
			<g>
				<path style="fill:#3B3E54;" d="M210.418,380.879l-0.012-0.127c-0.159-4.839-4.712-4.934-4.712-4.934s-2.514,0-4.328-0.287
					c-1.814-0.287-4.425-3.247-5.952-4.839c-0.263-0.273-0.53-0.496-0.798-0.695V366.2c0-0.371-0.3-0.672-0.672-0.672h-14.89
					c-0.371,0-0.672,0.301-0.672,0.672v9.11v5.569H210.418z"/>
				<path style="fill:#B3B3B3;" d="M192.097,368.617h2.961c0.294,0,0.532-0.238,0.532-0.532c0-0.294-0.238-0.532-0.532-0.532h-2.961
					c-0.294,0-0.532,0.238-0.532,0.532C191.564,368.379,191.802,368.617,192.097,368.617"/>
				<path style="fill:#B3B3B3;" d="M195.302,374.627l2.094-2.094c0.208-0.208,0.208-0.545,0-0.753c-0.208-0.208-0.545-0.208-0.753,0
					l-2.094,2.094c-0.208,0.208-0.208,0.545,0,0.753C194.757,374.835,195.094,374.835,195.302,374.627"/>
				<path style="fill:#B3B3B3;" d="M193.049,371.818l2.725-1.159c0.27-0.115,0.396-0.427,0.282-0.698
					c-0.116-0.271-0.428-0.397-0.699-0.282l-2.725,1.159c-0.27,0.114-0.396,0.427-0.281,0.698
					C192.466,371.806,192.779,371.933,193.049,371.818"/>
				<path style="fill:#FA6880;" d="M184.643,380.879c0,0.906-0.191,1.768-0.543,2.545h-4.885c-0.459,0-0.833-0.373-0.833-0.833
					v-7.973C181.843,374.618,184.643,377.418,184.643,380.879z"/>
				<path style="fill:#ED2064;" d="M178.383,380.879v0.478v1.317c0,0.415,0.337,0.752,0.752,0.752h29.839
					c1.506-0.328,1.481-2.065,1.444-2.547H178.383z"/>
				<path style="fill:#FA6880;" d="M210.418,380.879h-7.997c0-1.927,0.682-3.704,1.832-5.088c0.841,0.031,1.447,0.031,1.447,0.031
					s4.547,0.097,4.706,4.93L210.418,380.879z"/>
			</g>
			<path style="fill:#3B3E54;" d="M210.418,342.384l-0.004-0.002h0.007l-0.01-0.128c-0.098-2.96-1.843-4.14-3.183-4.612
				c-0.846-0.298-1.531-0.317-1.531-0.317h-0.044h-0.069h-0.018c-0.524-0.005-2.624-0.037-4.207-0.287
				c-1.81-0.288-4.419-3.247-5.951-4.844c-0.33-0.346-0.669-0.612-1.004-0.838V317.87H179.57v14.109
				c-0.059,0.021-0.134,0.029-0.184,0.054c-1.044,0.5-1.001,2.14-1.001,2.14v1.951h-0.002v7.973v0.082c0,0.416,0,1.817,0.752,1.817
				h3.419c0.131,0,0.236-0.106,0.236-0.237l2.129-4.153c0-0.146,0.143-0.249,0.28-0.203l13.016,4.592h10.759
				C210.479,345.667,210.454,342.866,210.418,342.384z"/>
		</g>
		<rect x="197.552" y="312.291" style="fill:#989898;" width="14.176" height="3.859"/>
		<rect x="203.973" y="317.87" style="fill:#989898;" width="7.755" height="3.859"/>
		<rect x="245.203" y="312.291" style="fill:#989898;" width="14.176" height="3.859"/>
		<rect x="251.624" y="317.87" style="fill:#989898;" width="7.755" height="3.859"/>
		<rect x="197.552" y="363.366" style="fill:#989898;" width="14.176" height="3.859"/>
		<rect x="203.973" y="368.944" style="fill:#989898;" width="7.755" height="3.859"/>
		<rect x="245.203" y="353.22" style="fill:#989898;" width="14.176" height="3.859"/>
		<rect x="251.624" y="358.799" style="fill:#989898;" width="7.755" height="3.859"/>
	</g>
	<path style="opacity:0.6;fill:#3B3E54;" d="M392.402,131.671h-55.812h-63.252c-2.727,0-4.938,2.211-4.938,4.938v9.876v94.994
		c0,2.727,2.211,4.938,4.938,4.938h1.463h117.602c2.727,0,4.938-2.211,4.938-4.938v-94.994v-9.876
		C397.34,133.882,395.129,131.671,392.402,131.671z"/>
	<path style="opacity:0.6;fill:#3B3E54;" d="M409.874,263.035h-55.812h-63.253c-2.727,0-4.938,2.211-4.938,4.938v9.876v94.994
		c0,2.727,2.211,4.938,4.938,4.938h1.463h117.602c2.727,0,4.938-2.211,4.938-4.938v-94.994v-9.876
		C414.812,265.246,412.601,263.035,409.874,263.035z"/>
	<path style="opacity:0.6;fill:#3B3E54;" d="M220.853,265.532h-55.812h-63.252c-2.727,0-4.938,2.211-4.938,4.938v9.876v94.994
		c0,2.727,2.211,4.938,4.938,4.938h1.463h117.602c2.727,0,4.938-2.211,4.938-4.938v-94.994v-9.876
		C225.791,267.743,223.58,265.532,220.853,265.532z"/>
	<path style="opacity:0.6;fill:#3B3E54;" d="M243.179,145.233h-55.812h-63.252c-2.727,0-4.938,2.211-4.938,4.938v9.876v94.994
		c0,2.727,2.211,4.938,4.938,4.938h1.463h117.602c2.727,0,4.938-2.211,4.938-4.938v-94.994v-9.876
		C248.117,147.444,245.906,145.233,243.179,145.233z"/>
	<g>
		<g>
			<path style="fill:#BFBFBF;" d="M283.829,368.688H401.43c2.727,0,4.938-2.211,4.938-4.938v-94.994H383.76L283.829,368.688z"/>
			<path style="fill:#CBCBCB;" d="M277.427,268.756v94.994c0,2.727,2.211,4.938,4.938,4.938h1.463l99.932-99.932H277.427z"/>
		</g>
		<g>
			<path style="fill:#D9D9D9;" d="M406.368,258.88c0-2.727-2.211-4.938-4.938-4.938h-55.812l-14.814,14.814h75.564V258.88z"/>
			<path style="fill:#E5E5E5;" d="M282.365,253.942c-2.727,0-4.938,2.211-4.938,4.938v9.876h53.377l14.814-14.814H282.365z"/>
		</g>
		<g>
			<path style="fill:#D64055;" d="M286.444,264.718c1.797,0,3.253-1.456,3.253-3.253h-6.506
				C283.191,263.262,284.647,264.718,286.444,264.718z"/>
			<path style="fill:#F44961;" d="M286.444,258.212c-1.797,0-3.253,1.456-3.253,3.253h6.506
				C289.697,259.668,288.24,258.212,286.444,258.212z"/>
			<path style="fill:#FF9B00;" d="M297.09,264.718c1.797,0,3.253-1.456,3.253-3.253h-6.506
				C293.837,263.262,295.294,264.718,297.09,264.718z"/>
			<path style="fill:#FFAF34;" d="M297.09,258.212c-1.797,0-3.253,1.456-3.253,3.253h6.506
				C300.343,259.668,298.887,258.212,297.09,258.212z"/>
			<path style="fill:#068C4A;" d="M307.737,264.718c1.797,0,3.253-1.456,3.253-3.253h-6.506
				C304.484,263.262,305.94,264.718,307.737,264.718z"/>
			<path style="fill:#07AA5A;" d="M307.737,258.212c-1.797,0-3.253,1.456-3.253,3.253h6.506
				C310.99,259.668,309.533,258.212,307.737,258.212z"/>
		</g>
	</g>
	<g>
		<g>
			<rect x="292.142" y="273.606" style="fill:#F1F1F1;" width="50.395" height="50.395"/>
			<rect x="344.748" y="315.646" style="fill:#F1F1F1;" width="45.795" height="45.795"/>
			<rect x="292.142" y="326.558" style="fill:#F1F1F1;" width="50.457" height="34.883"/>
			<rect x="344.748" y="273.606" style="fill:#F1F1F1;" width="45.795" height="39.57"/>
		</g>
		<g>
			<g>
				<path style="fill:#3B3E54;" d="M380.716,300.736l-0.003-0.002h0.006l-0.01-0.128c-0.098-2.961-1.843-4.14-3.183-4.613
					c-0.845-0.298-1.531-0.316-1.531-0.316l-0.044-0.001h-0.069h-0.018c-0.524-0.004-2.624-0.037-4.207-0.287
					c-1.81-0.287-4.418-3.247-5.951-4.844c-0.905-0.947-1.884-1.459-2.64-1.469c-0.384,0-0.702,0.128-0.925,0.383l-0.001,0.005
					v0.006l-0.004,0.007c-1.364,6.343-6.811,11.153-13.456,11.572v1.398v0.001v0.082c0,0.415,0.337,0.752,0.752,0.752h29.839
					C380.777,302.954,380.752,301.218,380.716,300.736z"/>
				<path style="fill:#96C9E0;" d="M363.566,289.146c-1.256,7.26-7.367,12.872-14.885,13.341v-0.032v-0.01v-1.395
					c6.644-0.415,12.095-5.228,13.458-11.573v-0.01v-0.01c0.223-0.256,0.543-0.384,0.926-0.384
					C363.225,289.071,363.385,289.092,363.566,289.146z"/>
				<path style="fill:#ED2064;" d="M348.681,302.231v0.477v1.317c0,0.415,0.337,0.752,0.752,0.752h29.839
					c1.505-0.329,1.481-2.065,1.444-2.546H348.681z"/>
				<path style="fill:#0391DA;" d="M363.566,289.146c-1.256,7.26-7.367,12.872-14.885,13.341v-0.032v-0.01v-1.395
					c6.644-0.415,12.095-5.228,13.458-11.573v-0.01v-0.01c0.223-0.256,0.543-0.384,0.926-0.384
					C363.225,289.071,363.385,289.092,363.566,289.146z"/>
				<path style="fill:#FA6880;" d="M366.67,296.176l3.275-0.216l-0.216-3.274c-0.055-0.836-0.784-1.475-1.621-1.42
					c-0.836,0.055-1.474,0.785-1.419,1.621l0.016,0.234l-0.234,0.016c-0.837,0.055-1.475,0.784-1.42,1.62
					C365.105,295.592,365.834,296.231,366.67,296.176z"/>
			</g>
			<g>
				<path style="fill:#3B3E54;" d="M386.772,346.941l-0.012-0.128c-0.159-4.838-4.712-4.933-4.712-4.933s-2.514,0-4.328-0.287
					c-1.814-0.286-4.425-3.247-5.952-4.838c-0.263-0.273-0.53-0.497-0.798-0.696v-16.067c0-0.452-0.366-0.819-0.818-0.819h-14.597
					c-0.451,0-0.818,0.367-0.818,0.819v21.051v0.001v5.896H386.772z"/>
				<path style="fill:#ED2064;" d="M354.737,346.941v0.477v1.317c0,0.415,0.337,0.752,0.752,0.752h29.839
					c1.505-0.328,1.48-2.065,1.444-2.546H354.737z"/>
				<path style="fill:#0391DA;" d="M354.737,347.34h32.034c0.22,0,0.399-0.179,0.399-0.399c0-0.22-0.179-0.399-0.399-0.399h-32.034
					c-0.22,0-0.399,0.179-0.399,0.399C354.338,347.161,354.517,347.34,354.737,347.34"/>
				<path style="fill:#0391DA;" d="M366.062,339.903c0,1.617-1.31,2.928-2.928,2.928c-1.617,0-2.928-1.311-2.928-2.928
					c0-1.618,1.311-2.928,2.928-2.928C364.752,336.975,366.062,338.285,366.062,339.903z"/>
			</g>
			<g>
				<path style="fill:#3B3E54;" d="M337.811,346.94l-0.011-0.127c-0.159-4.839-4.712-4.933-4.712-4.933s-2.514,0-4.328-0.287
					c-1.814-0.287-4.425-3.247-5.952-4.839c-0.263-0.273-0.53-0.496-0.797-0.695v-3.798c0-0.371-0.301-0.672-0.672-0.672h-14.89
					c-0.371,0-0.672,0.301-0.672,0.672v9.11v5.569H337.811z"/>
				<path style="fill:#B3B3B3;" d="M319.49,334.678h2.961c0.294,0,0.532-0.238,0.532-0.532c0-0.294-0.238-0.532-0.532-0.532h-2.961
					c-0.294,0-0.532,0.238-0.532,0.532C318.957,334.44,319.196,334.678,319.49,334.678"/>
				<path style="fill:#B3B3B3;" d="M322.695,340.688l2.094-2.094c0.208-0.208,0.208-0.545,0-0.753c-0.208-0.208-0.545-0.208-0.753,0
					l-2.094,2.094c-0.208,0.208-0.208,0.545,0,0.753C322.15,340.896,322.487,340.896,322.695,340.688"/>
				<path style="fill:#B3B3B3;" d="M320.442,337.879l2.725-1.159c0.27-0.115,0.396-0.427,0.282-0.698
					c-0.115-0.271-0.428-0.397-0.699-0.282l-2.725,1.159c-0.27,0.114-0.396,0.427-0.281,0.698
					C319.859,337.867,320.172,337.994,320.442,337.879"/>
				<path style="fill:#FA6880;" d="M312.036,346.94c0,0.906-0.191,1.768-0.543,2.545h-4.885c-0.46,0-0.833-0.373-0.833-0.833v-7.973
					C309.236,340.68,312.036,343.479,312.036,346.94z"/>
				<path style="fill:#ED2064;" d="M305.776,346.94v0.478v1.317c0,0.415,0.337,0.752,0.752,0.752h29.839
					c1.506-0.328,1.481-2.065,1.444-2.547H305.776z"/>
				<path style="fill:#FA6880;" d="M337.811,346.94h-7.996c0-1.927,0.682-3.704,1.832-5.088c0.841,0.031,1.447,0.031,1.447,0.031
					s4.547,0.097,4.706,4.93L337.811,346.94z"/>
			</g>
			<path style="fill:#3B3E54;" d="M337.811,308.445l-0.004-0.002h0.007l-0.01-0.128c-0.098-2.96-1.843-4.14-3.183-4.612
				c-0.846-0.298-1.53-0.317-1.53-0.317h-0.044h-0.069h-0.018c-0.524-0.005-2.624-0.037-4.207-0.287
				c-1.81-0.288-4.419-3.247-5.951-4.844c-0.33-0.346-0.669-0.612-1.004-0.838v-13.486h-14.836v14.109
				c-0.059,0.021-0.134,0.029-0.184,0.054c-1.044,0.5-1.001,2.14-1.001,2.14v1.951h-0.002v7.973v0.082c0,0.416,0,1.817,0.752,1.817
				h3.419c0.131,0,0.236-0.106,0.236-0.237l2.129-4.153c0-0.146,0.143-0.249,0.28-0.203l13.016,4.592h10.759
				C337.872,311.728,337.847,308.927,337.811,308.445z"/>
		</g>
		<rect x="324.945" y="278.352" style="fill:#989898;" width="14.176" height="3.859"/>
		<rect x="331.366" y="283.931" style="fill:#989898;" width="7.755" height="3.859"/>
		<rect x="372.596" y="278.352" style="fill:#989898;" width="14.176" height="3.859"/>
		<rect x="379.017" y="283.931" style="fill:#989898;" width="7.755" height="3.859"/>
		<rect x="324.945" y="329.427" style="fill:#989898;" width="14.176" height="3.859"/>
		<rect x="331.366" y="335.005" style="fill:#989898;" width="7.755" height="3.859"/>
		<rect x="372.596" y="319.281" style="fill:#989898;" width="14.176" height="3.859"/>
		<rect x="379.017" y="324.86" style="fill:#989898;" width="7.755" height="3.859"/>
	</g>
	<g>
		<g>
			<path style="fill:#BFBFBF;" d="M97.274,373.919h117.602c2.727,0,4.938-2.211,4.938-4.938v-94.994h-22.608L97.274,373.919z"/>
			<path style="fill:#CBCBCB;" d="M90.873,273.987v94.994c0,2.727,2.211,4.938,4.938,4.938h1.463l99.932-99.932H90.873z"/>
		</g>
		<g>
			<path style="fill:#D9D9D9;" d="M219.814,264.112c0-2.727-2.211-4.938-4.938-4.938h-55.812l-14.814,14.814h75.564V264.112z"/>
			<path style="fill:#E5E5E5;" d="M95.811,259.173c-2.727,0-4.938,2.211-4.938,4.938v9.876h53.377l14.814-14.814H95.811z"/>
		</g>
		<g>
			<path style="fill:#D64055;" d="M99.889,269.949c1.797,0,3.253-1.457,3.253-3.253h-6.506
				C96.636,268.493,98.092,269.949,99.889,269.949z"/>
			<path style="fill:#F44961;" d="M99.889,263.443c-1.797,0-3.253,1.456-3.253,3.253h6.506
				C103.142,264.9,101.686,263.443,99.889,263.443z"/>
			<path style="fill:#FF9B00;" d="M110.536,269.949c1.797,0,3.253-1.457,3.253-3.253h-6.506
				C107.282,268.493,108.739,269.949,110.536,269.949z"/>
			<path style="fill:#FFAF34;" d="M110.536,263.443c-1.797,0-3.253,1.456-3.253,3.253h6.506
				C113.789,264.9,112.332,263.443,110.536,263.443z"/>
			<path style="fill:#068C4A;" d="M121.182,269.949c1.797,0,3.253-1.457,3.253-3.253h-6.506
				C117.929,268.493,119.385,269.949,121.182,269.949z"/>
			<path style="fill:#07AA5A;" d="M121.182,263.443c-1.797,0-3.253,1.456-3.253,3.253h6.506
				C124.435,264.9,122.979,263.443,121.182,263.443z"/>
		</g>
	</g>
	<g>
		<polygon style="fill:#FA6880;" points="107.659,288.233 107.659,347.279 166.705,288.233 		"/>
		<polygon style="fill:#ED2064;" points="107.659,347.279 107.659,358.463 201.039,358.463 201.039,288.233 166.705,288.233 		"/>
	</g>
	<g>
		
			<ellipse transform="matrix(0.2287 -0.9735 0.9735 0.2287 -195.3532 376.2505)" style="fill:#FFC775;" cx="139.766" cy="311.408" rx="10.741" ry="10.741"/>
		
			<ellipse transform="matrix(0.7071 -0.7071 0.7071 0.7071 -170.7193 210.6628)" style="fill:#FFC775;" cx="168.933" cy="311.408" rx="10.741" ry="10.741"/>
		
			<ellipse transform="matrix(0.2287 -0.9735 0.9735 0.2287 -184.105 390.4475)" style="fill:#FFC775;" cx="154.349" cy="311.408" rx="10.741" ry="10.741"/>
		
			<ellipse transform="matrix(0.7071 -0.7071 0.7071 0.7071 -170.1288 198.3369)" style="fill:#FFC775;" cx="154.349" cy="304.532" rx="10.741" ry="10.741"/>
	</g>
	<g>
		<path style="fill:#F1F1F1;" d="M166.024,331.333h-23.35c-9.31,0-16.857-7.547-16.857-16.857v0h57.064v0
			C182.881,323.786,175.334,331.333,166.024,331.333z"/>
		<rect x="152.131" y="327.488" style="fill:#F1F1F1;" width="4.436" height="20.997"/>
		<path style="fill:#F1F1F1;" d="M165.439,351.147h-22.18l0,0c0-2.94,2.383-5.323,5.323-5.323h11.534
			C163.056,345.824,165.439,348.207,165.439,351.147L165.439,351.147z"/>
	</g>
	<circle style="fill:#FFAD36;" cx="186.654" cy="341.762" r="8.281"/>
	<g>
		<path style="fill:#3B3E54;" d="M190.639,339.573h-7.968c-0.547,0-0.99-0.443-0.99-0.99l0,0c0-0.547,0.443-0.99,0.99-0.99h7.968
			c0.547,0,0.99,0.443,0.99,0.99l0,0C191.629,339.129,191.185,339.573,190.639,339.573z"/>
		<path style="fill:#3B3E54;" d="M190.639,342.752h-7.968c-0.547,0-0.99-0.443-0.99-0.99l0,0c0-0.547,0.443-0.99,0.99-0.99h7.968
			c0.547,0,0.99,0.443,0.99,0.99l0,0C191.629,342.309,191.185,342.752,190.639,342.752z"/>
		<path style="fill:#3B3E54;" d="M190.639,345.931h-7.968c-0.547,0-0.99-0.443-0.99-0.99l0,0c0-0.547,0.443-0.99,0.99-0.99h7.968
			c0.547,0,0.99,0.443,0.99,0.99l0,0C191.629,345.488,191.185,345.931,190.639,345.931z"/>
	</g>
	<path style="fill:#3B3E54;" d="M136.192,339.573H116.01c-0.547,0-0.99-0.443-0.99-0.99l0,0c0-0.547,0.443-0.99,0.99-0.99h20.183
		c0.547,0,0.99,0.443,0.99,0.99l0,0C137.182,339.129,136.739,339.573,136.192,339.573z"/>
	<path style="fill:#3B3E54;" d="M136.192,342.752H116.01c-0.547,0-0.99-0.443-0.99-0.99l0,0c0-0.547,0.443-0.99,0.99-0.99h20.183
		c0.547,0,0.99,0.443,0.99,0.99l0,0C137.182,342.309,136.739,342.752,136.192,342.752z"/>
	<path style="fill:#3B3E54;" d="M130.916,345.931H116.01c-0.547,0-0.99-0.443-0.99-0.99l0,0c0-0.547,0.443-0.99,0.99-0.99h14.907
		c0.547,0,0.99,0.443,0.99,0.99l0,0C131.906,345.488,131.463,345.931,130.916,345.931z"/>
	<g>
		<text transform="matrix(1 0 0 1 120.302 46.1156)" style="fill:#FFFFFF; font-family:'Milkshake'; font-size:25px;">Ad Block Popup Concept</text>
	</g>
	<g>
		<g>
			<path style="fill:#BFBFBF;" d="M118.795,253.507h117.602c2.727,0,4.938-2.211,4.938-4.938v-94.994h-22.608L118.795,253.507z"/>
			<path style="fill:#CBCBCB;" d="M112.393,153.575v94.994c0,2.727,2.211,4.938,4.938,4.938h1.463l99.932-99.932H112.393z"/>
		</g>
		<g>
			<path style="fill:#D9D9D9;" d="M241.334,143.699c0-2.727-2.211-4.938-4.938-4.938h-55.812l-14.814,14.814h75.564V143.699z"/>
			<path style="fill:#E5E5E5;" d="M117.332,138.761c-2.727,0-4.938,2.211-4.938,4.938v9.876h53.377l14.814-14.814H117.332z"/>
		</g>
		<g>
			<path style="fill:#D64055;" d="M121.41,149.537c1.797,0,3.253-1.456,3.253-3.253h-6.506
				C118.157,148.081,119.613,149.537,121.41,149.537z"/>
			<path style="fill:#F44961;" d="M121.41,143.031c-1.797,0-3.253,1.456-3.253,3.253h6.506
				C124.663,144.487,123.206,143.031,121.41,143.031z"/>
			<path style="fill:#FF9B00;" d="M132.056,149.537c1.797,0,3.253-1.456,3.253-3.253h-6.506
				C128.803,148.081,130.26,149.537,132.056,149.537z"/>
			<path style="fill:#FFAF34;" d="M132.056,143.031c-1.797,0-3.253,1.456-3.253,3.253h6.506
				C135.309,144.487,133.853,143.031,132.056,143.031z"/>
			<path style="fill:#068C4A;" d="M142.703,149.537c1.797,0,3.253-1.456,3.253-3.253h-6.506
				C139.45,148.081,140.906,149.537,142.703,149.537z"/>
			<path style="fill:#07AA5A;" d="M142.703,143.031c-1.797,0-3.253,1.456-3.253,3.253h6.506
				C145.956,144.487,144.499,143.031,142.703,143.031z"/>
		</g>
	</g>
	<g>
		<g>
			<rect x="127.108" y="158.424" style="fill:#F1F1F1;" width="50.395" height="50.395"/>
			<rect x="179.714" y="200.465" style="fill:#F1F1F1;" width="45.795" height="45.795"/>
			<rect x="127.108" y="211.377" style="fill:#F1F1F1;" width="50.457" height="34.883"/>
			<rect x="179.714" y="158.424" style="fill:#F1F1F1;" width="45.795" height="39.57"/>
		</g>
		<g>
			<g>
				<path style="fill:#3B3E54;" d="M215.682,185.555l-0.003-0.002h0.006l-0.01-0.128c-0.098-2.961-1.844-4.14-3.183-4.613
					c-0.845-0.298-1.531-0.316-1.531-0.316l-0.044-0.001h-0.069h-0.018c-0.524-0.004-2.624-0.038-4.207-0.287
					c-1.81-0.287-4.418-3.247-5.951-4.844c-0.904-0.947-1.884-1.459-2.64-1.469c-0.384,0-0.702,0.128-0.925,0.383l-0.001,0.005
					v0.006l-0.004,0.007c-1.364,6.343-6.811,11.153-13.456,11.572v1.398v0.001v0.082c0,0.415,0.337,0.752,0.752,0.752h29.839
					C215.743,187.773,215.718,186.036,215.682,185.555z"/>
				<path style="fill:#96C9E0;" d="M198.532,173.964c-1.256,7.26-7.368,12.872-14.885,13.341v-0.032v-0.01v-1.395
					c6.644-0.415,12.095-5.228,13.458-11.573v-0.01v-0.01c0.224-0.256,0.543-0.384,0.926-0.384
					C198.191,173.889,198.351,173.911,198.532,173.964z"/>
				<path style="fill:#ED2064;" d="M183.647,187.05v0.477v1.317c0,0.415,0.337,0.752,0.752,0.752h29.839
					c1.506-0.329,1.481-2.065,1.444-2.546H183.647z"/>
				<path style="fill:#0391DA;" d="M198.532,173.964c-1.256,7.26-7.368,12.872-14.885,13.341v-0.032v-0.01v-1.395
					c6.644-0.415,12.095-5.228,13.458-11.573v-0.01v-0.01c0.224-0.256,0.543-0.384,0.926-0.384
					C198.191,173.889,198.351,173.911,198.532,173.964z"/>
				<path style="fill:#FA6880;" d="M201.636,180.995l3.275-0.216l-0.216-3.274c-0.055-0.836-0.784-1.475-1.621-1.42
					c-0.836,0.055-1.474,0.785-1.419,1.621l0.016,0.234l-0.234,0.016c-0.837,0.055-1.475,0.784-1.42,1.62
					C200.071,180.411,200.8,181.05,201.636,180.995z"/>
			</g>
			<g>
				<path style="fill:#3B3E54;" d="M221.738,231.759l-0.011-0.128c-0.159-4.838-4.712-4.934-4.712-4.934s-2.514,0-4.328-0.287
					c-1.814-0.286-4.425-3.247-5.952-4.838c-0.263-0.273-0.53-0.497-0.797-0.695v-16.067c0-0.452-0.366-0.819-0.818-0.819h-14.597
					c-0.451,0-0.818,0.367-0.818,0.819v21.051v0.001v5.896H221.738z"/>
				<path style="fill:#ED2064;" d="M189.703,231.759v0.477v1.317c0,0.415,0.337,0.752,0.752,0.752h29.839
					c1.506-0.328,1.481-2.065,1.444-2.546H189.703z"/>
				<path style="fill:#0391DA;" d="M189.703,232.159h32.034c0.22,0,0.399-0.179,0.399-0.399s-0.179-0.399-0.399-0.399h-32.034
					c-0.22,0-0.399,0.179-0.399,0.399S189.483,232.159,189.703,232.159"/>
				<path style="fill:#0391DA;" d="M201.028,224.721c0,1.617-1.31,2.928-2.928,2.928c-1.617,0-2.928-1.311-2.928-2.928
					c0-1.618,1.311-2.928,2.928-2.928C199.718,221.794,201.028,223.104,201.028,224.721z"/>
			</g>
			<g>
				<path style="fill:#3B3E54;" d="M172.777,231.758l-0.011-0.127c-0.159-4.839-4.712-4.934-4.712-4.934s-2.514,0-4.328-0.287
					c-1.814-0.287-4.425-3.247-5.952-4.839c-0.263-0.273-0.53-0.496-0.798-0.695v-3.798c0-0.371-0.301-0.672-0.672-0.672h-14.89
					c-0.371,0-0.672,0.301-0.672,0.672v9.11v5.569H172.777z"/>
				<path style="fill:#B3B3B3;" d="M154.456,219.497h2.961c0.294,0,0.532-0.238,0.532-0.532c0-0.294-0.238-0.532-0.532-0.532h-2.961
					c-0.294,0-0.532,0.238-0.532,0.532C153.923,219.259,154.162,219.497,154.456,219.497"/>
				<path style="fill:#B3B3B3;" d="M157.661,225.507l2.094-2.094c0.208-0.208,0.208-0.545,0-0.753c-0.208-0.208-0.545-0.208-0.753,0
					l-2.094,2.094c-0.208,0.208-0.208,0.545,0,0.753C157.116,225.714,157.453,225.714,157.661,225.507"/>
				<path style="fill:#B3B3B3;" d="M155.408,222.697l2.725-1.159c0.27-0.115,0.396-0.427,0.282-0.698
					c-0.115-0.271-0.428-0.397-0.699-0.282l-2.725,1.159c-0.27,0.114-0.396,0.427-0.281,0.698
					C154.825,222.686,155.138,222.813,155.408,222.697"/>
				<path style="fill:#FA6880;" d="M147.002,231.758c0,0.906-0.191,1.767-0.543,2.545h-4.885c-0.46,0-0.833-0.373-0.833-0.833
					v-7.973C144.202,225.498,147.002,228.298,147.002,231.758z"/>
				<path style="fill:#ED2064;" d="M140.742,231.758v0.478v1.317c0,0.415,0.337,0.752,0.752,0.752h29.839
					c1.506-0.328,1.48-2.065,1.444-2.547H140.742z"/>
				<path style="fill:#FA6880;" d="M172.777,231.758h-7.997c0-1.927,0.682-3.705,1.832-5.088c0.841,0.031,1.447,0.031,1.447,0.031
					s4.547,0.097,4.706,4.93L172.777,231.758z"/>
			</g>
			<path style="fill:#3B3E54;" d="M172.777,193.264l-0.004-0.002h0.007l-0.01-0.128c-0.098-2.96-1.844-4.14-3.183-4.612
				c-0.846-0.298-1.531-0.317-1.531-0.317h-0.044h-0.069h-0.018c-0.524-0.005-2.624-0.037-4.207-0.287
				c-1.81-0.288-4.419-3.247-5.951-4.844c-0.33-0.346-0.668-0.612-1.004-0.838V168.75h-14.836v14.109
				c-0.059,0.021-0.134,0.029-0.184,0.054c-1.044,0.5-1.001,2.14-1.001,2.14v1.951h-0.002v7.973v0.082c0,0.416,0,1.817,0.752,1.817
				h3.419c0.131,0,0.236-0.106,0.236-0.237l2.129-4.153c0-0.146,0.142-0.248,0.28-0.203l13.016,4.592h10.759
				C172.838,196.547,172.813,193.746,172.777,193.264z"/>
		</g>
		<rect x="159.911" y="163.171" style="fill:#989898;" width="14.176" height="3.859"/>
		<rect x="166.332" y="168.75" style="fill:#989898;" width="7.755" height="3.859"/>
		<rect x="207.562" y="163.171" style="fill:#989898;" width="14.176" height="3.859"/>
		<rect x="213.983" y="168.75" style="fill:#989898;" width="7.755" height="3.859"/>
		<rect x="159.911" y="214.246" style="fill:#989898;" width="14.176" height="3.859"/>
		<rect x="166.332" y="219.824" style="fill:#989898;" width="7.755" height="3.859"/>
		<rect x="207.562" y="204.1" style="fill:#989898;" width="14.176" height="3.859"/>
		<rect x="213.983" y="209.679" style="fill:#989898;" width="7.755" height="3.859"/>
	</g>
	<g>
		<g>
			<path style="fill:#BFBFBF;" d="M266.239,237.746H383.84c2.727,0,4.938-2.211,4.938-4.938v-94.994h-22.608L266.239,237.746z"/>
			<path style="fill:#CBCBCB;" d="M259.837,137.814v94.994c0,2.727,2.211,4.938,4.938,4.938h1.463l99.932-99.932H259.837z"/>
		</g>
		<g>
			<path style="fill:#D9D9D9;" d="M388.778,127.938c0-2.727-2.211-4.938-4.938-4.938h-55.812l-14.814,14.814h75.564V127.938z"/>
			<path style="fill:#E5E5E5;" d="M264.775,123c-2.727,0-4.938,2.211-4.938,4.938v9.876h53.377L328.028,123H264.775z"/>
		</g>
		<g>
			<path style="fill:#D64055;" d="M268.854,133.776c1.797,0,3.253-1.456,3.253-3.253h-6.506
				C265.601,132.32,267.057,133.776,268.854,133.776z"/>
			<path style="fill:#F44961;" d="M268.854,127.27c-1.797,0-3.253,1.456-3.253,3.253h6.506
				C272.107,128.726,270.65,127.27,268.854,127.27z"/>
			<path style="fill:#FF9B00;" d="M279.5,133.776c1.797,0,3.253-1.456,3.253-3.253h-6.506
				C276.247,132.32,277.704,133.776,279.5,133.776z"/>
			<path style="fill:#FFAF34;" d="M279.5,127.27c-1.797,0-3.253,1.456-3.253,3.253h6.506
				C282.753,128.726,281.297,127.27,279.5,127.27z"/>
			<path style="fill:#068C4A;" d="M290.147,133.776c1.797,0,3.253-1.456,3.253-3.253h-6.506
				C286.894,132.32,288.35,133.776,290.147,133.776z"/>
			<path style="fill:#07AA5A;" d="M290.147,127.27c-1.797,0-3.253,1.456-3.253,3.253h6.506
				C293.4,128.726,291.943,127.27,290.147,127.27z"/>
		</g>
	</g>
	<g>
		<polygon style="fill:#FFAD36;" points="314.561,150.439 275.955,189.044 275.955,221.415 372.661,221.415 372.661,150.439 		"/>
		<polygon style="fill:#FFC775;" points="275.955,150.439 275.955,189.044 314.561,150.439 		"/>
	</g>
	<path style="fill:#57596E;" d="M358.891,165.551h-69.728c-1.254,0-2.27-1.016-2.27-2.27l0,0c0-1.253,1.016-2.27,2.27-2.27h69.728
		c1.253,0,2.27,1.016,2.27,2.27l0,0C361.16,164.535,360.144,165.551,358.891,165.551z"/>
	<path style="fill:#57596E;" d="M358.891,173.536h-69.728c-1.254,0-2.27-1.016-2.27-2.27l0,0c0-1.253,1.016-2.27,2.27-2.27h69.728
		c1.253,0,2.27,1.016,2.27,2.27l0,0C361.16,172.52,360.144,173.536,358.891,173.536z"/>
	<path style="fill:#57596E;" d="M358.891,181.521h-69.728c-1.254,0-2.27-1.016-2.27-2.27l0,0c0-1.254,1.016-2.27,2.27-2.27h69.728
		c1.253,0,2.27,1.016,2.27,2.27l0,0C361.16,180.505,360.144,181.521,358.891,181.521z"/>
	<path style="fill:#57596E;" d="M358.891,189.506h-69.728c-1.254,0-2.27-1.016-2.27-2.27v0c0-1.253,1.016-2.27,2.27-2.27h69.728
		c1.253,0,2.27,1.016,2.27,2.27v0C361.16,188.49,360.144,189.506,358.891,189.506z"/>
	<path style="fill:#57596E;" d="M358.891,197.491h-69.728c-1.254,0-2.27-1.016-2.27-2.27l0,0c0-1.253,1.016-2.27,2.27-2.27h69.728
		c1.253,0,2.27,1.016,2.27,2.27l0,0C361.16,196.475,360.144,197.491,358.891,197.491z"/>
	<path style="fill:#57596E;" d="M328.916,205.476h-39.753c-1.254,0-2.27-1.016-2.27-2.27l0,0c0-1.253,1.016-2.27,2.27-2.27h39.753
		c1.254,0,2.27,1.016,2.27,2.27l0,0C331.186,204.46,330.17,205.476,328.916,205.476z"/>
	<path style="opacity:0.6;fill:#3B3E54;" d="M377.206,284.086h-55.812h-63.252c-2.727,0-4.938,2.211-4.938,4.938v9.876v94.994
		c0,2.727,2.211,4.938,4.938,4.938h1.463h117.602c2.727,0,4.938-2.211,4.938-4.938V298.9v-9.876
		C382.144,286.297,379.933,284.086,377.206,284.086z"/>
	<g>
		<g>
			<path style="fill:#BFBFBF;" d="M253.527,390.77h117.602c2.727,0,4.938-2.211,4.938-4.938v-94.994h-22.608L253.527,390.77z"/>
			<path style="fill:#CBCBCB;" d="M247.126,290.838v94.994c0,2.727,2.211,4.938,4.938,4.938h1.463l99.932-99.932H247.126z"/>
		</g>
		<g>
			<path style="fill:#D9D9D9;" d="M376.067,280.963c0-2.727-2.211-4.938-4.938-4.938h-55.812l-14.814,14.814h75.564V280.963z"/>
			<path style="fill:#E5E5E5;" d="M252.064,276.025c-2.727,0-4.938,2.211-4.938,4.938v9.876h53.377l14.814-14.814H252.064z"/>
		</g>
		<g>
			<path style="fill:#D64055;" d="M256.142,286.801c1.797,0,3.253-1.456,3.253-3.253h-6.506
				C252.889,285.344,254.346,286.801,256.142,286.801z"/>
			<path style="fill:#F44961;" d="M256.142,280.294c-1.797,0-3.253,1.456-3.253,3.253h6.506
				C259.395,281.751,257.939,280.294,256.142,280.294z"/>
			<path style="fill:#FF9B00;" d="M266.789,286.801c1.797,0,3.253-1.456,3.253-3.253h-6.506
				C263.536,285.344,264.992,286.801,266.789,286.801z"/>
			<path style="fill:#FFAF34;" d="M266.789,280.294c-1.797,0-3.253,1.456-3.253,3.253h6.506
				C270.042,281.751,268.585,280.294,266.789,280.294z"/>
			<path style="fill:#068C4A;" d="M277.435,286.801c1.797,0,3.253-1.456,3.253-3.253h-6.506
				C274.182,285.344,275.639,286.801,277.435,286.801z"/>
			<path style="fill:#07AA5A;" d="M277.435,280.294c-1.797,0-3.253,1.456-3.253,3.253h6.506
				C280.688,281.751,279.232,280.294,277.435,280.294z"/>
		</g>
	</g>
	<g>
		<g>
			<polygon style="fill:#FFC775;" points="257.917,301.992 257.917,379.616 271.759,379.616 349.383,301.992 			"/>
			<polygon style="fill:#FFAD36;" points="364.739,301.992 349.383,301.992 271.759,379.616 364.739,379.616 			"/>
		</g>
		
			<text transform="matrix(1 0 0 1 269.6152 349.0127)" style="fill:#FFFFFF; font-family:'BebasNeueRegular'; font-size:32.0955px;">50% OFF</text>
		<polygon style="fill:#FFFFFF;" points="349.383,311.284 350.22,315.025 353.96,315.861 350.22,316.698 349.383,320.439 
			348.546,316.698 344.806,315.861 348.546,315.025 		"/>
		<polygon style="fill:#FFFFFF;" points="274.182,356.697 275.019,360.437 278.759,361.274 275.019,362.111 274.182,365.851 
			273.345,362.111 269.605,361.274 273.345,360.437 		"/>
		<polygon style="fill:#FFFFFF;" points="285.661,358.83 286.923,364.47 292.562,365.731 286.923,366.993 285.661,372.633 
			284.399,366.993 278.759,365.731 284.399,364.47 		"/>
		<polygon style="fill:#FFFFFF;" points="341.459,307.203 342.205,310.538 345.541,311.284 342.205,312.03 341.459,315.366 
			340.713,312.03 337.377,311.284 340.713,310.538 		"/>
	</g>
	<path style="opacity:0.6;fill:#3B3E54;" d="M268.663,245.38h-55.812h-63.252c-2.727,0-4.938,2.211-4.938,4.938v9.876v94.994
		c0,2.727,2.211,4.938,4.938,4.938h1.463h117.602c2.727,0,4.938-2.211,4.938-4.938v-94.994v-9.876
		C273.601,247.591,271.39,245.38,268.663,245.38z"/>
	<g>
		<g>
			<path style="fill:#BFBFBF;" d="M144.241,352.762h117.602c2.727,0,4.938-2.211,4.938-4.938V252.83h-22.608L144.241,352.762z"/>
			<path style="fill:#CBCBCB;" d="M137.84,252.83v94.994c0,2.727,2.211,4.938,4.938,4.938h1.463l99.932-99.932H137.84z"/>
		</g>
		<g>
			<path style="fill:#D9D9D9;" d="M266.781,242.954c0-2.727-2.211-4.938-4.938-4.938H206.03l-14.814,14.814h75.564V242.954z"/>
			<path style="fill:#E5E5E5;" d="M142.778,238.016c-2.727,0-4.938,2.211-4.938,4.938v9.876h53.377l14.814-14.814H142.778z"/>
		</g>
		<g>
			<path style="fill:#D64055;" d="M146.856,248.792c1.797,0,3.253-1.456,3.253-3.253h-6.506
				C143.603,247.335,145.059,248.792,146.856,248.792z"/>
			<path style="fill:#F44961;" d="M146.856,242.286c-1.797,0-3.253,1.456-3.253,3.253h6.506
				C150.109,243.742,148.653,242.286,146.856,242.286z"/>
			<path style="fill:#FF9B00;" d="M157.502,248.792c1.797,0,3.253-1.456,3.253-3.253h-6.506
				C154.249,247.335,155.706,248.792,157.502,248.792z"/>
			<path style="fill:#FFAF34;" d="M157.502,242.286c-1.797,0-3.253,1.456-3.253,3.253h6.506
				C160.756,243.742,159.299,242.286,157.502,242.286z"/>
			<path style="fill:#068C4A;" d="M168.149,248.792c1.797,0,3.253-1.456,3.253-3.253h-6.506
				C164.896,247.335,166.352,248.792,168.149,248.792z"/>
			<path style="fill:#07AA5A;" d="M168.149,242.286c-1.797,0-3.253,1.456-3.253,3.253h6.506
				C171.402,243.742,169.946,242.286,168.149,242.286z"/>
		</g>
	</g>
	<g>
		<polygon style="fill:#239FDE;" points="157.038,268.437 157.038,314.446 203.046,268.437 		"/>
		<polygon style="fill:#0391DA;" points="203.046,268.437 157.038,314.446 157.038,340.893 246.198,340.893 246.198,268.437 		"/>
	</g>
	<path style="fill:#FFFFFF;" d="M208.848,289.582h-10.706c0,2.442-2.747,4.422-6.137,4.422s-6.137-1.98-6.137-4.422h-10.707h-8.855
		v11.977h8.855v29.721h33.686V301.56h8.855v-11.977H208.848z"/>
	<rect x="185.572" y="304.665" style="fill:#3B3E54;" width="12.125" height="18.927"/>
	<path style="fill:#3B3E54;" d="M239.589,276.57h-72.293c-0.547,0-0.99-0.443-0.99-0.99l0,0c0-0.547,0.443-0.99,0.99-0.99h72.293
		c0.547,0,0.99,0.443,0.99,0.99l0,0C240.579,276.127,240.136,276.57,239.589,276.57z"/>
	<path style="fill:#3B3E54;" d="M239.589,280.174h-72.293c-0.547,0-0.99-0.443-0.99-0.99l0,0c0-0.547,0.443-0.99,0.99-0.99h72.293
		c0.547,0,0.99,0.443,0.99,0.99l0,0C240.579,279.731,240.136,280.174,239.589,280.174z"/>
	<path style="fill:#3B3E54;" d="M206.042,283.779h-38.745c-0.547,0-0.99-0.443-0.99-0.99l0,0c0-0.547,0.443-0.99,0.99-0.99h38.745
		c0.547,0,0.99,0.443,0.99,0.99l0,0C207.032,283.335,206.589,283.779,206.042,283.779z"/>
	<polygon style="fill:#3B3E54;" points="213.694,321.67 217.641,318.625 215.744,314.015 220.686,313.357 221.344,308.415 
		225.954,310.312 228.999,306.366 232.043,310.312 236.653,308.415 237.311,313.358 242.254,314.015 240.356,318.625 
		244.303,321.67 240.356,324.715 242.254,329.325 237.311,329.982 236.653,334.925 232.043,333.028 228.999,336.974 
		225.954,333.028 221.344,334.925 220.686,329.982 215.743,329.324 217.641,324.715 	"/>
	<text transform="matrix(1 0 0 1 220.7212 325.832)" style="fill:#FFFFFF; font-family:'BebasNeueRegular'; font-size:11.1035px;">SALE</text>
	<path style="opacity:0.6;fill:#3B3E54;" d="M382.326,200.516h-55.812h-63.253c-2.727,0-4.938,2.211-4.938,4.938v9.876v94.994
		c0,2.727,2.211,4.938,4.938,4.938h1.463h117.602c2.727,0,4.938-2.211,4.938-4.938v-94.994v-9.876
		C387.264,202.726,385.053,200.516,382.326,200.516z"/>
	<g>
		<g>
			<path style="fill:#BFBFBF;" d="M256.739,307.276h117.602c2.727,0,4.938-2.211,4.938-4.938v-94.994h-22.608L256.739,307.276z"/>
			<path style="fill:#CBCBCB;" d="M250.338,207.344v94.994c0,2.727,2.211,4.938,4.938,4.938h1.463l99.932-99.932H250.338z"/>
		</g>
		<g>
			<path style="fill:#D9D9D9;" d="M379.279,197.469c0-2.727-2.211-4.938-4.938-4.938h-55.812l-14.814,14.814h75.564V197.469z"/>
			<path style="fill:#E5E5E5;" d="M255.276,192.531c-2.727,0-4.938,2.211-4.938,4.938v9.876h53.377l14.814-14.814H255.276z"/>
		</g>
		<g>
			<path style="fill:#D64055;" d="M259.354,203.307c1.797,0,3.253-1.456,3.253-3.253h-6.506
				C256.101,201.85,257.558,203.307,259.354,203.307z"/>
			<path style="fill:#F44961;" d="M259.354,196.8c-1.797,0-3.253,1.456-3.253,3.253h6.506
				C262.607,198.257,261.151,196.8,259.354,196.8z"/>
			<path style="fill:#FF9B00;" d="M270.001,203.307c1.797,0,3.253-1.456,3.253-3.253h-6.506
				C266.748,201.85,268.204,203.307,270.001,203.307z"/>
			<path style="fill:#FFAF34;" d="M270.001,196.8c-1.797,0-3.253,1.456-3.253,3.253h6.506
				C273.254,198.257,271.797,196.8,270.001,196.8z"/>
			<path style="fill:#068C4A;" d="M280.647,203.307c1.797,0,3.253-1.456,3.253-3.253h-6.506
				C277.394,201.85,278.851,203.307,280.647,203.307z"/>
			<path style="fill:#07AA5A;" d="M280.647,196.8c-1.797,0-3.253,1.456-3.253,3.253h6.506
				C283.9,198.257,282.444,196.8,280.647,196.8z"/>
		</g>
	</g>
	<g>
		<polygon style="fill:#FA6880;" points="267.125,221.59 267.125,280.636 326.17,221.59 		"/>
		<polygon style="fill:#ED2064;" points="267.125,280.636 267.125,291.821 360.504,291.821 360.504,221.59 326.17,221.59 		"/>
	</g>
	<g>
		
			<ellipse transform="matrix(0.6199 -0.7847 0.7847 0.6199 -78.3281 327.8207)" style="fill:#FFC775;" cx="299.231" cy="244.765" rx="10.741" ry="10.741"/>
		
			<ellipse transform="matrix(0.8941 -0.4479 0.4479 0.8941 -74.8512 173.0348)" style="fill:#FFC775;" cx="328.398" cy="244.765" rx="10.741" ry="10.741"/>
		
			<ellipse transform="matrix(0.7071 -0.7071 0.7071 0.7071 -81.1609 293.5904)" style="fill:#FFC775;" cx="313.815" cy="244.765" rx="10.741" ry="10.741"/>
		<circle style="fill:#FFC775;" cx="313.815" cy="237.889" r="10.741"/>
	</g>
	<g>
		<path style="fill:#F1F1F1;" d="M325.489,264.69h-23.35c-9.31,0-16.857-7.547-16.857-16.857v0h57.064v0
			C342.346,257.143,334.799,264.69,325.489,264.69z"/>
		<rect x="311.596" y="260.846" style="fill:#F1F1F1;" width="4.436" height="20.997"/>
		<path style="fill:#F1F1F1;" d="M324.905,284.505h-22.18l0,0c0-2.94,2.383-5.323,5.323-5.323h11.534
			C322.521,279.181,324.905,281.565,324.905,284.505L324.905,284.505z"/>
	</g>
	<circle style="fill:#FFAD36;" cx="346.119" cy="275.119" r="8.281"/>
	<g>
		<path style="fill:#3B3E54;" d="M350.104,272.93h-7.968c-0.547,0-0.99-0.443-0.99-0.99l0,0c0-0.547,0.443-0.99,0.99-0.99h7.968
			c0.547,0,0.99,0.443,0.99,0.99l0,0C351.094,272.487,350.651,272.93,350.104,272.93z"/>
		<path style="fill:#3B3E54;" d="M350.104,276.109h-7.968c-0.547,0-0.99-0.443-0.99-0.99l0,0c0-0.547,0.443-0.99,0.99-0.99h7.968
			c0.547,0,0.99,0.443,0.99,0.99l0,0C351.094,275.666,350.651,276.109,350.104,276.109z"/>
		<path style="fill:#3B3E54;" d="M350.104,279.288h-7.968c-0.547,0-0.99-0.443-0.99-0.99l0,0c0-0.547,0.443-0.99,0.99-0.99h7.968
			c0.547,0,0.99,0.443,0.99,0.99l0,0C351.094,278.845,350.651,279.288,350.104,279.288z"/>
	</g>
	<path style="fill:#3B3E54;" d="M295.657,272.93h-20.183c-0.547,0-0.99-0.443-0.99-0.99l0,0c0-0.547,0.443-0.99,0.99-0.99h20.183
		c0.547,0,0.99,0.443,0.99,0.99l0,0C296.647,272.487,296.204,272.93,295.657,272.93z"/>
	<path style="fill:#3B3E54;" d="M295.657,276.109h-20.183c-0.547,0-0.99-0.443-0.99-0.99l0,0c0-0.547,0.443-0.99,0.99-0.99h20.183
		c0.547,0,0.99,0.443,0.99,0.99l0,0C296.647,275.666,296.204,276.109,295.657,276.109z"/>
	<path style="fill:#3B3E54;" d="M290.381,279.288h-14.906c-0.547,0-0.99-0.443-0.99-0.99l0,0c0-0.547,0.443-0.99,0.99-0.99h14.906
		c0.547,0,0.99,0.443,0.99,0.99l0,0C291.371,278.845,290.928,279.288,290.381,279.288z"/>
	<path style="opacity:0.6;fill:#3B3E54;" d="M258.305,130.985c-71.222,0-128.958,57.737-128.958,128.958
		s57.736,128.958,128.958,128.958s128.958-57.737,128.958-128.958S329.527,130.985,258.305,130.985z M258.305,150.971
		c27.275,0,52.209,10.021,71.323,26.581L175.915,331.265c-16.56-19.113-26.581-44.048-26.581-71.323
		C149.334,199.76,198.122,150.971,258.305,150.971z M258.305,368.914c-27.581,0-52.765-10.252-71.96-27.147L340.13,187.983
		c16.895,19.196,27.147,44.379,27.147,71.96C367.277,320.126,318.489,368.914,258.305,368.914z"/>
	<path style="fill:#FE5E5A;" d="M250.321,123c-71.221,0-128.958,57.736-128.958,128.958s57.736,128.958,128.958,128.958
		s128.958-57.736,128.958-128.958S321.542,123,250.321,123z M250.321,360.929c-60.183,0-108.971-48.788-108.971-108.971
		s48.788-108.971,108.971-108.971c60.183,0,108.971,48.788,108.971,108.971S310.504,360.929,250.321,360.929z"/>
	
		<rect x="243.235" y="128.958" transform="matrix(0.7071 0.7071 -0.7071 0.7071 250.9243 -103.6975)" style="fill:#FE5E5A;" width="14.802" height="244.168"/>
</g>
<g id="DESIGNED_BY_FREEPIK">
	<g id="XMLID_76_">
		<g id="XMLID_929_">
			<path id="XMLID_958_" style="fill:#FFFFFF;" d="M181.087,472.134c-0.246,0-0.435,0.085-0.567,0.255
				c-0.133,0.17-0.199,0.421-0.199,0.753v2.392c-0.305-0.331-0.617-0.579-0.937-0.739c-0.321-0.159-0.715-0.24-1.182-0.24
				c-0.807,0-1.458,0.283-1.953,0.848c-0.494,0.566-0.742,1.356-0.742,2.369c0,0.478,0.063,0.923,0.187,1.335
				c0.124,0.412,0.307,0.77,0.549,1.074c0.241,0.305,0.527,0.539,0.857,0.703c0.33,0.164,0.689,0.246,1.078,0.246
				c0.293,0,0.563-0.04,0.809-0.122c0.248-0.08,0.477-0.199,0.689-0.356c0.212-0.156,0.427-0.359,0.644-0.608v0.16
				c0,0.297,0.072,0.525,0.217,0.685c0.145,0.161,0.328,0.24,0.549,0.24c0.226,0,0.409-0.077,0.552-0.231
				c0.143-0.154,0.214-0.386,0.214-0.694v-7.146c0-0.305-0.066-0.534-0.199-0.691C181.521,472.212,181.332,472.134,181.087,472.134z
				 M180.021,478.974c-0.14,0.306-0.328,0.533-0.563,0.682c-0.236,0.149-0.496,0.223-0.781,0.223c-0.281,0-0.539-0.079-0.777-0.236
				c-0.237-0.155-0.424-0.387-0.561-0.696c-0.136-0.309-0.204-0.682-0.204-1.122c0-0.415,0.063-0.78,0.193-1.095
				c0.128-0.315,0.309-0.556,0.543-0.724c0.233-0.168,0.499-0.253,0.795-0.253c0.285,0,0.547,0.082,0.786,0.246
				c0.239,0.165,0.429,0.402,0.569,0.712c0.141,0.311,0.21,0.682,0.21,1.114C180.232,478.284,180.162,478.667,180.021,478.974z"/>
			<path id="XMLID_954_" style="fill:#FFFFFF;" d="M188.452,478.054c0.233-0.122,0.35-0.385,0.35-0.793
				c0-0.438-0.114-0.87-0.339-1.294c-0.225-0.423-0.564-0.769-1.018-1.035c-0.453-0.268-0.996-0.4-1.628-0.4
				c-0.487,0-0.93,0.078-1.33,0.234c-0.4,0.157-0.737,0.381-1.009,0.674c-0.273,0.293-0.48,0.644-0.623,1.054
				c-0.143,0.409-0.214,0.853-0.214,1.332c0,1.017,0.289,1.822,0.867,2.415c0.577,0.592,1.387,0.89,2.427,0.89
				c0.455,0,0.858-0.059,1.207-0.178c0.352-0.12,0.641-0.268,0.873-0.448c0.231-0.18,0.404-0.368,0.519-0.564
				c0.115-0.197,0.172-0.367,0.172-0.514c0-0.166-0.052-0.294-0.155-0.386c-0.102-0.09-0.237-0.137-0.403-0.137
				c-0.154,0-0.273,0.035-0.356,0.107c-0.203,0.19-0.366,0.34-0.493,0.452c-0.126,0.111-0.265,0.215-0.415,0.312
				c-0.15,0.098-0.305,0.167-0.466,0.214c-0.16,0.045-0.337,0.067-0.531,0.067c-0.289,0-0.553-0.07-0.792-0.213
				c-0.239-0.142-0.432-0.354-0.576-0.635c-0.145-0.281-0.219-0.605-0.222-0.973h3.168
				C187.89,478.235,188.219,478.174,188.452,478.054z M184.297,477.315c0.056-0.546,0.212-0.959,0.472-1.238
				c0.259-0.28,0.59-0.418,0.994-0.418c0.423,0,0.764,0.137,1.024,0.412c0.259,0.275,0.409,0.69,0.448,1.244H184.297z"/>
			<path id="XMLID_952_" style="fill:#FFFFFF;" d="M193.879,477.617c-0.319-0.17-0.729-0.316-1.231-0.439
				c-0.425-0.103-0.756-0.19-0.997-0.261c-0.242-0.07-0.434-0.16-0.577-0.27c-0.142-0.109-0.213-0.248-0.213-0.419
				c0-0.186,0.096-0.341,0.29-0.465c0.194-0.126,0.437-0.187,0.73-0.187c0.286,0,0.511,0.047,0.677,0.142
				c0.166,0.095,0.31,0.222,0.433,0.38c0.151,0.19,0.284,0.332,0.401,0.427c0.116,0.095,0.258,0.143,0.423,0.143
				c0.231,0,0.408-0.06,0.532-0.178c0.124-0.119,0.186-0.271,0.186-0.457c0-0.171-0.058-0.345-0.175-0.523
				c-0.116-0.178-0.286-0.34-0.51-0.486c-0.223-0.146-0.502-0.264-0.837-0.35c-0.333-0.088-0.71-0.131-1.13-0.131
				c-0.535,0-0.99,0.085-1.367,0.259c-0.378,0.172-0.665,0.403-0.859,0.691c-0.194,0.289-0.291,0.596-0.291,0.92
				c0,0.364,0.105,0.671,0.315,0.92c0.21,0.249,0.489,0.45,0.84,0.602c0.35,0.152,0.804,0.298,1.362,0.436
				c0.494,0.12,0.849,0.244,1.066,0.375c0.216,0.131,0.323,0.338,0.323,0.622c0,0.187-0.104,0.352-0.311,0.497
				c-0.208,0.144-0.474,0.216-0.798,0.216c-0.4,0-0.715-0.071-0.947-0.213c-0.231-0.143-0.431-0.358-0.597-0.647
				c-0.082-0.15-0.17-0.267-0.261-0.35c-0.091-0.082-0.221-0.124-0.391-0.124c-0.194,0-0.355,0.064-0.481,0.19
				c-0.128,0.126-0.19,0.278-0.19,0.456c0,0.27,0.099,0.537,0.297,0.805c0.198,0.266,0.505,0.489,0.92,0.667
				c0.415,0.178,0.914,0.267,1.495,0.267c0.61,0,1.127-0.082,1.552-0.246c0.425-0.164,0.747-0.406,0.964-0.724
				c0.218-0.319,0.327-0.702,0.327-1.149c0-0.297-0.082-0.56-0.246-0.791C194.438,477.988,194.196,477.787,193.879,477.617z"/>
			<path id="XMLID_950_" style="fill:#FFFFFF;" d="M196.486,474.543c-0.237,0-0.43,0.081-0.578,0.243
				c-0.149,0.162-0.222,0.404-0.222,0.724v4.635c0,0.317,0.073,0.56,0.222,0.73c0.148,0.17,0.341,0.255,0.578,0.255
				c0.238,0,0.433-0.083,0.588-0.249c0.154-0.166,0.231-0.412,0.231-0.737v-4.682c0-0.289-0.077-0.514-0.231-0.677
				C196.919,474.624,196.724,474.543,196.486,474.543z"/>
			<path id="XMLID_949_" style="fill:#FFFFFF;" d="M196.504,472.204c-0.217,0-0.409,0.073-0.573,0.223
				c-0.164,0.149-0.246,0.337-0.246,0.567c0,0.254,0.08,0.45,0.24,0.588c0.16,0.139,0.353,0.208,0.579,0.208
				c0.217,0,0.405-0.071,0.563-0.211c0.158-0.14,0.238-0.335,0.238-0.585c0-0.257-0.081-0.453-0.243-0.588
				C196.9,472.272,196.714,472.204,196.504,472.204z"/>
			<path id="XMLID_945_" style="fill:#FFFFFF;" d="M203.626,474.543c-0.217,0-0.395,0.078-0.535,0.231
				c-0.139,0.155-0.208,0.372-0.208,0.653v0.22c-0.289-0.376-0.602-0.652-0.937-0.829c-0.337-0.175-0.735-0.264-1.194-0.264
				c-0.384,0-0.736,0.068-1.056,0.204c-0.32,0.137-0.604,0.34-0.849,0.609c-0.245,0.268-0.433,0.599-0.566,0.992
				c-0.133,0.391-0.199,0.831-0.199,1.318c0,0.653,0.109,1.228,0.327,1.727c0.217,0.499,0.529,0.886,0.934,1.163
				c0.407,0.277,0.88,0.416,1.422,0.416c0.45,0,0.84-0.091,1.165-0.273c0.327-0.182,0.615-0.447,0.864-0.796
				c-0.008,0.531-0.02,0.915-0.035,1.155c-0.016,0.24-0.07,0.464-0.163,0.673c-0.093,0.21-0.255,0.374-0.486,0.49
				c-0.231,0.117-0.557,0.175-0.977,0.175c-0.205,0-0.388-0.02-0.546-0.056c-0.159-0.038-0.294-0.095-0.406-0.172
				c-0.112-0.078-0.216-0.17-0.309-0.279c-0.093-0.109-0.183-0.217-0.27-0.324c-0.178-0.209-0.386-0.314-0.624-0.314
				c-0.189,0-0.352,0.062-0.486,0.187c-0.135,0.124-0.202,0.285-0.202,0.483c0,0.262,0.119,0.516,0.356,0.763
				c0.238,0.247,0.576,0.449,1.014,0.605c0.439,0.156,0.938,0.234,1.496,0.234c0.609,0,1.119-0.061,1.528-0.184
				c0.409-0.122,0.741-0.311,0.994-0.563c0.253-0.254,0.437-0.574,0.552-0.961c0.115-0.389,0.173-0.851,0.173-1.389v-4.706
				c0-0.384-0.051-0.678-0.155-0.882C204.146,474.645,203.938,474.543,203.626,474.543z M202.599,478.908
				c-0.151,0.291-0.345,0.508-0.586,0.653c-0.239,0.144-0.493,0.217-0.762,0.217c-0.455,0-0.826-0.168-1.113-0.505
				c-0.287-0.336-0.43-0.834-0.43-1.49c0-0.649,0.139-1.15,0.418-1.502s0.649-0.528,1.113-0.528c0.475,0,0.857,0.184,1.148,0.553
				c0.291,0.367,0.436,0.882,0.436,1.543C202.825,478.265,202.749,478.617,202.599,478.908z"/>
			<path id="XMLID_944_" style="fill:#FFFFFF;" d="M210.978,475.611c-0.165-0.339-0.417-0.602-0.753-0.788
				c-0.337-0.186-0.718-0.28-1.146-0.28c-0.439,0-0.827,0.088-1.166,0.264c-0.339,0.176-0.65,0.452-0.935,0.828v-0.196
				c0-0.193-0.034-0.358-0.104-0.493c-0.07-0.134-0.162-0.234-0.276-0.302c-0.115-0.068-0.244-0.101-0.387-0.101
				c-0.233,0-0.417,0.076-0.552,0.228c-0.134,0.153-0.201,0.383-0.201,0.692v4.682c0,0.317,0.076,0.56,0.226,0.73
				c0.15,0.17,0.342,0.255,0.576,0.255c0.241,0,0.438-0.082,0.59-0.246c0.152-0.164,0.228-0.411,0.228-0.74v-2.03
				c0-0.661,0.04-1.111,0.119-1.353c0.11-0.3,0.284-0.537,0.522-0.71c0.237-0.173,0.5-0.258,0.788-0.258
				c0.444,0,0.74,0.142,0.888,0.425c0.148,0.283,0.223,0.691,0.223,1.225v2.7c0,0.317,0.074,0.56,0.226,0.73
				c0.15,0.17,0.345,0.255,0.587,0.255c0.238,0,0.431-0.083,0.579-0.249c0.149-0.166,0.223-0.412,0.223-0.737v-3.015
				c0-0.356-0.016-0.648-0.048-0.878C211.155,476.023,211.085,475.809,210.978,475.611z"/>
			<path id="XMLID_939_" style="fill:#FFFFFF;" d="M217.821,478.054c0.234-0.122,0.35-0.385,0.35-0.793
				c0-0.438-0.113-0.87-0.338-1.294c-0.226-0.423-0.565-0.769-1.019-1.035c-0.453-0.268-0.995-0.4-1.628-0.4
				c-0.487,0-0.93,0.078-1.33,0.234c-0.4,0.157-0.736,0.381-1.009,0.674c-0.273,0.293-0.481,0.644-0.624,1.054
				c-0.142,0.409-0.214,0.853-0.214,1.332c0,1.017,0.289,1.822,0.867,2.415c0.578,0.592,1.387,0.89,2.427,0.89
				c0.455,0,0.858-0.059,1.208-0.178c0.35-0.12,0.64-0.268,0.871-0.448c0.232-0.18,0.405-0.368,0.52-0.564
				c0.115-0.197,0.172-0.367,0.172-0.514c0-0.166-0.051-0.294-0.154-0.386c-0.103-0.09-0.238-0.137-0.404-0.137
				c-0.154,0-0.273,0.035-0.356,0.107c-0.201,0.19-0.366,0.34-0.492,0.452c-0.128,0.111-0.266,0.215-0.416,0.312
				c-0.151,0.098-0.306,0.167-0.466,0.214c-0.161,0.045-0.338,0.067-0.532,0.067c-0.289,0-0.553-0.07-0.792-0.213
				c-0.239-0.142-0.431-0.354-0.575-0.635c-0.145-0.281-0.218-0.605-0.223-0.973h3.169
				C217.26,478.235,217.588,478.174,217.821,478.054z M213.667,477.315c0.055-0.546,0.212-0.959,0.471-1.238
				c0.259-0.28,0.591-0.418,0.995-0.418c0.423,0,0.765,0.137,1.024,0.412c0.259,0.275,0.409,0.69,0.448,1.244H213.667z"/>
			<path id="XMLID_936_" style="fill:#FFFFFF;" d="M224.207,472.134c-0.245,0-0.434,0.085-0.567,0.255
				c-0.132,0.17-0.2,0.421-0.2,0.753v2.392c-0.304-0.331-0.616-0.579-0.937-0.739c-0.32-0.159-0.714-0.24-1.181-0.24
				c-0.807,0-1.458,0.283-1.953,0.848c-0.495,0.566-0.741,1.356-0.741,2.369c0,0.478,0.062,0.923,0.187,1.335
				c0.124,0.412,0.307,0.77,0.549,1.074c0.241,0.305,0.527,0.539,0.857,0.703c0.33,0.164,0.689,0.246,1.077,0.246
				c0.293,0,0.563-0.04,0.81-0.122c0.247-0.08,0.476-0.199,0.688-0.356c0.211-0.156,0.426-0.359,0.643-0.608v0.16
				c0,0.297,0.073,0.525,0.217,0.685c0.145,0.161,0.328,0.24,0.549,0.24c0.226,0,0.41-0.077,0.552-0.231
				c0.143-0.154,0.214-0.386,0.214-0.694v-7.146c0-0.305-0.066-0.534-0.199-0.691C224.64,472.212,224.452,472.134,224.207,472.134z
				 M223.141,478.974c-0.14,0.306-0.328,0.533-0.564,0.682c-0.235,0.149-0.495,0.223-0.781,0.223c-0.281,0-0.54-0.079-0.776-0.236
				c-0.238-0.155-0.425-0.387-0.561-0.696c-0.137-0.309-0.205-0.682-0.205-1.122c0-0.415,0.064-0.78,0.193-1.095
				c0.129-0.315,0.31-0.556,0.543-0.724c0.233-0.168,0.499-0.253,0.795-0.253c0.285,0,0.547,0.082,0.787,0.246
				c0.239,0.165,0.43,0.402,0.57,0.712c0.14,0.311,0.21,0.682,0.21,1.114C223.352,478.284,223.281,478.667,223.141,478.974z"/>
			<path id="XMLID_933_" style="fill:#FFFFFF;" d="M233.586,474.937c-0.406-0.254-0.878-0.382-1.416-0.382
				c-0.467,0-0.859,0.084-1.175,0.252c-0.317,0.168-0.627,0.411-0.932,0.727v-2.475c0-0.297-0.068-0.524-0.202-0.685
				c-0.134-0.16-0.326-0.24-0.576-0.24c-0.237,0-0.423,0.084-0.555,0.252c-0.132,0.168-0.198,0.416-0.198,0.745v7.075
				c0,0.305,0.068,0.535,0.205,0.692c0.136,0.156,0.319,0.234,0.549,0.234c0.226,0,0.412-0.077,0.558-0.234
				c0.146-0.157,0.22-0.388,0.22-0.692v-0.16c0.178,0.205,0.322,0.361,0.43,0.463c0.109,0.103,0.241,0.203,0.395,0.3
				c0.154,0.098,0.341,0.175,0.561,0.234c0.22,0.06,0.454,0.089,0.704,0.089c0.407,0,0.781-0.082,1.118-0.246
				c0.338-0.164,0.626-0.397,0.864-0.698c0.237-0.3,0.418-0.656,0.543-1.065c0.125-0.41,0.187-0.859,0.187-1.35
				c0-0.665-0.112-1.241-0.336-1.725C234.305,475.563,233.991,475.193,233.586,474.937z M232.796,479.348
				c-0.295,0.354-0.646,0.531-1.053,0.531c-0.479,0-0.866-0.174-1.161-0.521c-0.295-0.346-0.442-0.841-0.442-1.487
				c0-0.439,0.069-0.818,0.208-1.136c0.138-0.319,0.328-0.562,0.57-0.73c0.24-0.168,0.516-0.253,0.825-0.253
				c0.3,0,0.564,0.085,0.79,0.253c0.225,0.168,0.399,0.406,0.522,0.715c0.123,0.308,0.184,0.677,0.184,1.104
				C233.238,478.486,233.09,478.993,232.796,479.348z"/>
			<path id="XMLID_931_" style="fill:#FFFFFF;" d="M240.529,474.641c-0.112-0.066-0.23-0.098-0.353-0.098
				c-0.171,0-0.303,0.03-0.395,0.09c-0.093,0.058-0.181,0.173-0.264,0.344c-0.083,0.17-0.176,0.406-0.279,0.706l-1.3,3.71
				l-1.371-3.988c-0.091-0.277-0.195-0.489-0.314-0.638c-0.119-0.148-0.295-0.223-0.529-0.223c-0.135,0-0.264,0.035-0.389,0.107
				c-0.124,0.071-0.222,0.166-0.294,0.285c-0.071,0.118-0.107,0.247-0.107,0.385c0,0.13,0.062,0.341,0.184,0.628l1.994,5.022
				l-0.148,0.362c-0.111,0.265-0.209,0.466-0.294,0.601c-0.085,0.138-0.181,0.234-0.288,0.289c-0.107,0.056-0.254,0.084-0.44,0.084
				c-0.074,0-0.163-0.012-0.266-0.035c-0.083-0.024-0.168-0.037-0.256-0.037c-0.221,0-0.388,0.051-0.5,0.152
				c-0.114,0.101-0.17,0.245-0.17,0.43c0,0.273,0.118,0.461,0.356,0.564c0.237,0.103,0.593,0.154,1.068,0.154
				c0.487,0,0.873-0.074,1.161-0.223c0.287-0.148,0.517-0.361,0.691-0.638c0.174-0.277,0.353-0.658,0.535-1.145l2.113-5.532
				c0.051-0.142,0.095-0.283,0.13-0.421c0.037-0.139,0.061-0.246,0.078-0.321c0-0.123-0.032-0.239-0.093-0.35
				C240.729,474.794,240.642,474.706,240.529,474.641z"/>
		</g>
		<g id="XMLID_365_">
			<g id="XMLID_380_">
				<path id="XMLID_928_" style="fill:#FFFFFF;" d="M262.93,472.129c-0.533,0-0.954,0.069-1.26,0.204
					c-0.307,0.137-0.527,0.354-0.654,0.652c-0.129,0.301-0.191,0.702-0.191,1.211v0.487h-0.387c-0.543,0-0.815,0.192-0.815,0.582
					c0,0.174,0.066,0.316,0.196,0.424c0.132,0.111,0.316,0.163,0.558,0.163h0.447v4.294c0,0.319,0.074,0.563,0.227,0.73
					c0.154,0.17,0.344,0.254,0.574,0.254c0.243,0,0.438-0.084,0.589-0.254c0.156-0.167,0.231-0.411,0.231-0.73v-4.294h0.395
					c0.29,0,0.517-0.035,0.68-0.107c0.166-0.071,0.245-0.24,0.245-0.502c0-0.374-0.306-0.56-0.926-0.56h-0.395v-0.386
					c0-0.322,0.043-0.568,0.122-0.74c0.087-0.172,0.273-0.259,0.566-0.259c0.107,0,0.241,0.014,0.389,0.034
					c0.156,0.026,0.267,0.038,0.33,0.038c0.134,0,0.252-0.054,0.348-0.16c0.101-0.107,0.15-0.236,0.15-0.384
					C264.35,472.359,263.879,472.129,262.93,472.129z"/>
				<path id="XMLID_926_" style="fill:#FFFFFF;" d="M268.089,474.795c-0.32-0.171-0.648-0.255-0.99-0.255
					c-0.342,0-0.611,0.084-0.818,0.255c-0.203,0.171-0.4,0.421-0.592,0.755c-0.014-0.334-0.08-0.584-0.198-0.755
					c-0.119-0.171-0.312-0.255-0.583-0.255c-0.525,0-0.788,0.364-0.788,1.093v4.513c0,0.323,0.078,0.569,0.225,0.733
					c0.15,0.169,0.34,0.25,0.579,0.25c0.237,0,0.432-0.081,0.586-0.247c0.151-0.163,0.234-0.41,0.234-0.737v-1.355
					c0-0.486,0.014-0.899,0.045-1.239c0.034-0.336,0.09-0.63,0.17-0.878c0.084-0.243,0.201-0.425,0.353-0.553
					c0.149-0.122,0.345-0.186,0.582-0.186c0.172,0,0.374,0.037,0.602,0.108c0.226,0.073,0.37,0.112,0.433,0.112
					c0.157,0,0.304-0.064,0.441-0.195c0.135-0.126,0.204-0.292,0.204-0.488C268.571,475.193,268.411,474.966,268.089,474.795z"/>
				<path id="XMLID_922_" style="fill:#FFFFFF;" d="M274.176,478.052c0.233-0.122,0.351-0.386,0.351-0.791
					c0-0.441-0.113-0.87-0.339-1.296c-0.222-0.423-0.566-0.77-1.018-1.034c-0.453-0.27-0.997-0.403-1.629-0.403
					c-0.488,0-0.931,0.078-1.33,0.233c-0.402,0.156-0.735,0.38-1.007,0.674c-0.276,0.295-0.484,0.643-0.624,1.055
					c-0.144,0.41-0.217,0.855-0.217,1.333c0,1.017,0.292,1.823,0.87,2.418c0.577,0.593,1.385,0.888,2.429,0.888
					c0.453,0,0.857-0.06,1.207-0.179c0.349-0.117,0.639-0.268,0.874-0.446c0.233-0.182,0.405-0.368,0.522-0.566
					c0.112-0.195,0.167-0.365,0.167-0.512c0-0.167-0.048-0.294-0.152-0.386c-0.105-0.092-0.238-0.139-0.406-0.139
					c-0.152,0-0.271,0.038-0.355,0.109c-0.202,0.189-0.367,0.34-0.494,0.449c-0.128,0.113-0.264,0.217-0.415,0.312
					c-0.15,0.097-0.307,0.17-0.466,0.213c-0.16,0.048-0.336,0.069-0.531,0.069c-0.29,0-0.552-0.07-0.793-0.212
					c-0.24-0.145-0.431-0.356-0.578-0.635c-0.144-0.281-0.216-0.607-0.221-0.974h3.171
					C273.615,478.233,273.943,478.173,274.176,478.052z M270.021,477.312c0.054-0.546,0.213-0.957,0.472-1.236
					c0.259-0.28,0.591-0.417,0.995-0.417c0.426,0,0.764,0.136,1.025,0.413c0.26,0.273,0.407,0.688,0.446,1.241H270.021z"/>
				<path id="XMLID_919_" style="fill:#FFFFFF;" d="M280.916,478.052c0.231-0.122,0.351-0.386,0.351-0.791
					c0-0.441-0.116-0.87-0.34-1.296c-0.222-0.423-0.563-0.77-1.013-1.034c-0.46-0.27-1.003-0.403-1.633-0.403
					c-0.486,0-0.932,0.078-1.33,0.233c-0.401,0.156-0.736,0.38-1.009,0.674c-0.273,0.295-0.481,0.643-0.622,1.055
					c-0.145,0.41-0.217,0.855-0.217,1.333c0,1.017,0.29,1.823,0.868,2.418c0.58,0.593,1.387,0.888,2.429,0.888
					c0.453,0,0.86-0.06,1.208-0.179c0.347-0.117,0.641-0.268,0.872-0.446c0.234-0.182,0.408-0.368,0.519-0.566
					c0.117-0.195,0.171-0.365,0.171-0.512c0-0.167-0.047-0.294-0.15-0.386c-0.104-0.092-0.238-0.139-0.406-0.139
					c-0.151,0-0.27,0.038-0.355,0.109c-0.203,0.189-0.368,0.34-0.492,0.449c-0.128,0.113-0.264,0.217-0.415,0.312
					c-0.152,0.097-0.307,0.17-0.469,0.213c-0.157,0.048-0.336,0.069-0.528,0.069c-0.291,0-0.555-0.07-0.795-0.212
					c-0.239-0.145-0.431-0.356-0.575-0.635c-0.144-0.281-0.218-0.607-0.222-0.974h3.17
					C280.354,478.233,280.682,478.173,280.916,478.052z M276.762,477.312c0.053-0.546,0.211-0.957,0.469-1.236
					c0.261-0.28,0.592-0.417,0.995-0.417c0.425,0,0.763,0.136,1.027,0.413c0.257,0.273,0.407,0.688,0.447,1.241H276.762z"/>
				<path id="XMLID_390_" style="fill:#FFFFFF;" d="M286.926,474.937c-0.42-0.256-0.882-0.386-1.379-0.386
					c-0.415,0-0.79,0.089-1.114,0.267c-0.331,0.176-0.649,0.452-0.952,0.828v-0.195c0-0.296-0.071-0.519-0.218-0.677
					c-0.143-0.156-0.329-0.234-0.56-0.234c-0.233,0-0.419,0.078-0.553,0.228c-0.134,0.155-0.2,0.382-0.2,0.692v6.995
					c0,0.355,0.051,0.62,0.146,0.807c0.102,0.183,0.301,0.275,0.607,0.275c0.518,0,0.778-0.359,0.778-1.068v-2.433
					c0.287,0.358,0.586,0.634,0.901,0.816c0.314,0.187,0.704,0.279,1.165,0.279c0.385,0,0.741-0.076,1.079-0.227
					c0.334-0.153,0.622-0.372,0.868-0.654c0.245-0.283,0.441-0.632,0.58-1.05c0.14-0.419,0.21-0.878,0.21-1.376
					c0-0.677-0.122-1.261-0.366-1.758C287.675,475.572,287.346,475.196,286.926,474.937z M286.451,478.94
					c-0.137,0.313-0.32,0.546-0.552,0.704c-0.229,0.154-0.48,0.232-0.748,0.232c-0.454,0-0.828-0.179-1.133-0.536
					c-0.306-0.358-0.46-0.862-0.46-1.504c0-0.686,0.154-1.204,0.462-1.558c0.306-0.35,0.684-0.527,1.13-0.527
					c0.281,0,0.541,0.084,0.77,0.248c0.229,0.163,0.411,0.397,0.541,0.705c0.13,0.306,0.197,0.674,0.197,1.101
					C286.658,478.248,286.589,478.626,286.451,478.94z"/>
				<path id="XMLID_389_" style="fill:#FFFFFF;" d="M289.9,474.54c-0.238,0-0.428,0.079-0.58,0.245
					c-0.146,0.162-0.222,0.403-0.222,0.721v4.641c0,0.313,0.076,0.555,0.222,0.729c0.152,0.17,0.342,0.254,0.58,0.254
					c0.238,0,0.432-0.082,0.588-0.25c0.154-0.165,0.231-0.41,0.231-0.732v-4.688c0-0.287-0.078-0.512-0.231-0.675
					C290.332,474.619,290.138,474.54,289.9,474.54z"/>
				<path id="XMLID_388_" style="fill:#FFFFFF;" d="M289.917,472.199c-0.217,0-0.408,0.076-0.571,0.223
					c-0.166,0.149-0.248,0.339-0.248,0.568c0,0.253,0.081,0.447,0.242,0.586c0.159,0.138,0.35,0.209,0.577,0.209
					c0.22,0,0.408-0.071,0.566-0.209c0.157-0.14,0.236-0.335,0.236-0.585c0-0.257-0.082-0.454-0.244-0.591
					C290.314,472.267,290.13,472.199,289.917,472.199z"/>
				<path id="XMLID_387_" style="fill:#FFFFFF;" d="M297.258,479.569l-1.662-2.614l0.86-0.789c0.438-0.395,0.659-0.714,0.659-0.951
					c0-0.192-0.068-0.355-0.2-0.483c-0.139-0.128-0.306-0.193-0.51-0.193c-0.168,0-0.312,0.043-0.431,0.13
					c-0.121,0.086-0.29,0.251-0.517,0.486l-1.822,1.914v-3.933c0-0.329-0.074-0.582-0.221-0.751
					c-0.148-0.172-0.344-0.258-0.593-0.258c-0.255,0-0.457,0.093-0.596,0.283c-0.135,0.189-0.207,0.462-0.207,0.821v6.913
					c0,0.323,0.073,0.569,0.215,0.733c0.141,0.169,0.339,0.25,0.588,0.25c0.213,0,0.406-0.084,0.566-0.254
					c0.165-0.167,0.248-0.406,0.248-0.718v-1.291l0.88-0.83l1.427,2.353c0.181,0.278,0.33,0.471,0.436,0.58
					c0.106,0.109,0.26,0.16,0.458,0.16c0.226,0,0.413-0.073,0.553-0.221c0.142-0.151,0.214-0.352,0.214-0.61
					c0-0.089-0.029-0.19-0.082-0.289C297.47,479.909,297.379,479.765,297.258,479.569z"/>
				<path id="XMLID_386_" style="fill:#FFFFFF;" d="M299.45,479.343c-0.25,0-0.458,0.087-0.63,0.261
					c-0.17,0.173-0.256,0.381-0.256,0.622c0,0.287,0.09,0.51,0.268,0.665c0.179,0.159,0.389,0.238,0.633,0.238
					c0.237,0,0.444-0.079,0.624-0.241c0.174-0.157,0.264-0.38,0.264-0.662c0-0.243-0.089-0.454-0.264-0.626
					C299.909,479.43,299.698,479.343,299.45,479.343z"/>
				<path id="XMLID_385_" style="fill:#FFFFFF;" d="M306.835,478.417c-0.167,0-0.308,0.054-0.422,0.156
					c-0.113,0.104-0.219,0.245-0.318,0.427c-0.178,0.309-0.381,0.538-0.616,0.689c-0.231,0.15-0.509,0.225-0.835,0.225
					c-0.24,0-0.463-0.045-0.665-0.141c-0.201-0.093-0.372-0.229-0.516-0.409c-0.143-0.18-0.252-0.398-0.325-0.652
					c-0.075-0.256-0.114-0.537-0.114-0.842c0-0.646,0.147-1.161,0.439-1.534c0.294-0.375,0.682-0.561,1.158-0.561
					c0.333,0,0.607,0.075,0.821,0.227c0.219,0.148,0.424,0.375,0.622,0.674c0.109,0.158,0.209,0.269,0.299,0.339
					c0.09,0.068,0.201,0.104,0.338,0.104c0.202,0,0.377-0.068,0.524-0.203c0.143-0.135,0.214-0.3,0.214-0.492
					c0-0.192-0.063-0.397-0.192-0.617c-0.128-0.218-0.314-0.424-0.556-0.62c-0.245-0.192-0.54-0.352-0.89-0.474
					c-0.353-0.123-0.737-0.184-1.157-0.184c-0.674,0-1.26,0.138-1.746,0.419c-0.486,0.279-0.859,0.674-1.113,1.183
					c-0.259,0.511-0.387,1.098-0.387,1.765c0,0.981,0.281,1.764,0.841,2.349c0.562,0.582,1.344,0.876,2.348,0.876
					c0.469,0,0.893-0.065,1.269-0.192c0.377-0.126,0.688-0.295,0.934-0.502c0.248-0.207,0.434-0.425,0.554-0.656
					c0.121-0.229,0.182-0.446,0.182-0.646c0-0.169-0.066-0.331-0.198-0.481C307.198,478.493,307.033,478.417,306.835,478.417z"/>
				<path id="XMLID_382_" style="fill:#FFFFFF;" d="M313.647,475.453c-0.288-0.29-0.629-0.518-1.027-0.674
					c-0.4-0.161-0.846-0.239-1.336-0.239c-0.483,0-0.924,0.078-1.326,0.234c-0.399,0.158-0.737,0.38-1.019,0.669
					c-0.281,0.288-0.498,0.636-0.649,1.045c-0.146,0.408-0.224,0.858-0.224,1.349c0,0.485,0.076,0.929,0.219,1.332
					c0.152,0.402,0.369,0.75,0.657,1.048c0.285,0.292,0.627,0.521,1.016,0.676c0.392,0.159,0.835,0.239,1.326,0.239
					c0.492,0,0.937-0.08,1.336-0.234c0.394-0.158,0.735-0.382,1.02-0.675c0.286-0.291,0.502-0.641,0.656-1.05
					c0.146-0.408,0.222-0.855,0.222-1.336c0-0.489-0.075-0.932-0.221-1.339C314.148,476.096,313.933,475.749,313.647,475.453z
					 M312.455,479.368c-0.29,0.372-0.682,0.557-1.171,0.557c-0.324,0-0.605-0.086-0.846-0.253c-0.24-0.168-0.423-0.409-0.553-0.729
					c-0.129-0.317-0.194-0.684-0.194-1.108c0-0.428,0.066-0.803,0.197-1.125c0.131-0.321,0.314-0.563,0.556-0.727
					c0.242-0.164,0.522-0.246,0.84-0.246c0.489,0,0.881,0.182,1.171,0.555c0.289,0.367,0.436,0.881,0.436,1.543
					C312.891,478.487,312.744,478.999,312.455,479.368z"/>
				<path id="XMLID_381_" style="fill:#FFFFFF;" d="M323.569,474.813c-0.32-0.173-0.705-0.262-1.146-0.262
					c-0.381,0-0.726,0.081-1.039,0.241c-0.313,0.161-0.607,0.408-0.881,0.738c-0.191-0.326-0.431-0.572-0.725-0.735
					c-0.292-0.162-0.641-0.243-1.048-0.243c-0.394,0-0.748,0.079-1.07,0.241c-0.319,0.156-0.619,0.403-0.903,0.738v-0.153
					c0-0.261-0.074-0.466-0.222-0.616c-0.15-0.145-0.334-0.221-0.557-0.221c-0.227,0-0.412,0.078-0.555,0.239
					c-0.14,0.157-0.21,0.389-0.21,0.694v4.636c0,0.336,0.078,0.591,0.235,0.765c0.156,0.171,0.357,0.257,0.604,0.257
					c0.248,0,0.447-0.087,0.603-0.257c0.15-0.173,0.226-0.428,0.226-0.765v-2.188c0-0.684,0.086-1.206,0.253-1.566
					c0.168-0.369,0.516-0.551,1.048-0.551c0.263,0,0.459,0.072,0.581,0.22c0.122,0.142,0.198,0.331,0.226,0.552
					c0.027,0.226,0.04,0.544,0.04,0.953v2.581c0,0.341,0.078,0.594,0.232,0.767c0.148,0.17,0.349,0.255,0.594,0.255
					c0.254,0,0.455-0.085,0.611-0.255c0.156-0.173,0.231-0.426,0.231-0.767v-2.154c0-0.694,0.062-1.178,0.178-1.452
					c0.109-0.209,0.259-0.383,0.45-0.508c0.192-0.125,0.395-0.192,0.609-0.192c0.264,0,0.463,0.072,0.596,0.215
					c0.128,0.142,0.209,0.319,0.239,0.529c0.029,0.209,0.043,0.486,0.043,0.836v2.725c0,0.336,0.079,0.591,0.235,0.765
					c0.157,0.171,0.356,0.257,0.603,0.257c0.253,0,0.458-0.085,0.612-0.255c0.154-0.173,0.229-0.426,0.229-0.767v-3.163
					c0-0.629-0.068-1.091-0.206-1.385C324.128,475.237,323.888,474.987,323.569,474.813z"/>
			</g>
			<g id="XMLID_366_">
				<path id="XMLID_379_" style="fill:#FFFFFF;" d="M245.273,477.444c-0.001-0.004-0.001-0.006-0.001-0.011
					C245.272,477.438,245.272,477.44,245.273,477.444z"/>
				<path id="XMLID_378_" style="fill:#FFFFFF;" d="M245.355,477.961c0.001,0,0.001,0,0.001,0c-0.031-0.147-0.055-0.294-0.073-0.438
					C245.301,477.669,245.326,477.816,245.355,477.961z"/>
				<path id="XMLID_377_" style="fill:#FFFFFF;" d="M245.891,479.466c-0.004-0.006-0.007-0.013-0.01-0.021
					C245.885,479.452,245.888,479.46,245.891,479.466z"/>
				<path id="XMLID_376_" style="fill:#FFFFFF;" d="M245.84,479.366c-0.014-0.027-0.027-0.056-0.041-0.084
					C245.813,479.311,245.826,479.338,245.84,479.366z"/>
				<path id="XMLID_375_" style="fill:#FFFFFF;" d="M245.506,478.541c0.079,0.25,0.175,0.492,0.286,0.724
					c-0.113-0.236-0.206-0.479-0.284-0.724H245.506z"/>
				<path id="XMLID_374_" style="fill:#FFFFFF;" d="M250.736,470.681l-0.076-0.259c0.299-0.063,0.524-0.329,0.524-0.646
					c0-0.364-0.297-0.659-0.66-0.659c-0.365,0-0.66,0.295-0.66,0.659c0,0.317,0.225,0.583,0.522,0.646l0.084,0.289
					c-1.021,0.14-1.834,0.539-1.834,0.539l0.144,0.441c0.618-0.206,1.153-0.331,1.64-0.383c0.476-0.051,0.834-0.073,1.126-0.073
					c0.314,0,0.544,0.025,0.809,0.069l0.075-0.476C252.429,470.828,251.698,470.603,250.736,470.681z"/>
				<path id="XMLID_373_" style="fill:#FFFFFF;" d="M245.453,473.188c-0.017,0.024-0.497,0.465-0.876,1.28
					c-0.016-0.026-0.035-0.051-0.056-0.074c-0.113-0.124-0.272-0.187-0.473-0.184c-0.002,0-0.006,0-0.01,0
					c-0.124,0-0.21-0.042-0.266-0.092c0.055-0.071,0.089-0.16,0.089-0.258c0-0.231-0.187-0.419-0.419-0.419
					c-0.23,0-0.417,0.188-0.417,0.419c0,0.231,0.187,0.417,0.417,0.417c0.037,0,0.071-0.005,0.105-0.012
					c0.102,0.113,0.265,0.214,0.504,0.209c0.123-0.001,0.214,0.03,0.273,0.097c0.07,0.076,0.093,0.185,0.1,0.267
					c-0.001,0.002-0.001,0.004-0.002,0.004c-0.272,0.743-0.195,1.668-0.195,1.668l0.661,0.026c0.013-0.336,0.062-0.926,0.232-1.393
					c0.328-0.906,0.741-1.472,0.757-1.496l0.004-0.005c0.024-0.031,0.047-0.06,0.071-0.089l-0.196-0.142L245.453,473.188z"/>
				<path id="XMLID_372_" style="fill:#FFFFFF;" d="M257.294,471.787c-0.23,0-0.418,0.187-0.418,0.417
					c0,0.037,0.006,0.071,0.015,0.104c-0.115,0.104-0.214,0.267-0.211,0.507c0.002,0.123-0.03,0.212-0.096,0.273
					c-0.053,0.047-0.12,0.072-0.185,0.088c-0.492-0.689-1.097-1.109-1.097-1.109l-0.474,0.508c0.358,0.326,0.724,0.734,1.08,1.244
					c0.246,0.352,0.499,0.806,0.71,1.259l0.64-0.304c0,0-0.292-0.722-0.704-1.369c0.071-0.025,0.143-0.064,0.207-0.12
					c0.125-0.113,0.187-0.273,0.183-0.474c-0.001-0.13,0.042-0.218,0.093-0.276c0.071,0.054,0.16,0.089,0.257,0.089
					c0.232,0,0.419-0.187,0.419-0.419C257.712,471.974,257.525,471.787,257.294,471.787z"/>
				<path id="XMLID_371_" style="fill:#FFFFFF;" d="M255.633,477.537c-0.88,0.429-2.33,0.996-4.237,1.262
					c-0.749,0.104-1.474,0.142-2.143,0.142c-0.869,0-1.637-0.065-2.226-0.139c-0.672-0.085-1.198-0.188-1.52-0.261
					c0.078,0.245,0.171,0.487,0.284,0.724c0.002,0.006,0.005,0.013,0.008,0.017c0.014,0.027,0.027,0.056,0.041,0.084
					c0.013,0.027,0.027,0.054,0.041,0.079c0.004,0.007,0.007,0.015,0.01,0.021c0.189,0.356,0.417,0.684,0.675,0.968
					c0.9,0.984,1.816,1.139,1.825,1.141l0.015,0.002l0.013,0.005c0.009,0.003,0.821,0.265,2.057,0.265
					c1.216,0,2.409-0.245,3.545-0.729c0.842-0.431,1.639-1.085,2.033-1.668c0.305-0.452,0.526-0.934,0.656-1.434
					c0.07-0.266,0.125-0.693,0.092-1.141C256.555,477.042,256.163,477.279,255.633,477.537z"/>
				<path id="XMLID_367_" style="fill:#FFFFFF;" d="M252.322,471.655c-0.264-0.043-0.477-0.068-0.777-0.068
					c-0.279,0-0.626,0.023-1.089,0.071c-0.465,0.049-0.982,0.171-1.583,0.373c-0.842,0.282-1.604,0.724-2.204,1.28l-0.02,0.019
					c-0.089,0.081-0.275,0.254-0.488,0.525c-0.026,0.037-0.408,0.578-0.709,1.408c-0.226,0.622-0.216,1.527-0.216,1.537v0.002
					c0,0.212,0.012,0.423,0.035,0.632c0,0.005,0,0.007,0.001,0.011c0.003,0.027,0.007,0.053,0.01,0.079
					c0.018,0.144,0.043,0.291,0.074,0.438c0.438,0.112,3.048,0.721,5.966,0.314c1.829-0.255,3.218-0.795,4.061-1.204
					c0.701-0.34,1.151-0.647,1.325-0.774c-0.173-0.643-0.651-1.65-1.089-2.279C254.367,472.229,253.016,471.769,252.322,471.655z
					 M248.679,476.914c-0.971,0-1.759-0.787-1.759-1.759c0-0.972,0.788-1.76,1.759-1.76c0.973,0,1.761,0.788,1.761,1.76
					C250.439,476.127,249.652,476.914,248.679,476.914z M253.829,475.617c-0.601,0-1.089-0.489-1.089-1.09
					c0-0.602,0.487-1.089,1.089-1.089c0.601,0,1.089,0.487,1.089,1.089C254.918,475.128,254.429,475.617,253.829,475.617z"/>
			</g>
		</g>
	</g>
</g>
</svg>
