<?xml version="1.0" encoding="utf-8"?>
<!-- Generator: Adobe Illustrator 27.5.0, SVG Export Plug-In . SVG Version: 6.00 Build 0)  -->
<svg version="1.1" xmlns="http://www.w3.org/2000/svg" xmlns:xlink="http://www.w3.org/1999/xlink" x="0px" y="0px"
	 viewBox="0 0 500 500" style="enable-background:new 0 0 500 500;" xml:space="preserve">
<g id="BACKGROUND">
	<g>
		<g>
			<rect x="0" style="fill:#FFF9EB;" width="500" height="500"/>
			<g style="opacity:0.75;">
				<path style="fill:#F7EAD0;" d="M272.256,34.152c11.828,15.994,31.931,25.499,51.799,24.491
					c19.523-0.991,38.712-11.356,57.785-7.071c16.889,3.795,29.57,18.788,34.968,35.235c5.398,16.447,4.65,34.239,2.842,51.455
					c-1.808,17.215-4.621,34.495-3.159,51.743c2.55,30.077,19.342,59.239,45.577,74.169c11.49,6.539,24.707,10.014,37.932,10.294V0
					H260.545C260.98,12.213,264.984,24.318,272.256,34.152z"/>
				<path style="fill:#F7EAD0;" d="M186.346,476.075c-20.345-9.098-43.551-7.855-65.833-8.308
					c-22.282-0.453-46.312-3.548-62.531-18.834c-15.467-14.577-20.409-37.346-19.897-58.593c0.512-21.247,5.634-42.143,6.815-63.364
					c1.181-21.221-2.221-44.013-16.242-59.985c-7.215-8.22-17.866-13.685-28.657-15.126V500h214.618
					C207.521,489.682,197.791,481.194,186.346,476.075z"/>
			</g>
		</g>
		<g>
			<ellipse style="fill:#EADABE;" cx="250" cy="433.687" rx="163.375" ry="12.77"/>
			<g>
				<g>
					<g>
						<g>
							
								<line style="fill:none;stroke:#E5B1C4;stroke-width:2;stroke-linecap:round;stroke-linejoin:round;" x1="241.103" y1="97.509" x2="241.103" y2="97.509"/>
							
								<path style="fill:none;stroke:#E5B1C4;stroke-width:2;stroke-linecap:round;stroke-linejoin:round;stroke-dasharray:0,7.983;" d="
								M246.576,91.7c29.14-28.211,76.646-34.955,111.788-14.827c14.158,8.109,26.729,20.912,30.347,37.137
								c3.493,15.668-1.687,32.488,2.556,47.959c4.315,15.733,17.368,26.935,27.648,39.416
								c27.556,33.453,36.452,82.073,22.601,123.512c-13.42,40.148-47.724,72.155-87.823,82.325"/>
							
								<line style="fill:none;stroke:#E5B1C4;stroke-width:2;stroke-linecap:round;stroke-linejoin:round;" x1="349.809" y1="408.134" x2="349.809" y2="408.134"/>
						</g>
					</g>
					<g>
						<g>
							
								<line style="fill:none;stroke:#E5B1C4;stroke-width:2;stroke-linecap:round;stroke-linejoin:round;" x1="131.476" y1="419.25" x2="131.476" y2="419.25"/>
							
								<path style="fill:none;stroke:#E5B1C4;stroke-width:2;stroke-linecap:round;stroke-linejoin:round;stroke-dasharray:0,7.9894;" d="
								M123.983,416.477c-23.439-9.736-42.911-28.049-53.267-50.429c-11.442-24.726-11.589-54.05-0.395-78.952
								c6.42-14.282,16.349-27.121,21.027-42.006c13.466-42.846-19.446-90.548-2.964-132.426
								c7.572-19.241,24.856-33.938,44.255-42.778c25.342-11.547,55.035-14.032,82.021-6.864
								c25.664,6.817,48.672,22.31,64.109,43.052"/>
							
								<line style="fill:none;stroke:#E5B1C4;stroke-width:2;stroke-linecap:round;stroke-linejoin:round;" x1="281.092" y1="109.321" x2="281.092" y2="109.321"/>
						</g>
					</g>
				</g>
				<g>
					<g>
						<path style="fill:none;stroke:#5C69E5;stroke-miterlimit:10;" d="M392.403,358.55c-2.574,0-2.578,4,0,4
							C394.976,362.55,394.981,358.55,392.403,358.55z"/>
						<path style="fill:none;stroke:#5C69E5;stroke-miterlimit:10;" d="M452.126,220.523c-2.574,0-2.578,4,0,4
							C454.7,224.523,454.704,220.523,452.126,220.523z"/>
						<path style="fill:none;stroke:#5C69E5;stroke-miterlimit:10;" d="M283.573,49.316c-2.574,0-2.578,4,0,4
							C286.147,53.316,286.151,49.316,283.573,49.316z"/>
						<path style="fill:none;stroke:#5C69E5;stroke-miterlimit:10;" d="M164.79,91.122c-2.574,0-2.578,4,0,4
							C167.364,95.122,167.368,91.122,164.79,91.122z"/>
						<path style="fill:none;stroke:#5C69E5;stroke-miterlimit:10;" d="M35.389,222.514c-2.574,0-2.578,4,0,4
							C37.963,226.514,37.967,222.514,35.389,222.514z"/>
						<path style="fill:none;stroke:#5C69E5;stroke-miterlimit:10;" d="M106.394,384.43c-2.574,0-2.578,4,0,4
							C108.968,388.43,108.972,384.43,106.394,384.43z"/>
					</g>
					<g>
						<path style="fill:#CC2565;" d="M403.221,236.618l1.799-1.799c0.026-0.026,0.049-0.055,0.069-0.085
							c0.119-0.18,0.119-0.415,0-0.594c-0.02-0.03-0.043-0.058-0.069-0.085c-0.105-0.105-0.244-0.158-0.382-0.158
							c-0.138,0-0.276,0.053-0.382,0.158l-1.799,1.799l-0.176-0.176l0,0l-1.623-1.623c-0.211-0.211-0.553-0.211-0.764,0
							c-0.211,0.211-0.211,0.553,0,0.764l1.799,1.799l-1.799,1.799c-0.211,0.211-0.211,0.553,0,0.764
							c0.211,0.211,0.553,0.211,0.764,0l1.224-1.224l0,0l0.575-0.575l1.799,1.799c0.105,0.105,0.244,0.158,0.382,0.158
							c0.138,0,0.276-0.053,0.382-0.158c0.026-0.026,0.049-0.055,0.069-0.085c0.138-0.21,0.115-0.495-0.069-0.679L403.221,236.618z"
							/>
						<path style="fill:#CC2565;" d="M431.916,395.042l1.799-1.799c0.026-0.026,0.049-0.055,0.069-0.085
							c0.119-0.18,0.119-0.415,0-0.595c-0.02-0.03-0.043-0.058-0.069-0.085c-0.105-0.105-0.244-0.158-0.382-0.158
							c-0.138,0-0.277,0.053-0.382,0.158l-1.799,1.799l-0.176-0.176l0,0l-1.623-1.623c-0.211-0.211-0.553-0.211-0.764,0
							c-0.211,0.211-0.211,0.553,0,0.764l1.799,1.799l-1.799,1.799c-0.211,0.211-0.211,0.553,0,0.764
							c0.211,0.211,0.553,0.211,0.764,0l1.224-1.224c0,0,0,0,0,0l0.575-0.575l1.799,1.799c0.105,0.105,0.244,0.158,0.382,0.158
							c0.138,0,0.276-0.053,0.382-0.158c0.026-0.026,0.049-0.055,0.069-0.085c0.138-0.21,0.115-0.495-0.069-0.679L431.916,395.042z"
							/>
						<path style="fill:#CC2565;" d="M62.792,382.083l1.799-1.799c0.026-0.026,0.049-0.055,0.069-0.085
							c0.119-0.18,0.119-0.415,0-0.594c-0.02-0.03-0.043-0.058-0.069-0.085c-0.106-0.105-0.244-0.158-0.382-0.158
							c-0.138,0-0.276,0.053-0.382,0.158l-1.799,1.799l-0.176-0.176l0,0l-1.624-1.623c-0.211-0.211-0.553-0.211-0.764,0
							c-0.211,0.211-0.211,0.553,0,0.764l1.799,1.799l-1.799,1.799c-0.211,0.211-0.211,0.553,0,0.764
							c0.211,0.211,0.553,0.211,0.764,0l1.224-1.224h0l0.575-0.575l1.799,1.799c0.105,0.105,0.244,0.158,0.382,0.158
							c0.138,0,0.276-0.053,0.382-0.158c0.026-0.026,0.049-0.055,0.069-0.085c0.138-0.21,0.115-0.495-0.069-0.679L62.792,382.083z"
							/>
						<path style="fill:#CC2565;" d="M203.951,36.515l1.799-1.799c0.026-0.026,0.049-0.055,0.069-0.085
							c0.119-0.18,0.119-0.415,0-0.595c-0.02-0.03-0.043-0.058-0.069-0.085c-0.105-0.106-0.244-0.158-0.382-0.158
							c-0.138,0-0.276,0.053-0.382,0.158l-1.799,1.799l-0.176-0.176l0,0l-1.623-1.623c-0.211-0.211-0.553-0.211-0.764,0
							c-0.211,0.211-0.211,0.553,0,0.764l1.799,1.799l-1.799,1.799c-0.211,0.211-0.211,0.553,0,0.764
							c0.211,0.211,0.553,0.211,0.764,0l1.224-1.224c0,0,0,0,0,0l0.575-0.575l1.799,1.799c0.105,0.105,0.244,0.158,0.382,0.158
							c0.138,0,0.276-0.053,0.382-0.158c0.026-0.026,0.049-0.055,0.069-0.085c0.138-0.21,0.115-0.495-0.069-0.679L203.951,36.515z"
							/>
					</g>
				</g>
			</g>
		</g>
	</g>
</g>
<g id="OBJECTS">
	<g>
		<g>
			<g>
				<g>
					<path style="fill:#D1E4F2;" d="M358.467,433.686H141.533c-11.046,0-20-8.954-20-20V165.681c0-2.652,1.054-5.196,2.929-7.071
						l62.217-62.217c1.875-1.875,4.419-2.929,7.071-2.929h164.717c11.046,0,20,8.954,20,20v300.223
						C378.467,424.732,369.513,433.686,358.467,433.686z"/>
					<g>
						<path style="fill:#BFD9E8;" d="M342.581,415.779c9.328-1.54,16.449-9.62,16.449-19.384c0-9.416-6.62-17.276-15.456-19.207l0,0
							c0,0,0,0,0,0c-0.218-0.047-0.438-0.086-0.658-0.127c-0.47-0.087-0.944-0.164-1.426-0.218c-0.119-0.013-0.239-0.02-0.358-0.03
							c-0.584-0.054-1.174-0.089-1.773-0.089c-10.864,0-19.671,8.807-19.671,19.671c0,10.864,8.807,19.671,19.671,19.671
							c0.56,0,1.111-0.035,1.658-0.084c0.215-0.018,0.429-0.037,0.642-0.062C341.97,415.881,342.276,415.831,342.581,415.779z"/>
						<path style="fill:#BFD9E8;" d="M377.383,323.778c0.385,0,0.751,0.08,1.084,0.222v-53.302h-20.389h-27.144
							c-7.236,0-13.658,3.483-17.682,8.863c-1.271,1.699-2.302,3.588-3.045,5.615c-0.371,1.014-0.67,2.063-0.891,3.14
							c-0.294,1.436-0.448,2.924-0.448,4.447v0v8.948c0,12.187,9.879,22.066,22.066,22.066h28.944H377.383z"/>
						<path style="fill:#BFD9E8;" d="M267.615,96.042c-9.893,0-17.912,8.02-17.912,17.912v12.312c0,9.893,8.02,17.912,17.912,17.912
							h60.163c1.952,0,3.787,0.929,4.942,2.503l14.124,19.241c0.459,0.626,1.008,1.134,1.612,1.525c2.014,1.304,4.646,1.304,6.66,0
							c0.604-0.391,1.153-0.899,1.612-1.525l14.124-19.241c1.155-1.573,2.99-2.503,4.942-2.503h2.674v-30.715
							c0-7.48-4.114-13.991-10.196-17.422h-38.658H267.615z"/>
						<path style="fill:#BFD9E8;" d="M169.681,239.252c-0.37-36.869,5.319-74.283,21.023-107.643
							c6.43-13.66,14.645-26.6,24.416-38.146h-21.37c-2.652,0-5.196,1.053-7.071,2.929l-62.217,62.217
							c-1.875,1.875-2.929,4.419-2.929,7.071v248.006c0,11.046,8.954,20,20,20h72.682c-17.394-23.991-24.89-55.188-30.772-84.847
							C176.271,312.673,170.05,276.121,169.681,239.252z"/>
						<path style="fill:#BFD9E8;" d="M378.467,196.534c-0.585-0.187-1.178-0.354-1.785-0.486h0
							c-0.218-0.048-0.438-0.086-0.658-0.127c-0.47-0.087-0.944-0.164-1.426-0.218c-0.119-0.013-0.239-0.02-0.358-0.03
							c-0.584-0.055-1.174-0.09-1.773-0.09c-3.395,0-6.589,0.86-9.376,2.374c-6.132,3.331-10.294,9.828-10.294,17.297
							c0,7.469,4.163,13.965,10.294,17.297c2.787,1.514,5.981,2.374,9.376,2.374c0.56,0,1.111-0.034,1.658-0.084
							c0.215-0.018,0.429-0.037,0.642-0.062c0.31-0.038,0.616-0.088,0.922-0.141c0.953-0.158,1.876-0.4,2.779-0.689V196.534z"/>
					</g>
				</g>
				<g>
					<path style="fill:#A9C7D3;" d="M143.32,139.751l-18.859,18.859c-1.875,1.875-2.929,4.419-2.929,7.071v34.035l15.075,7.013
						c2.335,1.086,4.747-1.348,3.639-3.673l-11.395-23.919l-0.003-0.002c9.055-8.855,14.682-21.201,14.682-34.867
						C143.532,142.745,143.457,141.239,143.32,139.751z"/>
					<path style="fill:#A9C7D3;" d="M121.533,232.014v37.821c8.275-2.321,14.354-9.889,14.354-18.905
						C135.887,241.912,129.809,234.336,121.533,232.014z"/>
					<path style="fill:#A9C7D3;" d="M180.2,364.69v-32.699c-1.053-5.651-2.068-11.31-3.02-16.98
						c-2.739-3.642-7.082-6.007-11.989-6.007h-43.658v88.846c1.572,0.818,3.613,0.456,4.756-1.101l7.032-9.58l4.359-5.939
						c0.707-0.963,1.83-1.532,3.025-1.532h24.485C173.48,379.699,180.2,372.979,180.2,364.69z"/>
				</g>
			</g>
			<g>
				<g>
					<g>
						<g>
							<g>
								<path style="fill:#CC2756;" d="M204.985,199.83h-43.187c-3.953,0-7.158-3.205-7.158-7.158v-34.427
									c0-3.953,3.205-7.158,7.158-7.158h43.187c3.953,0,7.158,3.205,7.158,7.158v34.427
									C212.144,196.626,208.939,199.83,204.985,199.83z"/>
								<path style="fill:#B71D50;" d="M161.798,199.831h9.981c2.017-16.615,5.564-33.006,11.015-48.744h-20.996
									c-3.953,0-7.158,3.205-7.158,7.158v34.427C154.64,196.626,157.845,199.831,161.798,199.831z"/>
							</g>
							<g>
								<path style="fill:#FFFFFF;" d="M187.262,176.303l9.114-9.114c0.134-0.134,0.251-0.277,0.351-0.429
									c0.601-0.91,0.601-2.101,0-3.011c-0.1-0.152-0.217-0.296-0.351-0.429c-0.534-0.534-1.235-0.802-1.935-0.802
									c-0.7,0-1.401,0.267-1.935,0.802l-9.114,9.114l-0.89-0.89v0l-8.224-8.224c-1.069-1.069-2.801-1.069-3.87,0
									c-1.069,1.069-1.069,2.801,0,3.87l9.114,9.114l-9.114,9.114c-1.069,1.069-1.069,2.801,0,3.87
									c1.069,1.069,2.801,1.069,3.87,0l6.201-6.201c0,0,0,0,0,0l2.913-2.913l9.114,9.114c0.534,0.534,1.235,0.801,1.935,0.801
									c0.7,0,1.401-0.267,1.935-0.801c0.134-0.134,0.251-0.277,0.351-0.429c0.701-1.062,0.585-2.506-0.351-3.441L187.262,176.303z
									"/>
								<g>
									<path style="fill:#D6D0D5;" d="M170.408,163.319c-1.069,1.069-1.069,2.801,0,3.87l6.028,6.028
										c0.483-2.077,0.991-4.147,1.532-6.208l-3.689-3.689C173.209,162.25,171.476,162.25,170.408,163.319z"/>
									<path style="fill:#D6D0D5;" d="M173.166,189.949c0.475-2.967,0.999-5.925,1.58-8.871l-4.338,4.338
										c-1.069,1.069-1.069,2.801,0,3.87C171.155,190.034,172.224,190.247,173.166,189.949z"/>
								</g>
							</g>
						</g>
						<g>
							<path style="fill:#E8A81A;" d="M343.535,178.128H225.084c-1.008,0-1.825-0.817-1.825-1.825l0,0
								c0-1.008,0.817-1.825,1.825-1.825h118.451c1.008,0,1.825,0.817,1.825,1.825l0,0
								C345.36,177.311,344.543,178.128,343.535,178.128z"/>
							<path style="fill:#E8A81A;" d="M343.535,192.077H225.084c-1.008,0-1.825-0.817-1.825-1.825l0,0
								c0-1.008,0.817-1.825,1.825-1.825h118.451c1.008,0,1.825,0.817,1.825,1.825l0,0
								C345.36,191.26,344.543,192.077,343.535,192.077z"/>
							<g>
								<path style="fill:#E8A81A;" d="M343.535,164.179H225.084c-1.008,0-1.825-0.817-1.825-1.825l0,0
									c0-1.008,0.817-1.825,1.825-1.825h118.451c1.008,0,1.825,0.817,1.825,1.825l0,0
									C345.36,163.362,344.543,164.179,343.535,164.179z"/>
								<path style="fill:#D1900F;" d="M343.535,160.529h-0.651l2.124,2.894c0.219-0.301,0.352-0.668,0.352-1.069
									C345.36,161.346,344.543,160.529,343.535,160.529z"/>
							</g>
						</g>
					</g>
					<g>
						<g>
							<g>
								<path style="fill:#CC2756;" d="M204.985,267.322h-43.187c-3.953,0-7.158-3.205-7.158-7.158v-34.427
									c0-3.953,3.205-7.158,7.158-7.158h43.187c3.953,0,7.158,3.205,7.158,7.158v34.427
									C212.144,264.117,208.939,267.322,204.985,267.322z"/>
								<path style="fill:#B71D50;" d="M161.798,267.322h9.223c-0.771-9.336-1.246-18.692-1.34-28.07
									c-0.069-6.882,0.074-13.783,0.453-20.674h-8.335c-3.953,0-7.158,3.205-7.158,7.158v34.427
									C154.64,264.117,157.845,267.322,161.798,267.322z"/>
							</g>
							<path style="fill:#FFFFFF;" d="M187.262,243.795l9.114-9.114c0.134-0.134,0.251-0.277,0.351-0.429
								c0.601-0.91,0.601-2.101,0-3.011c-0.1-0.152-0.217-0.296-0.351-0.429c-0.534-0.534-1.235-0.802-1.935-0.802
								c-0.7,0-1.401,0.267-1.935,0.802l-9.114,9.114l-0.89-0.889l0,0l-8.224-8.224c-1.069-1.069-2.801-1.069-3.87,0
								c-1.069,1.069-1.069,2.801,0,3.87l9.114,9.114l-9.114,9.114c-1.069,1.069-1.069,2.801,0,3.87c1.069,1.069,2.801,1.069,3.87,0
								l6.201-6.201c0,0,0,0,0,0l2.913-2.913l9.114,9.114c0.534,0.534,1.235,0.801,1.935,0.801c0.7,0,1.401-0.267,1.935-0.801
								c0.134-0.134,0.251-0.277,0.351-0.429c0.701-1.062,0.585-2.506-0.351-3.441L187.262,243.795z"/>
						</g>
						<g>
							<path style="fill:#E8A81A;" d="M343.535,231.67H225.084c-1.008,0-1.825-0.817-1.825-1.825l0,0
								c0-1.008,0.817-1.825,1.825-1.825h118.451c1.008,0,1.825,0.817,1.825,1.825l0,0
								C345.36,230.853,344.543,231.67,343.535,231.67z"/>
							<path style="fill:#E8A81A;" d="M343.535,245.62H225.084c-1.008,0-1.825-0.817-1.825-1.825l0,0
								c0-1.008,0.817-1.825,1.825-1.825h118.451c1.008,0,1.825,0.817,1.825,1.825l0,0
								C345.36,244.803,344.543,245.62,343.535,245.62z"/>
							<path style="fill:#E8A81A;" d="M343.535,259.569H225.084c-1.008,0-1.825-0.817-1.825-1.825l0,0
								c0-1.008,0.817-1.825,1.825-1.825h118.451c1.008,0,1.825,0.817,1.825,1.825l0,0
								C345.36,258.752,344.543,259.569,343.535,259.569z"/>
						</g>
					</g>
					<g>
						<g>
							<g>
								<path style="fill:#CC2756;" d="M204.985,334.814h-43.187c-3.953,0-7.158-3.205-7.158-7.158v-34.427
									c0-3.953,3.205-7.158,7.158-7.158h43.187c3.953,0,7.158,3.205,7.158,7.158v34.427
									C212.144,331.609,208.939,334.814,204.985,334.814z"/>
								<path style="fill:#B71D50;" d="M161.798,334.814h18.927c-3.053-16.175-5.785-32.425-7.773-48.744h-11.154
									c-3.953,0-7.158,3.205-7.158,7.158v34.427C154.64,331.609,157.845,334.814,161.798,334.814z"/>
							</g>
							<g>
								<path style="fill:#FFFFFF;" d="M187.262,311.286l9.114-9.114c0.134-0.134,0.251-0.277,0.351-0.429
									c0.601-0.91,0.601-2.101,0-3.011c-0.1-0.152-0.217-0.296-0.351-0.429c-0.534-0.534-1.235-0.802-1.935-0.802
									c-0.7,0-1.401,0.267-1.935,0.802l-9.114,9.114l-0.89-0.89l0,0l-8.224-8.224c-1.069-1.069-2.801-1.069-3.87,0
									c-1.069,1.069-1.069,2.801,0,3.87l9.114,9.114l-9.114,9.114c-1.069,1.069-1.069,2.801,0,3.87
									c1.069,1.069,2.801,1.069,3.87,0l6.201-6.201c0,0,0,0,0,0l2.913-2.913l9.114,9.114c0.534,0.534,1.235,0.801,1.935,0.801
									c0.7,0,1.401-0.267,1.935-0.801c0.134-0.134,0.251-0.277,0.351-0.429c0.701-1.062,0.585-2.506-0.351-3.441L187.262,311.286z
									"/>
								<g>
									<path style="fill:#D6D0D5;" d="M170.408,298.302c-1.069,1.069-1.069,2.801,0,3.87l5.604,5.604
										c-0.479-3.038-0.944-6.079-1.382-9.122l-0.352-0.352C173.209,297.234,171.476,297.234,170.408,298.302z"/>
									<path style="fill:#F9D4DE;" d="M176.99,313.818l-6.582,6.582c-1.069,1.069-1.069,2.801,0,3.87
										c1.069,1.069,2.801,1.069,3.87,0l3.837-3.837C177.731,318.23,177.356,316.025,176.99,313.818z"/>
								</g>
							</g>
						</g>
						<g>
							<path style="fill:#E8A81A;" d="M343.535,299.162H225.084c-1.008,0-1.825-0.817-1.825-1.825l0,0
								c0-1.008,0.817-1.825,1.825-1.825h118.451c1.008,0,1.825,0.817,1.825,1.825l0,0
								C345.36,298.345,344.543,299.162,343.535,299.162z"/>
							<path style="fill:#E8A81A;" d="M343.535,313.111H225.084c-1.008,0-1.825-0.817-1.825-1.825l0,0
								c0-1.008,0.817-1.825,1.825-1.825h118.451c1.008,0,1.825,0.817,1.825,1.825l0,0
								C345.36,312.294,344.543,313.111,343.535,313.111z"/>
							<path style="fill:#E8A81A;" d="M343.535,327.061H225.084c-1.008,0-1.825-0.817-1.825-1.825l0,0
								c0-1.008,0.817-1.825,1.825-1.825h118.451c1.008,0,1.825,0.817,1.825,1.825l0,0
								C345.36,326.244,344.543,327.061,343.535,327.061z"/>
							<g>
								<path style="fill:#D1900F;" d="M330.934,323.778h13.688c-0.304-0.228-0.678-0.367-1.087-0.367h-16.593
									C328.237,323.648,329.57,323.778,330.934,323.778z"/>
								<path style="fill:#D1900F;" d="M312.038,313.111h31.497c1.008,0,1.825-0.817,1.825-1.825c0-1.008-0.817-1.825-1.825-1.825
									h-33.264C310.75,310.738,311.342,311.96,312.038,313.111z"/>
								<path style="fill:#D1900F;" d="M308.868,299.162h34.667c1.008,0,1.825-0.817,1.825-1.825c0-1.008-0.817-1.825-1.825-1.825
									h-34.667V299.162z"/>
							</g>
						</g>
					</g>
					<g>
						<g>
							<g>
								<path style="fill:#CC2756;" d="M204.985,402.306h-43.187c-3.953,0-7.158-3.205-7.158-7.158V360.72
									c0-3.953,3.205-7.158,7.158-7.158h43.187c3.953,0,7.158,3.205,7.158,7.158v34.427
									C212.144,399.101,208.939,402.306,204.985,402.306z"/>
								<path style="fill:#B71D50;" d="M184.394,353.562h-22.595c-3.953,0-7.158,3.205-7.158,7.158v34.427
									c0,3.953,3.205,7.158,7.158,7.158h35.888C191.711,386.704,187.74,369.972,184.394,353.562z"/>
								<path style="fill:#AA1733;" d="M165.191,379.699c8.289,0,15.009-6.72,15.009-15.009v-11.128h-18.402
									c-3.953,0-7.158,3.205-7.158,7.158v18.978H165.191z"/>
							</g>
							<g>
								<path style="fill:#FFFFFF;" d="M187.262,378.778l9.114-9.114c0.134-0.134,0.251-0.278,0.351-0.429
									c0.601-0.91,0.601-2.101,0-3.011c-0.1-0.152-0.217-0.296-0.351-0.429c-0.534-0.534-1.235-0.801-1.935-0.801
									c-0.7,0-1.401,0.267-1.935,0.801l-9.114,9.114l-0.89-0.89l0,0l-8.224-8.224c-1.069-1.069-2.801-1.069-3.87,0
									c-1.069,1.069-1.069,2.801,0,3.87l9.114,9.114l-9.114,9.114c-1.069,1.069-1.069,2.801,0,3.87
									c1.069,1.069,2.801,1.069,3.87,0l6.201-6.201c0,0,0,0,0,0l2.913-2.913l9.114,9.114c0.534,0.534,1.235,0.801,1.935,0.801
									c0.7,0,1.401-0.267,1.935-0.801c0.134-0.134,0.251-0.277,0.351-0.429c0.701-1.062,0.585-2.506-0.351-3.441L187.262,378.778z
									"/>
								<path style="fill:#D6D0D5;" d="M170.408,391.762c1.069,1.069,2.801,1.069,3.87,0l6.201-6.201c0,0,0,0,0,0l2.913-2.913
									l9.114,9.114c0.489,0.489,1.117,0.743,1.757,0.784c-1.045-3.209-2.026-6.447-2.944-9.711l-4.057-4.057l2.337-2.337
									c-0.531-2.063-1.044-4.13-1.538-6.202l-4.669,4.669l-0.89-0.89l0,0l-8.224-8.224c-1.069-1.069-2.801-1.069-3.87,0
									c-1.069,1.069-1.069,2.801,0,3.87l9.114,9.114l-9.114,9.114C169.339,388.961,169.339,390.694,170.408,391.762z"/>
								<path style="fill:#EAB9C8;" d="M175.919,375.176c1.302-1.332,2.363-2.9,3.099-4.641l-4.741-4.741
									c-1.069-1.069-2.801-1.069-3.87,0c-1.069,1.069-1.069,2.801,0,3.87L175.919,375.176z"/>
							</g>
						</g>
						<g>
							<path style="fill:#E8A81A;" d="M343.535,366.654H225.084c-1.008,0-1.825-0.817-1.825-1.825l0,0
								c0-1.008,0.817-1.825,1.825-1.825h118.451c1.008,0,1.825,0.817,1.825,1.825l0,0
								C345.36,365.837,344.543,366.654,343.535,366.654z"/>
							<path style="fill:#E8A81A;" d="M343.535,380.603H225.084c-1.008,0-1.825-0.817-1.825-1.825l0,0
								c0-1.008,0.817-1.825,1.825-1.825h118.451c1.008,0,1.825,0.817,1.825,1.825l0,0
								C345.36,379.786,344.543,380.603,343.535,380.603z"/>
							<path style="fill:#E8A81A;" d="M343.535,394.552H225.084c-1.008,0-1.825-0.817-1.825-1.825l0,0
								c0-1.008,0.817-1.825,1.825-1.825h118.451c1.008,0,1.825,0.817,1.825,1.825l0,0
								C345.36,393.735,344.543,394.552,343.535,394.552z"/>
							<g>
								<path style="fill:#D1900F;" d="M343.575,377.188c-0.218-0.047-0.438-0.086-0.658-0.127c-0.233-0.043-0.47-0.071-0.705-0.108
									h-5.704c-3.282,0.478-6.295,1.76-8.842,3.65h15.869c1.008,0,1.825-0.817,1.825-1.825c0-0.486-0.193-0.925-0.503-1.252
									C344.434,377.403,344.009,377.283,343.575,377.188C343.575,377.188,343.575,377.188,343.575,377.188z"/>
								<path style="fill:#D1900F;" d="M343.535,390.903h-23.054c-0.342,1.176-0.583,2.394-0.699,3.65h23.753
									c1.008,0,1.825-0.817,1.825-1.825C345.36,391.72,344.543,390.903,343.535,390.903z"/>
							</g>
						</g>
					</g>
				</g>
				<g>
					<path style="fill:#B3CFDD;" d="M123.43,159.84c-0.041,0.057-0.085,0.111-0.124,0.168c-0.161,0.236-0.312,0.478-0.452,0.726
						c-0.003,0.005-0.006,0.01-0.009,0.015c-0.145,0.257-0.279,0.521-0.401,0.789c0,0,0,0,0,0h57.165c5.523,0,10-4.477,10-10V94.374
						c-0.269,0.122-0.532,0.256-0.789,0.401c-0.005,0.003-0.009,0.006-0.014,0.008c-0.248,0.14-0.491,0.291-0.727,0.453
						c-0.057,0.039-0.111,0.084-0.168,0.124c-0.185,0.132-0.368,0.265-0.544,0.41c-0.237,0.197-0.467,0.403-0.687,0.622
						l-62.217,62.217c-0.22,0.219-0.425,0.45-0.622,0.687C123.695,159.472,123.561,159.656,123.43,159.84z"/>
					<path style="fill:#A9C7D3;" d="M179.479,161.539c2.723-9.403,6.074-18.613,10.129-27.544V94.374
						c-1.078,0.491-2.075,1.165-2.929,2.019l-62.217,62.217c-0.854,0.854-1.528,1.851-2.019,2.929H179.479z"/>
				</g>
			</g>
		</g>
		<g>
			<g>
				<g>
					<path style="fill:#4559CE;" d="M134.853,173.137l-0.003-0.002c9.055-8.855,14.682-21.201,14.682-34.867
						c0-26.937-21.837-48.774-48.773-48.774c-26.937,0-48.773,21.837-48.773,48.774c0,26.937,21.837,48.773,48.773,48.773
						c3.482,0,6.876-0.372,10.151-1.065l-0.002,0.005l31.7,14.748c2.335,1.086,4.747-1.348,3.639-3.673L134.853,173.137z"/>
					<path style="fill:#364DB2;" d="M103.269,145.539c0.543-11.531,2.471-23.157,7.363-33.613c2.99-6.39,7.177-12.321,12.379-17.054
						c-6.674-3.429-14.234-5.377-22.253-5.377c-26.937,0-48.773,21.837-48.773,48.774c0,26.937,21.837,48.773,48.773,48.773
						c3.482,0,6.876-0.372,10.151-1.065l-0.002,0.005l1.275,0.593c-1.65-2.425-3.063-5.015-4.203-7.693
						C103.547,168.465,102.737,156.848,103.269,145.539z"/>
					<g>
						<path style="fill:#FFFFFF;" d="M100.758,182.364c-24.313,0-44.095-19.781-44.095-44.095s19.781-44.095,44.095-44.095
							c24.314,0,44.096,19.781,44.096,44.095S125.073,182.364,100.758,182.364z M100.758,96.174
							c-23.211,0-42.095,18.884-42.095,42.095s18.884,42.095,42.095,42.095c23.212,0,42.096-18.884,42.096-42.095
							S123.97,96.174,100.758,96.174z"/>
					</g>
					<path style="fill:#D6D0D5;" d="M100.758,180.364c-23.211,0-42.095-18.884-42.095-42.095s18.884-42.095,42.095-42.095
						c6.21,0,12.104,1.362,17.416,3.787c0.443-0.536,0.896-1.062,1.36-1.579c-5.701-2.694-12.064-4.208-18.776-4.208
						c-24.313,0-44.095,19.781-44.095,44.095s19.781,44.095,44.095,44.095c2.897,0,5.727-0.289,8.469-0.825
						c-0.312-0.618-0.609-1.242-0.891-1.872C105.877,180.117,103.346,180.364,100.758,180.364z"/>
					<g>
						<g>
							<g>
								<g>
									<path style="fill:#FFFFFF;" d="M123.008,126.202c0,2.624-2.042,4.751-4.561,4.751c-2.519,0-4.561-2.127-4.561-4.751
										c0-2.624,2.042-4.752,4.561-4.752C120.966,121.451,123.008,123.578,123.008,126.202z"/>
								</g>
							</g>
						</g>
						<g>
							<g>
								<g>
									<ellipse style="fill:#D6D0D5;" cx="83.07" cy="126.202" rx="4.561" ry="4.752"/>
								</g>
							</g>
						</g>
						<g>
							<path style="fill:#FFFFFF;" d="M81.946,156.461c-0.29,0-0.582-0.092-0.831-0.281c-0.604-0.459-0.721-1.322-0.261-1.925
								c4.788-6.29,12.043-9.898,19.904-9.898s15.116,3.608,19.905,9.898c0.46,0.604,0.343,1.465-0.261,1.925
								c-0.603,0.458-1.465,0.344-1.925-0.261c-4.266-5.602-10.724-8.814-17.72-8.814c-6.996,0-13.454,3.212-17.719,8.814
								C82.77,156.274,82.36,156.461,81.946,156.461z"/>
						</g>
						<path style="fill:#D6D0D5;" d="M100.758,144.356c-7.861,0-15.116,3.608-19.904,9.898c-0.46,0.604-0.343,1.466,0.261,1.925
							c0.249,0.189,0.541,0.281,0.831,0.281c0.414,0,0.824-0.187,1.094-0.542c4.265-5.602,10.723-8.814,17.719-8.814
							c0.823,0,1.638,0.048,2.444,0.136c0.02-0.567,0.04-1.135,0.067-1.701c0.016-0.349,0.038-0.697,0.057-1.046
							C102.479,144.407,101.623,144.356,100.758,144.356z"/>
					</g>
				</g>
				<g>
					<path style="fill:#5C69E5;" d="M416.114,264.698h-79.18c-12.187,0-22.066,9.879-22.066,22.066v8.948
						c0,12.187,9.879,22.066,22.066,22.066h46.449c1.523,0,2.758,1.235,2.758,2.758v11.652c0,2.282,2.614,3.577,4.429,2.194
						l21.065-16.041c0.48-0.366,1.067-0.564,1.671-0.564h2.807c12.187,0,22.066-9.879,22.066-22.066v-8.948
						C438.18,274.577,428.301,264.698,416.114,264.698z"/>
					<path style="fill:#4559CE;" d="M336.934,264.698c-12.187,0-22.066,9.879-22.066,22.066v8.948
						c0,12.187,9.879,22.066,22.066,22.066h28.944c-3.31-6.6-5.522-13.745-6.379-21.083c-1.264-10.827,0.42-21.927,4.579-31.998
						H336.934z"/>
					<g>
						<g>
							<path style="fill:#FFFFFF;" d="M417.792,293.409h-82.535c-1.199,0-2.171-0.972-2.171-2.171l0,0
								c0-1.199,0.972-2.171,2.171-2.171h82.535c1.199,0,2.171,0.972,2.171,2.171l0,0
								C419.963,292.437,418.991,293.409,417.792,293.409z"/>
							<path style="fill:#FFFFFF;" d="M417.792,281.551h-82.535c-1.199,0-2.171-0.972-2.171-2.171l0,0
								c0-1.199,0.972-2.171,2.171-2.171h82.535c1.199,0,2.171,0.972,2.171,2.171l0,0
								C419.963,280.579,418.991,281.551,417.792,281.551z"/>
							<path style="fill:#FFFFFF;" d="M417.792,300.925h-82.535c-1.199,0-2.171,0.972-2.171,2.171l0,0
								c0,1.199,0.972,2.171,2.171,2.171h82.535c1.199,0,2.171-0.972,2.171-2.171l0,0
								C419.963,301.897,418.991,300.925,417.792,300.925z"/>
						</g>
						<g>
							<path style="fill:#D6D0D5;" d="M359.101,289.068h-23.844c-1.199,0-2.171,0.972-2.171,2.17c0,1.199,0.972,2.171,2.171,2.171
								h23.956C359.123,291.963,359.09,290.515,359.101,289.068z"/>
							<path style="fill:#D6D0D5;" d="M335.257,277.21c-1.199,0-2.171,0.972-2.171,2.171c0,1.199,0.972,2.171,2.171,2.171h24.357
								c0.184-1.455,0.423-2.901,0.705-4.341H335.257z"/>
							<path style="fill:#D6D0D5;" d="M360.161,300.925h-24.904c-1.199,0-2.171,0.972-2.171,2.171c0,1.199,0.972,2.171,2.171,2.171
								h25.893C360.771,303.83,360.436,302.384,360.161,300.925z"/>
						</g>
					</g>
				</g>
				<g>
					<path style="fill:#FFC32C;" d="M171.191,303.004H87.338c-8.289,0-15.009,6.72-15.009,15.009v40.676
						c0,8.289,6.72,15.009,15.009,15.009h24.485c1.195,0,2.318,0.569,3.025,1.532l11.392,15.519c1.499,2.043,4.55,2.043,6.05,0
						l11.391-15.519c0.707-0.963,1.83-1.532,3.025-1.532h24.485c8.289,0,15.009-6.72,15.009-15.009v-40.676
						C186.2,309.724,179.48,303.004,171.191,303.004z"/>
					<path style="fill:#E8A81A;" d="M87.338,303.004c-8.289,0-15.009,6.72-15.009,15.009v40.676c0,8.289,6.72,15.009,15.009,15.009
						h24.485c1.195,0,2.318,0.569,3.025,1.532l11.392,15.519c1.499,2.043,4.55,2.043,6.05,0l7.032-9.58
						c-12.407-6.461-22.494-17.443-27.492-30.533c-5.855-15.333-4.574-33.161,3.106-47.632H87.338z"/>
					<path style="fill:#CC2756;" d="M170.1,368.856H88.429c-6.217,0-11.257-5.04-11.257-11.257v-38.495
						c0-6.217,5.04-11.257,11.257-11.257H170.1c6.217,0,11.257,5.04,11.257,11.257v38.495
						C181.357,363.816,176.317,368.856,170.1,368.856z"/>
					<path style="fill:#B71D50;" d="M88.429,307.847c-6.217,0-11.257,5.04-11.257,11.257v38.495c0,6.217,5.04,11.257,11.257,11.257
						h34.816c-4.9-5.297-8.839-11.473-11.415-18.219c-5.218-13.664-4.751-29.303,0.843-42.789H88.429z"/>
					<g>
						<path style="fill:#FFFFFF;" d="M126.261,322.536v31.632h-8.794l-11.711-17.678v17.678h-8.794v-31.632h8.794l11.711,17.901
							v-17.901H126.261z"/>
						<path style="fill:#D6D0D5;" d="M105.756,336.489l3.572,5.392c-1.021-5.069-1.365-10.272-1.016-15.438l-2.556-3.907h-8.794
							v31.632h8.794V336.489z"/>
						<path style="fill:#FFFFFF;" d="M146.448,354.481c-8.974,0-16.242-6.73-16.242-16.241c0-9.513,7.268-16.199,16.242-16.199
							c9.019,0,16.197,6.686,16.197,16.199C162.645,347.751,155.422,354.481,146.448,354.481z M146.448,346.315
							c4.533,0,7.269-3.186,7.269-8.075c0-4.981-2.736-8.121-7.269-8.121c-4.577,0-7.269,3.14-7.269,8.121
							C139.179,343.129,141.871,346.315,146.448,346.315z"/>
					</g>
				</g>
				<g>
					<path style="fill:#35A075;" d="M441.956,90.042H273.615c-9.893,0-17.912,8.02-17.912,17.912v12.312
						c0,9.893,8.02,17.912,17.912,17.912h60.163c1.952,0,3.787,0.929,4.942,2.503l14.124,19.241c2.45,3.337,7.434,3.337,9.884,0
						l14.124-19.241c1.155-1.573,2.99-2.503,4.942-2.503h60.163c9.893,0,17.912-8.02,17.912-17.912v-12.312
						C459.868,98.062,451.848,90.042,441.956,90.042z"/>
					<g>
						<path style="fill:#CC2756;" d="M441.956,90.042H273.615c-9.893,0-17.912,8.02-17.912,17.912v12.312
							c0,9.893,8.02,17.912,17.912,17.912h60.163c1.952,0,3.787,0.929,4.942,2.503l14.124,19.241c2.45,3.337,7.434,3.337,9.884,0
							l14.124-19.241c1.155-1.573,2.99-2.503,4.942-2.503h60.163c9.893,0,17.912-8.02,17.912-17.912v-12.312
							C459.868,98.062,451.848,90.042,441.956,90.042z"/>
						<path style="fill:#B71D50;" d="M273.615,90.042c-9.893,0-17.912,8.02-17.912,17.912v12.312c0,9.893,8.02,17.912,17.912,17.912
							h60.163c1.952,0,3.787,0.929,4.942,2.503l14.124,19.241c2.45,3.337,7.434,3.337,9.884,0l5.358-7.299
							c-8.793-4.117-15.872-12.034-20.883-20.561c-6.673-11.354-10.651-24.279-11.518-37.42c-0.101-1.526-0.156-3.072-0.071-4.601
							H273.615z"/>
					</g>
					<g>
						<g>
							<path style="fill:#FFC32C;" d="M281.971,124.143l-5.179,2.723c-1.516,0.797-3.287-0.49-2.998-2.178l0.989-5.767
								c0.115-0.67-0.107-1.354-0.594-1.829l-4.19-4.084c-1.226-1.195-0.55-3.278,1.145-3.524l5.791-0.841
								c0.673-0.098,1.255-0.521,1.556-1.13l2.59-5.247c0.758-1.536,2.948-1.536,3.706,0l2.59,5.247
								c0.301,0.61,0.883,1.032,1.556,1.13l5.791,0.841c1.695,0.246,2.371,2.329,1.145,3.524l-4.19,4.084
								c-0.487,0.475-0.709,1.159-0.594,1.829l0.989,5.767c0.29,1.688-1.482,2.975-2.998,2.178l-5.179-2.723
								C283.292,123.827,282.573,123.827,281.971,124.143z"/>
							<path style="fill:#E8A81A;" d="M274.189,117.092c0.487,0.475,0.709,1.159,0.594,1.829l-0.989,5.767
								c-0.289,1.688,1.482,2.975,2.998,2.178l5.179-2.723c0.079-0.041,0.164-0.063,0.246-0.093
								c-0.623-2.175-0.947-4.434-0.92-6.698c0.057-4.75,1.631-9.45,4.351-13.34l-0.863-1.748c-0.758-1.536-2.948-1.536-3.706,0
								l-2.59,5.247c-0.301,0.61-0.883,1.032-1.556,1.13l-5.791,0.841c-1.695,0.246-2.371,2.329-1.145,3.524L274.189,117.092z"/>
						</g>
						<g>
							<path style="fill:#9B184D;" d="M319.397,124.143l-5.179,2.723c-1.516,0.797-3.287-0.49-2.998-2.178l0.989-5.767
								c0.115-0.67-0.107-1.354-0.594-1.829l-4.19-4.084c-1.226-1.195-0.55-3.278,1.145-3.524l5.791-0.841
								c0.673-0.098,1.255-0.521,1.556-1.13l2.59-5.247c0.758-1.536,2.948-1.536,3.706,0l2.59,5.247
								c0.301,0.61,0.883,1.032,1.556,1.13l5.791,0.841c1.695,0.246,2.371,2.329,1.145,3.524l-4.19,4.084
								c-0.487,0.475-0.709,1.159-0.594,1.829l0.989,5.767c0.29,1.688-1.482,2.975-2.998,2.178l-5.179-2.723
								C320.719,123.827,319.999,123.827,319.397,124.143z"/>
							<path style="fill:#89164A;" d="M311.615,117.092c0.487,0.475,0.709,1.159,0.594,1.829l-0.989,5.767
								c-0.289,1.688,1.482,2.975,2.998,2.178l5.179-2.723c0.079-0.041,0.163-0.063,0.246-0.093
								c-0.623-2.175-0.947-4.434-0.92-6.698c0.057-4.75,1.631-9.45,4.351-13.34l-0.863-1.748c-0.758-1.536-2.948-1.536-3.706,0
								l-2.59,5.247c-0.301,0.61-0.883,1.032-1.556,1.13l-5.791,0.841c-1.695,0.246-2.371,2.329-1.145,3.524L311.615,117.092z"/>
						</g>
						<g>
							<path style="fill:#AD1C53;" d="M356.824,124.143l-5.179,2.723c-1.516,0.797-3.287-0.49-2.998-2.178l0.989-5.767
								c0.115-0.67-0.107-1.354-0.594-1.829l-4.19-4.084c-1.226-1.195-0.55-3.278,1.145-3.524l5.791-0.841
								c0.673-0.098,1.255-0.521,1.556-1.13l2.59-5.247c0.758-1.536,2.948-1.536,3.705,0l2.59,5.247
								c0.301,0.61,0.883,1.032,1.556,1.13l5.791,0.841c1.695,0.246,2.371,2.329,1.145,3.524l-4.19,4.084
								c-0.487,0.475-0.709,1.159-0.594,1.829l0.989,5.767c0.289,1.688-1.482,2.975-2.998,2.178l-5.179-2.723
								C358.145,123.827,357.426,123.827,356.824,124.143z"/>
							<path style="fill:#9B184D;" d="M349.041,117.092c0.487,0.475,0.709,1.159,0.594,1.829l-0.989,5.767
								c-0.289,1.688,1.482,2.975,2.998,2.178l5.179-2.723c0.079-0.041,0.163-0.063,0.246-0.093
								c-0.623-2.175-0.947-4.434-0.92-6.698c0.057-4.75,1.631-9.45,4.352-13.34l-0.863-1.748c-0.758-1.536-2.948-1.536-3.706,0
								l-2.59,5.247c-0.301,0.61-0.883,1.032-1.556,1.13l-5.791,0.841c-1.695,0.246-2.371,2.329-1.145,3.524L349.041,117.092z"/>
						</g>
						<g>
							<path style="fill:#AD1C53;" d="M394.25,124.143l-5.179,2.723c-1.516,0.797-3.287-0.49-2.998-2.178l0.989-5.767
								c0.115-0.67-0.107-1.354-0.594-1.829l-4.19-4.084c-1.226-1.195-0.55-3.278,1.145-3.524l5.791-0.841
								c0.673-0.098,1.255-0.521,1.556-1.13l2.59-5.247c0.758-1.536,2.948-1.536,3.706,0l2.59,5.247
								c0.301,0.61,0.883,1.032,1.556,1.13l5.791,0.841c1.695,0.246,2.371,2.329,1.145,3.524l-4.19,4.084
								c-0.487,0.475-0.709,1.159-0.594,1.829l0.989,5.767c0.289,1.688-1.482,2.975-2.998,2.178l-5.18-2.723
								C395.571,123.827,394.852,123.827,394.25,124.143z"/>
							<path style="fill:#9B184D;" d="M386.468,117.092c0.487,0.475,0.709,1.159,0.594,1.829l-0.989,5.767
								c-0.289,1.688,1.482,2.975,2.998,2.178l5.179-2.723c0.079-0.041,0.164-0.063,0.246-0.093
								c-0.623-2.175-0.947-4.434-0.92-6.698c0.057-4.75,1.631-9.45,4.351-13.34l-0.863-1.748c-0.758-1.536-2.948-1.536-3.706,0
								l-2.59,5.247c-0.301,0.61-0.883,1.032-1.556,1.13l-5.791,0.841c-1.695,0.246-2.371,2.329-1.145,3.524L386.468,117.092z"/>
						</g>
						<g>
							<path style="fill:#AD1C53;" d="M431.676,124.143l-5.179,2.723c-1.516,0.797-3.287-0.49-2.998-2.178l0.989-5.767
								c0.115-0.67-0.107-1.354-0.594-1.829l-4.19-4.084c-1.226-1.195-0.55-3.278,1.145-3.524l5.791-0.841
								c0.673-0.098,1.255-0.521,1.556-1.13l2.59-5.247c0.758-1.536,2.948-1.536,3.706,0l2.59,5.247
								c0.301,0.61,0.883,1.032,1.556,1.13l5.791,0.841c1.695,0.246,2.371,2.329,1.145,3.524l-4.19,4.084
								c-0.487,0.475-0.709,1.159-0.594,1.829l0.989,5.767c0.289,1.688-1.482,2.975-2.998,2.178l-5.179-2.723
								C432.997,123.827,432.278,123.827,431.676,124.143z"/>
							<path style="fill:#9B184D;" d="M423.894,117.092c0.487,0.475,0.709,1.159,0.594,1.829l-0.989,5.767
								c-0.29,1.688,1.482,2.975,2.998,2.178l5.179-2.723c0.079-0.041,0.164-0.063,0.246-0.093c-0.623-2.175-0.947-4.434-0.92-6.698
								c0.057-4.75,1.631-9.45,4.351-13.34l-0.863-1.748c-0.758-1.536-2.948-1.536-3.706,0l-2.59,5.247
								c-0.301,0.61-0.883,1.032-1.556,1.13l-5.791,0.841c-1.695,0.246-2.371,2.329-1.145,3.524L423.894,117.092z"/>
						</g>
					</g>
				</g>
			</g>
			<g>
				<g>
					<circle style="fill:#5C69E5;" cx="345.36" cy="390.394" r="19.671"/>
					<path style="fill:#4559CE;" d="M342.03,393.284c-0.92-7.994,2.044-16.259,7.545-22.097c-1.359-0.297-2.767-0.464-4.215-0.464
						c-10.864,0-19.671,8.807-19.671,19.671c0,10.864,8.807,19.671,19.671,19.671c1.606,0,3.158-0.214,4.652-0.577
						C345.684,405.134,342.733,399.391,342.03,393.284z"/>
					<circle style="fill:#FFFFFF;" cx="345.36" cy="390.394" r="15.24"/>
					<path style="fill:#E2E2E2;" d="M342.03,393.284c-0.724-6.295,0.961-12.76,4.393-18.077c-0.353-0.025-0.704-0.054-1.063-0.054
						c-8.417,0-15.24,6.823-15.24,15.24c0,8.417,6.823,15.24,15.24,15.24c0.466,0,0.924-0.029,1.38-0.07
						C344.218,401.917,342.538,397.694,342.03,393.284z"/>
					<path style="fill:#CC2756;" d="M347.693,390.394l5.495-5.495c0.08-0.081,0.151-0.167,0.211-0.259
						c0.362-0.549,0.362-1.267,0-1.816c-0.06-0.091-0.131-0.178-0.211-0.259c-0.322-0.322-0.744-0.483-1.167-0.483
						c-0.422,0-0.844,0.161-1.167,0.483l-5.495,5.495l-0.536-0.536l0,0l-4.958-4.958c-0.644-0.644-1.689-0.644-2.333,0
						s-0.644,1.689,0,2.333l5.495,5.495l-5.495,5.495c-0.644,0.644-0.644,1.689,0,2.333c0.644,0.644,1.689,0.644,2.333,0
						l3.739-3.738h0l1.756-1.756l5.495,5.495c0.322,0.322,0.744,0.483,1.167,0.483c0.422,0,0.844-0.161,1.167-0.483
						c0.08-0.08,0.151-0.167,0.211-0.259c0.423-0.64,0.352-1.511-0.211-2.074L347.693,390.394z"/>
					<g>
						<path style="fill:#B71D50;" d="M342.03,393.284c-0.067-0.585-0.108-1.172-0.134-1.759l-4.364,4.364
							c-0.644,0.644-0.644,1.689,0,2.333c0.644,0.644,1.689,0.644,2.333,0l2.566-2.566
							C342.265,394.872,342.122,394.083,342.03,393.284z"/>
						<path style="fill:#B71D50;" d="M339.865,382.566c-0.644-0.644-1.689-0.644-2.333,0c-0.644,0.644-0.644,1.689,0,2.333
							l4.361,4.361c0.059-1.396,0.236-2.785,0.51-4.157L339.865,382.566z"/>
					</g>
				</g>
				<g>
					<circle style="fill:#5C69E5;" cx="122.216" cy="244.93" r="19.671"/>
					<path style="fill:#4559CE;" d="M118.886,247.82c-0.92-7.994,2.044-16.259,7.545-22.097c-1.359-0.297-2.767-0.464-4.215-0.464
						c-10.864,0-19.671,8.807-19.671,19.671c0,10.864,8.807,19.671,19.671,19.671c1.606,0,3.158-0.214,4.652-0.577
						C122.54,259.669,119.589,253.926,118.886,247.82z"/>
					
						<ellipse transform="matrix(0.1579 -0.9875 0.9875 0.1579 -138.9409 326.9311)" style="fill:#FFFFFF;" cx="122.216" cy="244.929" rx="15.24" ry="15.24"/>
					<path style="fill:#E2E2E2;" d="M118.886,247.82c-0.724-6.295,0.961-12.76,4.393-18.077c-0.353-0.024-0.704-0.054-1.063-0.054
						c-8.417,0-15.24,6.823-15.24,15.24c0,8.417,6.823,15.24,15.24,15.24c0.466,0,0.924-0.029,1.379-0.07
						C121.074,256.452,119.394,252.23,118.886,247.82z"/>
					<path style="fill:#CC2565;" d="M124.549,244.929l5.495-5.495c0.081-0.081,0.151-0.167,0.212-0.259
						c0.362-0.549,0.362-1.267,0-1.816c-0.061-0.091-0.131-0.178-0.212-0.259c-0.322-0.322-0.744-0.483-1.167-0.483
						c-0.422,0-0.844,0.161-1.167,0.483l-5.495,5.495l-0.536-0.536l0,0l-4.959-4.959c-0.644-0.644-1.689-0.644-2.333,0
						c-0.644,0.644-0.644,1.689,0,2.333l5.495,5.495l-5.495,5.495c-0.644,0.644-0.644,1.689,0,2.333
						c0.644,0.644,1.689,0.644,2.333,0l3.739-3.739c0,0,0,0,0,0l1.756-1.756l5.495,5.495c0.322,0.322,0.744,0.483,1.167,0.483
						c0.422,0,0.844-0.161,1.167-0.483c0.081-0.081,0.151-0.167,0.212-0.259c0.423-0.64,0.352-1.511-0.212-2.074L124.549,244.929z"
						/>
					<g>
						<path style="fill:#B71D63;" d="M118.886,247.82c-0.067-0.585-0.108-1.172-0.134-1.759l-4.364,4.364
							c-0.644,0.644-0.644,1.689,0,2.333c0.644,0.644,1.689,0.644,2.333,0l2.566-2.566
							C119.121,249.407,118.978,248.618,118.886,247.82z"/>
						<path style="fill:#B71D63;" d="M116.721,237.101c-0.644-0.644-1.689-0.644-2.333,0c-0.644,0.644-0.644,1.689,0,2.333
							l4.361,4.361c0.059-1.396,0.236-2.785,0.51-4.157L116.721,237.101z"/>
					</g>
				</g>
				<g>
					
						<ellipse transform="matrix(0.9219 -0.3873 0.3873 0.9219 -51.5072 162.9189)" style="fill:#4559CE;" cx="378.467" cy="209.255" rx="19.671" ry="19.671"/>
					<path style="fill:#4559CE;" d="M375.137,212.145c-0.919-7.994,2.044-16.259,7.545-22.097c-1.359-0.297-2.767-0.464-4.215-0.464
						c-10.864,0-19.671,8.807-19.671,19.671c0,10.864,8.807,19.671,19.671,19.671c1.606,0,3.158-0.214,4.652-0.577
						C378.791,223.995,375.84,218.252,375.137,212.145z"/>
					
						<ellipse transform="matrix(0.2044 -0.9789 0.9789 0.2044 96.286 536.9723)" style="fill:#FFFFFF;" cx="378.467" cy="209.255" rx="15.24" ry="15.24"/>
					<path style="fill:#E2E2E2;" d="M375.137,212.145c-0.724-6.295,0.961-12.76,4.393-18.077c-0.353-0.024-0.704-0.054-1.063-0.054
						c-8.417,0-15.24,6.823-15.24,15.24c0,8.417,6.823,15.24,15.24,15.24c0.466,0,0.924-0.029,1.379-0.07
						C377.325,220.777,375.645,216.555,375.137,212.145z"/>
					<path style="fill:#CC2565;" d="M380.8,209.255l5.495-5.495c0.081-0.081,0.151-0.167,0.211-0.259
						c0.362-0.549,0.362-1.267,0-1.816c-0.06-0.091-0.131-0.178-0.211-0.259c-0.322-0.322-0.744-0.483-1.167-0.483
						c-0.422,0-0.845,0.161-1.167,0.483l-5.495,5.495l-0.536-0.536v0l-4.959-4.959c-0.644-0.644-1.689-0.644-2.333,0
						c-0.644,0.644-0.644,1.689,0,2.333l5.495,5.495l-5.495,5.495c-0.644,0.644-0.644,1.689,0,2.333
						c0.644,0.644,1.689,0.644,2.333,0l3.739-3.739c0,0,0,0,0,0l1.756-1.756l5.495,5.495c0.322,0.322,0.744,0.483,1.167,0.483
						c0.422,0,0.844-0.161,1.167-0.483c0.081-0.081,0.151-0.167,0.211-0.259c0.423-0.64,0.352-1.511-0.211-2.075L380.8,209.255z"/>
					<g>
						<path style="fill:#B71D63;" d="M375.137,212.145c-0.067-0.585-0.108-1.172-0.134-1.759l-4.364,4.364
							c-0.644,0.644-0.644,1.689,0,2.333c0.644,0.644,1.689,0.644,2.333,0l2.566-2.566
							C375.372,213.733,375.229,212.943,375.137,212.145z"/>
						<path style="fill:#B71D63;" d="M372.972,201.427c-0.644-0.644-1.689-0.644-2.333,0c-0.644,0.644-0.644,1.689,0,2.333
							l4.361,4.361c0.059-1.396,0.236-2.785,0.51-4.157L372.972,201.427z"/>
					</g>
				</g>
			</g>
		</g>
	</g>
</g>
</svg>
